G04*
G04 #@! TF.GenerationSoftware,Altium Limited,Altium Designer,20.1.14 (287)*
G04*
G04 Layer_Color=65535*
%FSLAX44Y44*%
%MOMM*%
G71*
G04*
G04 #@! TF.SameCoordinates,62FEBE6E-F3EC-4242-810F-CB492347D0CA*
G04*
G04*
G04 #@! TF.FilePolarity,Positive*
G04*
G01*
G75*
%ADD10C,0.2000*%
%ADD11C,0.5000*%
%ADD12C,0.4000*%
%ADD13C,0.1000*%
%ADD14C,0.2540*%
G36*
X339085Y290244D02*
X335671D01*
X335281Y300387D01*
X338558D01*
X338383Y293072D01*
X343104Y300387D01*
X346283D01*
X339085Y290244D01*
D02*
G37*
G36*
X368697D02*
X365849D01*
X368131Y296993D01*
X368092Y296973D01*
X367995Y296915D01*
X367819Y296817D01*
X367605Y296681D01*
X367351Y296544D01*
X367078Y296408D01*
X366512Y296135D01*
X366473Y296115D01*
X366376Y296076D01*
X366220Y296018D01*
X366005Y295940D01*
X365732Y295842D01*
X365420Y295745D01*
X365069Y295647D01*
X364679Y295530D01*
X365459Y297832D01*
X365478D01*
X365537Y297851D01*
X365615Y297871D01*
X365732Y297910D01*
X365868Y297949D01*
X366025Y298007D01*
X366395Y298144D01*
X366805Y298300D01*
X367234Y298476D01*
X367663Y298690D01*
X368073Y298924D01*
X368092D01*
X368112Y298963D01*
X368170Y298983D01*
X368248Y299041D01*
X368443Y299178D01*
X368677Y299373D01*
X368951Y299607D01*
X369263Y299900D01*
X369575Y300212D01*
X369868Y300563D01*
X372189D01*
X368697Y290244D01*
D02*
G37*
G36*
X346712D02*
X343708D01*
X344664Y293072D01*
X347668D01*
X346712Y290244D01*
D02*
G37*
G36*
X333740Y298222D02*
X328493D01*
X327927Y296603D01*
X332804D01*
X332102Y294535D01*
X327225D01*
X326562Y292545D01*
X331965D01*
X331185Y290244D01*
X322641D01*
X326074Y300387D01*
X334462D01*
X333740Y298222D01*
D02*
G37*
G36*
X320826Y300368D02*
X321138Y300348D01*
X321490Y300329D01*
X321841Y300290D01*
X322172Y300212D01*
X322465Y300134D01*
X322504Y300114D01*
X322582Y300075D01*
X322699Y300017D01*
X322836Y299919D01*
X322992Y299802D01*
X323148Y299627D01*
X323284Y299431D01*
X323382Y299197D01*
X323401Y299158D01*
X323421Y299080D01*
X323440Y298944D01*
X323460Y298749D01*
X323479Y298515D01*
X323460Y298222D01*
X323401Y297910D01*
X323304Y297559D01*
X323284Y297520D01*
X323245Y297422D01*
X323187Y297266D01*
X323089Y297071D01*
X322972Y296837D01*
X322816Y296583D01*
X322641Y296330D01*
X322445Y296096D01*
X322426Y296076D01*
X322348Y295998D01*
X322231Y295881D01*
X322075Y295745D01*
X321880Y295588D01*
X321646Y295413D01*
X321392Y295257D01*
X321119Y295101D01*
X321100D01*
X321041Y295062D01*
X320924Y295023D01*
X320787Y294964D01*
X320592Y294906D01*
X320378Y294847D01*
X320144Y294769D01*
X319870Y294711D01*
X319890D01*
X319949Y294672D01*
X320027Y294633D01*
X320144Y294594D01*
X320358Y294477D01*
X320475Y294399D01*
X320553Y294340D01*
X320573Y294321D01*
X320651Y294223D01*
X320690Y294145D01*
X320748Y294048D01*
X320807Y293930D01*
X320865Y293794D01*
Y293774D01*
X320904Y293735D01*
X320924Y293657D01*
X320963Y293560D01*
X321041Y293365D01*
X321100Y293170D01*
X321646Y290244D01*
X318095D01*
X317452Y293326D01*
Y293345D01*
X317432Y293423D01*
X317413Y293521D01*
X317374Y293657D01*
X317296Y293911D01*
X317237Y294028D01*
X317159Y294106D01*
X317139Y294125D01*
X317120Y294145D01*
X317062Y294184D01*
X316984Y294242D01*
X316886Y294282D01*
X316749Y294321D01*
X316613Y294340D01*
X316457Y294360D01*
X316184D01*
X314799Y290244D01*
X311658D01*
X315091Y300387D01*
X320670D01*
X320826Y300368D01*
D02*
G37*
G36*
X360933Y300543D02*
X361167Y300524D01*
X361421Y300504D01*
X361674Y300465D01*
X361928Y300387D01*
X362162Y300309D01*
X362182Y300290D01*
X362260Y300270D01*
X362357Y300212D01*
X362494Y300134D01*
X362767Y299919D01*
X362903Y299802D01*
X363021Y299646D01*
X363040Y299627D01*
X363060Y299568D01*
X363118Y299490D01*
X363176Y299392D01*
X363235Y299256D01*
X363294Y299119D01*
X363372Y298788D01*
Y298768D01*
X363391Y298710D01*
Y298612D01*
X363411Y298495D01*
X363430Y298339D01*
Y298164D01*
Y297968D01*
X363411Y297754D01*
Y297734D01*
Y297695D01*
X363391Y297637D01*
Y297559D01*
X363372Y297461D01*
X363352Y297325D01*
X363313Y297032D01*
X363235Y296681D01*
X363157Y296271D01*
X363040Y295842D01*
X362884Y295374D01*
X362864Y295335D01*
X362845Y295257D01*
X362786Y295120D01*
X362708Y294925D01*
X362630Y294691D01*
X362513Y294438D01*
X362396Y294145D01*
X362240Y293833D01*
X361908Y293189D01*
X361518Y292506D01*
X361304Y292194D01*
X361070Y291882D01*
X360836Y291590D01*
X360582Y291336D01*
X360563Y291317D01*
X360523Y291277D01*
X360446Y291219D01*
X360328Y291141D01*
X360192Y291043D01*
X360036Y290926D01*
X359841Y290829D01*
X359607Y290712D01*
X359373Y290575D01*
X359100Y290478D01*
X358787Y290361D01*
X358475Y290263D01*
X358124Y290185D01*
X357753Y290126D01*
X357344Y290088D01*
X356934Y290068D01*
X356720D01*
X356505Y290088D01*
X356212Y290126D01*
X355900Y290166D01*
X355588Y290224D01*
X355276Y290322D01*
X355003Y290458D01*
X354983Y290478D01*
X354906Y290536D01*
X354788Y290634D01*
X354652Y290770D01*
X354515Y290926D01*
X354359Y291141D01*
X354223Y291395D01*
X354125Y291668D01*
Y291687D01*
X354106Y291765D01*
X354086Y291902D01*
X354047Y292077D01*
X354028Y292292D01*
Y292545D01*
Y292857D01*
X354067Y293189D01*
Y293209D01*
Y293228D01*
X354086Y293287D01*
Y293365D01*
X354125Y293560D01*
X354184Y293833D01*
X354262Y294145D01*
X354359Y294516D01*
X354476Y294925D01*
X354613Y295354D01*
X354632Y295394D01*
X354652Y295491D01*
X354710Y295628D01*
X354788Y295823D01*
X354886Y296057D01*
X355003Y296330D01*
X355120Y296622D01*
X355276Y296935D01*
X355627Y297617D01*
X356037Y298281D01*
X356271Y298593D01*
X356505Y298885D01*
X356759Y299158D01*
X357012Y299392D01*
X357032Y299412D01*
X357071Y299451D01*
X357168Y299510D01*
X357266Y299568D01*
X357422Y299666D01*
X357578Y299763D01*
X357773Y299861D01*
X358007Y299978D01*
X358241Y300095D01*
X358514Y300192D01*
X358807Y300290D01*
X359119Y300387D01*
X359470Y300446D01*
X359821Y300504D01*
X360192Y300543D01*
X360582Y300563D01*
X360758D01*
X360933Y300543D01*
D02*
G37*
G36*
X441781Y316151D02*
X438836D01*
X436924Y321730D01*
X435032Y316151D01*
X432086D01*
X435520Y326295D01*
X438446D01*
X440357Y320657D01*
X442269Y326295D01*
X445215D01*
X441781Y316151D01*
D02*
G37*
G36*
X332405Y316151D02*
X329459D01*
X327547Y321730D01*
X325655Y316151D01*
X322710D01*
X326143Y326295D01*
X329069D01*
X330980Y320657D01*
X332892Y326295D01*
X335838D01*
X332405Y316151D01*
D02*
G37*
G36*
X396583Y316151D02*
X393170D01*
X392779Y326295D01*
X396057D01*
X395881Y318979D01*
X400602Y326295D01*
X403781D01*
X396583Y316151D01*
D02*
G37*
G36*
X384157Y320247D02*
X384138Y320208D01*
X384099Y320091D01*
X384021Y319916D01*
X383943Y319701D01*
X383806Y319448D01*
X383670Y319155D01*
X383494Y318862D01*
X383299Y318550D01*
X383279Y318511D01*
X383201Y318414D01*
X383084Y318258D01*
X382928Y318082D01*
X382733Y317848D01*
X382499Y317614D01*
X382245Y317380D01*
X381953Y317146D01*
X381914Y317126D01*
X381816Y317048D01*
X381660Y316951D01*
X381465Y316814D01*
X381231Y316678D01*
X380958Y316541D01*
X380685Y316404D01*
X380412Y316307D01*
X380392D01*
X380373Y316287D01*
X380314Y316268D01*
X380236Y316248D01*
X380139Y316229D01*
X380022Y316210D01*
X379729Y316151D01*
X379397Y316073D01*
X378988Y316034D01*
X378559Y315995D01*
X378090Y315975D01*
X377817D01*
X377622Y315995D01*
X377388D01*
X377115Y316014D01*
X376822Y316034D01*
X376510Y316073D01*
X376471D01*
X376374Y316092D01*
X376218Y316112D01*
X376023Y316170D01*
X375828Y316210D01*
X375593Y316287D01*
X375379Y316385D01*
X375184Y316483D01*
X375164Y316502D01*
X375106Y316541D01*
X375028Y316619D01*
X374911Y316717D01*
X374794Y316834D01*
X374657Y316990D01*
X374540Y317165D01*
X374423Y317360D01*
X374403Y317380D01*
X374384Y317458D01*
X374325Y317575D01*
X374286Y317712D01*
X374228Y317887D01*
X374189Y318102D01*
X374150Y318316D01*
Y318531D01*
Y318550D01*
Y318570D01*
X374170Y318687D01*
Y318882D01*
X374208Y319097D01*
X374248Y319370D01*
X374286Y319662D01*
X374365Y319955D01*
X374443Y320247D01*
X376491Y326295D01*
X379612D01*
X377505Y320091D01*
X377486Y320052D01*
X377466Y319955D01*
X377427Y319799D01*
X377408Y319623D01*
X377388Y319409D01*
X377408Y319194D01*
X377447Y318979D01*
X377525Y318784D01*
X377544Y318765D01*
X377583Y318706D01*
X377661Y318648D01*
X377778Y318570D01*
X377934Y318472D01*
X378129Y318414D01*
X378363Y318355D01*
X378656Y318336D01*
X378793D01*
X378949Y318355D01*
X379144Y318394D01*
X379358Y318453D01*
X379593Y318531D01*
X379846Y318628D01*
X380080Y318784D01*
X380100Y318804D01*
X380178Y318862D01*
X380295Y318979D01*
X380431Y319116D01*
X380568Y319311D01*
X380724Y319526D01*
X380860Y319799D01*
X380978Y320091D01*
X383084Y326295D01*
X386205Y326295D01*
X384157Y320247D01*
D02*
G37*
G36*
X322007D02*
X321988Y320208D01*
X321949Y320091D01*
X321871Y319916D01*
X321793Y319701D01*
X321656Y319448D01*
X321520Y319155D01*
X321344Y318862D01*
X321149Y318550D01*
X321129Y318511D01*
X321051Y318414D01*
X320934Y318258D01*
X320778Y318082D01*
X320583Y317848D01*
X320349Y317614D01*
X320095Y317380D01*
X319803Y317146D01*
X319764Y317126D01*
X319666Y317048D01*
X319510Y316951D01*
X319315Y316814D01*
X319081Y316678D01*
X318808Y316541D01*
X318535Y316404D01*
X318262Y316307D01*
X318242D01*
X318223Y316287D01*
X318164Y316268D01*
X318086Y316248D01*
X317989Y316229D01*
X317872Y316210D01*
X317579Y316151D01*
X317247Y316073D01*
X316838Y316034D01*
X316409Y315995D01*
X315940Y315975D01*
X315667D01*
X315472Y315995D01*
X315238D01*
X314965Y316014D01*
X314673Y316034D01*
X314360Y316073D01*
X314321D01*
X314224Y316092D01*
X314068Y316112D01*
X313873Y316170D01*
X313678Y316210D01*
X313444Y316287D01*
X313229Y316385D01*
X313034Y316483D01*
X313014Y316502D01*
X312956Y316541D01*
X312878Y316619D01*
X312761Y316717D01*
X312644Y316834D01*
X312507Y316990D01*
X312390Y317165D01*
X312273Y317360D01*
X312254Y317380D01*
X312234Y317458D01*
X312176Y317575D01*
X312137Y317712D01*
X312078Y317887D01*
X312039Y318102D01*
X312000Y318316D01*
Y318531D01*
Y318550D01*
Y318570D01*
X312020Y318687D01*
Y318882D01*
X312059Y319097D01*
X312097Y319370D01*
X312137Y319662D01*
X312215Y319955D01*
X312293Y320247D01*
X314341Y326295D01*
X317462D01*
X315355Y320091D01*
X315336Y320052D01*
X315316Y319955D01*
X315277Y319799D01*
X315258Y319623D01*
X315238Y319409D01*
X315258Y319194D01*
X315297Y318979D01*
X315375Y318784D01*
X315394Y318765D01*
X315433Y318706D01*
X315511Y318648D01*
X315628Y318570D01*
X315784Y318472D01*
X315979Y318414D01*
X316214Y318355D01*
X316506Y318336D01*
X316643D01*
X316799Y318355D01*
X316994Y318394D01*
X317208Y318453D01*
X317442Y318531D01*
X317696Y318628D01*
X317930Y318784D01*
X317950Y318804D01*
X318028Y318862D01*
X318145Y318979D01*
X318281Y319116D01*
X318418Y319311D01*
X318574Y319526D01*
X318710Y319799D01*
X318827Y320091D01*
X320934Y326295D01*
X324055D01*
X322007Y320247D01*
D02*
G37*
G36*
X512163Y326275D02*
X512280D01*
X512593Y326256D01*
X512944Y326197D01*
X513295Y326139D01*
X513626Y326041D01*
X513919Y325905D01*
X513958Y325885D01*
X514036Y325846D01*
X514173Y325748D01*
X514329Y325631D01*
X514485Y325475D01*
X514660Y325300D01*
X514816Y325085D01*
X514953Y324832D01*
X514972Y324793D01*
X514992Y324715D01*
X515051Y324559D01*
X515109Y324383D01*
X515148Y324129D01*
X515187Y323856D01*
X515206Y323544D01*
Y323213D01*
Y323193D01*
Y323173D01*
X515187Y323056D01*
X515168Y322861D01*
X515129Y322608D01*
X515070Y322315D01*
X514992Y321984D01*
X514894Y321632D01*
X514777Y321242D01*
Y321223D01*
X514758Y321164D01*
X514719Y321086D01*
X514680Y320969D01*
X514621Y320833D01*
X514563Y320677D01*
X514426Y320326D01*
X514231Y319916D01*
X514036Y319506D01*
X513802Y319097D01*
X513548Y318726D01*
X513509Y318687D01*
X513431Y318570D01*
X513295Y318414D01*
X513100Y318199D01*
X512885Y317965D01*
X512612Y317712D01*
X512319Y317458D01*
X512007Y317224D01*
X511968Y317204D01*
X511871Y317126D01*
X511695Y317029D01*
X511481Y316892D01*
X511227Y316756D01*
X510934Y316639D01*
X510642Y316522D01*
X510330Y316424D01*
X510310D01*
X510271Y316404D01*
X510213D01*
X510135Y316385D01*
X509920Y316346D01*
X509666Y316287D01*
X509354Y316229D01*
X509023Y316190D01*
X508691Y316171D01*
X508359Y316151D01*
X503717D01*
X507150Y326295D01*
X512046D01*
X512163Y326275D01*
D02*
G37*
G36*
X501864D02*
X502176Y326256D01*
X502527Y326236D01*
X502878Y326197D01*
X503210Y326119D01*
X503502Y326041D01*
X503541Y326022D01*
X503619Y325983D01*
X503736Y325924D01*
X503873Y325826D01*
X504029Y325709D01*
X504185Y325534D01*
X504322Y325339D01*
X504419Y325105D01*
X504439Y325066D01*
X504458Y324988D01*
X504478Y324851D01*
X504497Y324656D01*
X504517Y324422D01*
X504497Y324129D01*
X504439Y323817D01*
X504341Y323466D01*
X504322Y323427D01*
X504282Y323330D01*
X504224Y323173D01*
X504126Y322979D01*
X504009Y322744D01*
X503853Y322491D01*
X503678Y322237D01*
X503483Y322003D01*
X503463Y321984D01*
X503385Y321906D01*
X503268Y321788D01*
X503112Y321652D01*
X502917Y321496D01*
X502683Y321320D01*
X502429Y321164D01*
X502156Y321008D01*
X502137D01*
X502078Y320969D01*
X501961Y320930D01*
X501825Y320872D01*
X501629Y320813D01*
X501415Y320755D01*
X501181Y320677D01*
X500908Y320618D01*
X500927D01*
X500986Y320579D01*
X501064Y320540D01*
X501181Y320501D01*
X501395Y320384D01*
X501512Y320306D01*
X501590Y320247D01*
X501610Y320228D01*
X501688Y320130D01*
X501727Y320052D01*
X501786Y319955D01*
X501844Y319838D01*
X501903Y319701D01*
Y319682D01*
X501942Y319643D01*
X501961Y319565D01*
X502000Y319467D01*
X502078Y319272D01*
X502137Y319077D01*
X502683Y316151D01*
X499133D01*
X498489Y319233D01*
Y319253D01*
X498469Y319331D01*
X498450Y319428D01*
X498411Y319565D01*
X498333Y319818D01*
X498274Y319935D01*
X498196Y320013D01*
X498177Y320033D01*
X498157Y320052D01*
X498099Y320091D01*
X498021Y320150D01*
X497923Y320189D01*
X497787Y320228D01*
X497650Y320247D01*
X497494Y320267D01*
X497221D01*
X495836Y316151D01*
X492695D01*
X496129Y326295D01*
X501707D01*
X501864Y326275D01*
D02*
G37*
G36*
X491642Y316151D02*
X488345D01*
X488423Y317829D01*
X484873D01*
X483780Y316151D01*
X480601D01*
X487838Y326295D01*
X491271D01*
X491642Y316151D01*
D02*
G37*
G36*
X468370Y326275D02*
X468487D01*
X468623Y326256D01*
X468935Y326197D01*
X469267Y326119D01*
X469599Y325983D01*
X469891Y325807D01*
X470008Y325690D01*
X470125Y325553D01*
X470145Y325514D01*
X470203Y325417D01*
X470281Y325261D01*
X470359Y325066D01*
X470418Y324793D01*
X470438Y324500D01*
X470398Y324149D01*
X470359Y323954D01*
X470301Y323759D01*
X470281Y323720D01*
X470242Y323603D01*
X470164Y323447D01*
X470067Y323232D01*
X469911Y322998D01*
X469735Y322725D01*
X469501Y322471D01*
X469228Y322218D01*
X469208Y322198D01*
X469131Y322140D01*
X469013Y322062D01*
X468857Y321964D01*
X468682Y321867D01*
X468448Y321749D01*
X468194Y321632D01*
X467902Y321535D01*
X467921D01*
X467941Y321515D01*
X468058Y321476D01*
X468233Y321418D01*
X468428Y321320D01*
X468662Y321203D01*
X468857Y321047D01*
X469053Y320852D01*
X469189Y320638D01*
X469208Y320618D01*
X469228Y320521D01*
X469267Y320384D01*
X469306Y320189D01*
X469326Y319955D01*
X469306Y319682D01*
X469267Y319370D01*
X469170Y319018D01*
X469150Y318979D01*
X469111Y318882D01*
X469053Y318745D01*
X468955Y318550D01*
X468838Y318336D01*
X468701Y318082D01*
X468526Y317848D01*
X468311Y317595D01*
X468292Y317575D01*
X468214Y317497D01*
X468097Y317380D01*
X467941Y317243D01*
X467746Y317087D01*
X467511Y316912D01*
X467258Y316756D01*
X466985Y316619D01*
X466965D01*
X466887Y316580D01*
X466790Y316541D01*
X466634Y316483D01*
X466458Y316444D01*
X466224Y316385D01*
X465970Y316327D01*
X465678Y316287D01*
X465639D01*
X465580Y316268D01*
X465502D01*
X465307Y316248D01*
X465073Y316229D01*
X464839Y316190D01*
X464605Y316171D01*
X464390Y316151D01*
X458831D01*
X462264Y326295D01*
X468272D01*
X468370Y326275D01*
D02*
G37*
G36*
X455280Y323798D02*
X452081D01*
X449487Y316151D01*
X446346D01*
X448941Y323798D01*
X445741D01*
X446580Y326295D01*
X456119D01*
X455280Y323798D01*
D02*
G37*
G36*
X432945Y324129D02*
X427697D01*
X427132Y322510D01*
X432008D01*
X431306Y320443D01*
X426429D01*
X425766Y318453D01*
X431170D01*
X430389Y316151D01*
X421845D01*
X425278Y326295D01*
X433666D01*
X432945Y324129D01*
D02*
G37*
G36*
X416383Y318648D02*
X421260D01*
X420421Y316151D01*
X412404D01*
X415837Y326295D01*
X418978D01*
X416383Y318648D01*
D02*
G37*
G36*
X411389Y316151D02*
X408092D01*
X408171Y317829D01*
X404620D01*
X403528Y316151D01*
X400348D01*
X407585Y326295D01*
X411019D01*
X411389Y316151D01*
D02*
G37*
G36*
X388117D02*
X384976D01*
X388410Y326295D01*
X391550D01*
X388117Y316151D01*
D02*
G37*
G36*
X362114Y324129D02*
X356867D01*
X356301Y322510D01*
X361178D01*
X360475Y320443D01*
X355599D01*
X354935Y318453D01*
X360339D01*
X359559Y316151D01*
X351014D01*
X354448Y326295D01*
X362836D01*
X362114Y324129D01*
D02*
G37*
G36*
X478591Y326451D02*
X478806Y326431D01*
X479040Y326392D01*
X479294Y326353D01*
X479567Y326295D01*
X479840Y326236D01*
X480133Y326139D01*
X480425Y326022D01*
X480698Y325905D01*
X480971Y325729D01*
X481205Y325553D01*
X481420Y325339D01*
X481615Y325105D01*
X481635Y325085D01*
X481654Y325046D01*
X481693Y324968D01*
X481752Y324851D01*
X481810Y324715D01*
X481869Y324539D01*
X481927Y324344D01*
X481966Y324110D01*
X482005Y323856D01*
X482044Y323564D01*
Y323252D01*
Y322920D01*
X482005Y322549D01*
X481927Y322159D01*
X481830Y321730D01*
X481693Y321281D01*
Y321262D01*
X481674Y321203D01*
X481635Y321106D01*
X481576Y320989D01*
X481518Y320833D01*
X481459Y320657D01*
X481362Y320462D01*
X481264Y320247D01*
X481030Y319779D01*
X480757Y319292D01*
X480445Y318804D01*
X480094Y318355D01*
X480074Y318336D01*
X480055Y318297D01*
X479996Y318238D01*
X479918Y318160D01*
X479723Y317965D01*
X479430Y317712D01*
X479099Y317438D01*
X478708Y317146D01*
X478260Y316853D01*
X477772Y316600D01*
X477753D01*
X477714Y316580D01*
X477636Y316541D01*
X477538Y316502D01*
X477402Y316463D01*
X477265Y316404D01*
X477089Y316346D01*
X476894Y316287D01*
X476680Y316229D01*
X476446Y316171D01*
X475919Y316073D01*
X475353Y315995D01*
X474729Y315975D01*
X474456D01*
X474300Y315995D01*
X474144Y316014D01*
X473754Y316053D01*
X473325Y316112D01*
X472895Y316210D01*
X472466Y316346D01*
X472076Y316522D01*
X472057D01*
X472037Y316541D01*
X471920Y316619D01*
X471764Y316756D01*
X471569Y316951D01*
X471374Y317185D01*
X471159Y317477D01*
X470984Y317829D01*
X470847Y318238D01*
Y318258D01*
X470828Y318297D01*
Y318355D01*
X470808Y318453D01*
X470789Y318570D01*
Y318706D01*
Y318862D01*
X470769Y319058D01*
X470789Y319253D01*
Y319487D01*
X470847Y319994D01*
X470964Y320560D01*
X471062Y320872D01*
X471159Y321203D01*
X471179Y321223D01*
X471198Y321320D01*
X471257Y321437D01*
X471315Y321613D01*
X471413Y321828D01*
X471530Y322062D01*
X471647Y322335D01*
X471803Y322627D01*
X471979Y322939D01*
X472193Y323252D01*
X472408Y323564D01*
X472642Y323895D01*
X472915Y324207D01*
X473208Y324520D01*
X473520Y324812D01*
X473851Y325085D01*
X473871Y325105D01*
X473929Y325144D01*
X474046Y325222D01*
X474183Y325300D01*
X474358Y325397D01*
X474573Y325514D01*
X474807Y325651D01*
X475080Y325788D01*
X475392Y325905D01*
X475724Y326041D01*
X476075Y326158D01*
X476465Y326256D01*
X476855Y326334D01*
X477285Y326412D01*
X477733Y326451D01*
X478182Y326470D01*
X478416D01*
X478591Y326451D01*
D02*
G37*
G36*
X343251Y326451D02*
X343465Y326431D01*
X343699Y326392D01*
X343953Y326353D01*
X344226Y326295D01*
X344499Y326236D01*
X344792Y326139D01*
X345084Y326022D01*
X345357Y325905D01*
X345630Y325729D01*
X345864Y325553D01*
X346079Y325339D01*
X346274Y325105D01*
X346294Y325085D01*
X346313Y325046D01*
X346352Y324968D01*
X346411Y324851D01*
X346469Y324715D01*
X346528Y324539D01*
X346586Y324344D01*
X346625Y324110D01*
X346664Y323856D01*
X346703Y323564D01*
Y323252D01*
Y322920D01*
X346664Y322549D01*
X346586Y322159D01*
X346489Y321730D01*
X346352Y321281D01*
Y321262D01*
X346333Y321203D01*
X346294Y321106D01*
X346235Y320989D01*
X346177Y320833D01*
X346118Y320657D01*
X346021Y320462D01*
X345923Y320247D01*
X345689Y319779D01*
X345416Y319292D01*
X345104Y318804D01*
X344753Y318355D01*
X344733Y318336D01*
X344714Y318297D01*
X344655Y318238D01*
X344577Y318160D01*
X344382Y317965D01*
X344089Y317712D01*
X343758Y317438D01*
X343368Y317146D01*
X342919Y316853D01*
X342431Y316600D01*
X342412D01*
X342373Y316580D01*
X342295Y316541D01*
X342197Y316502D01*
X342061Y316463D01*
X341924Y316404D01*
X341749Y316346D01*
X341553Y316287D01*
X341339Y316229D01*
X341105Y316170D01*
X340578Y316073D01*
X340012Y315995D01*
X339388Y315975D01*
X339115D01*
X338959Y315995D01*
X338803Y316014D01*
X338413Y316053D01*
X337984Y316112D01*
X337554Y316210D01*
X337125Y316346D01*
X336735Y316522D01*
X336716D01*
X336696Y316541D01*
X336579Y316619D01*
X336423Y316756D01*
X336228Y316951D01*
X336033Y317185D01*
X335818Y317477D01*
X335643Y317829D01*
X335506Y318238D01*
Y318258D01*
X335487Y318297D01*
Y318355D01*
X335467Y318453D01*
X335448Y318570D01*
Y318706D01*
Y318862D01*
X335428Y319058D01*
X335448Y319253D01*
Y319487D01*
X335506Y319994D01*
X335623Y320560D01*
X335721Y320872D01*
X335818Y321203D01*
X335838Y321223D01*
X335857Y321320D01*
X335916Y321437D01*
X335974Y321613D01*
X336072Y321828D01*
X336189Y322062D01*
X336306Y322335D01*
X336462Y322627D01*
X336638Y322939D01*
X336852Y323252D01*
X337067Y323564D01*
X337301Y323895D01*
X337574Y324207D01*
X337867Y324520D01*
X338179Y324812D01*
X338510Y325085D01*
X338530Y325105D01*
X338588Y325144D01*
X338705Y325222D01*
X338842Y325300D01*
X339017Y325397D01*
X339232Y325514D01*
X339466Y325651D01*
X339739Y325788D01*
X340051Y325905D01*
X340383Y326041D01*
X340734Y326158D01*
X341124Y326256D01*
X341514Y326334D01*
X341944Y326412D01*
X342392Y326451D01*
X342841Y326470D01*
X343075D01*
X343251Y326451D01*
D02*
G37*
G36*
X369995D02*
X370190Y326431D01*
X370424Y326392D01*
X370678Y326353D01*
X370951Y326295D01*
X371243Y326236D01*
X371536Y326139D01*
X371809Y326022D01*
X372102Y325905D01*
X372355Y325729D01*
X372609Y325553D01*
X372823Y325339D01*
X373018Y325105D01*
X373038Y325085D01*
X373058Y325046D01*
X373097Y324968D01*
X373155Y324851D01*
X373214Y324715D01*
X373272Y324539D01*
X373311Y324344D01*
X373370Y324110D01*
X373409Y323856D01*
X373428Y323564D01*
X373448Y323232D01*
X373428Y322900D01*
X373389Y322510D01*
X373331Y322120D01*
X373214Y321691D01*
X373077Y321223D01*
Y321203D01*
X373038Y321125D01*
X372999Y321008D01*
X372940Y320852D01*
X372863Y320657D01*
X372745Y320443D01*
X372628Y320189D01*
X372492Y319916D01*
X372180Y319350D01*
X371770Y318745D01*
X371282Y318160D01*
X371029Y317868D01*
X370736Y317614D01*
X370756Y317595D01*
X370814Y317555D01*
X370892Y317477D01*
X370990Y317399D01*
X371185Y317224D01*
X371263Y317165D01*
X371341Y317107D01*
X371360D01*
X371380Y317087D01*
X371497Y317009D01*
X371692Y316892D01*
X371946Y316756D01*
X370483Y315000D01*
X370463Y315019D01*
X370385Y315058D01*
X370288Y315137D01*
X370131Y315215D01*
X369975Y315332D01*
X369800Y315468D01*
X369429Y315761D01*
X369410Y315780D01*
X369351Y315839D01*
X369273Y315917D01*
X369156Y316014D01*
X368941Y316229D01*
X368825Y316327D01*
X368746Y316424D01*
X368727D01*
X368688Y316404D01*
X368629Y316385D01*
X368532Y316346D01*
X368415Y316327D01*
X368298Y316287D01*
X368142Y316248D01*
X367966Y316210D01*
X367556Y316112D01*
X367088Y316053D01*
X366562Y315995D01*
X365996Y315975D01*
X365781D01*
X365625Y315995D01*
X365430Y316014D01*
X365216Y316034D01*
X364982Y316073D01*
X364728Y316131D01*
X364201Y316268D01*
X363928Y316366D01*
X363655Y316483D01*
X363401Y316619D01*
X363167Y316775D01*
X362953Y316951D01*
X362758Y317165D01*
X362738Y317185D01*
X362719Y317224D01*
X362660Y317321D01*
X362602Y317438D01*
X362524Y317575D01*
X362465Y317750D01*
X362387Y317965D01*
X362329Y318199D01*
X362270Y318472D01*
X362231Y318765D01*
X362211Y319097D01*
Y319467D01*
X362231Y319857D01*
X362309Y320267D01*
X362407Y320716D01*
X362543Y321184D01*
X362563Y321203D01*
X362582Y321301D01*
X362641Y321418D01*
X362699Y321593D01*
X362797Y321808D01*
X362914Y322042D01*
X363050Y322315D01*
X363206Y322608D01*
X363382Y322920D01*
X363577Y323232D01*
X363811Y323544D01*
X364045Y323876D01*
X364318Y324188D01*
X364611Y324500D01*
X364923Y324793D01*
X365255Y325066D01*
X365274Y325085D01*
X365333Y325124D01*
X365450Y325202D01*
X365586Y325280D01*
X365762Y325397D01*
X365976Y325514D01*
X366211Y325631D01*
X366484Y325768D01*
X366796Y325905D01*
X367127Y326022D01*
X367478Y326139D01*
X367869Y326256D01*
X368259Y326334D01*
X368688Y326412D01*
X369137Y326451D01*
X369585Y326470D01*
X369819D01*
X369995Y326451D01*
D02*
G37*
G36*
X415964Y354475D02*
X416335Y354456D01*
X416725Y354417D01*
X417115Y354358D01*
X417486Y354280D01*
X417661Y354241D01*
X417798Y354183D01*
X417837Y354163D01*
X417915Y354124D01*
X418051Y354046D01*
X418208Y353949D01*
X418383Y353812D01*
X418559Y353656D01*
X418734Y353461D01*
X418871Y353227D01*
X418890Y353207D01*
X418929Y353110D01*
X418968Y352973D01*
X419027Y352798D01*
X419085Y352564D01*
X419124Y352291D01*
X419144Y351959D01*
Y351608D01*
X415945Y351081D01*
Y351101D01*
Y351179D01*
X415925Y351276D01*
X415906Y351413D01*
X415867Y351549D01*
X415789Y351686D01*
X415710Y351842D01*
X415593Y351959D01*
X415574Y351978D01*
X415535Y352018D01*
X415457Y352057D01*
X415340Y352115D01*
X415203Y352174D01*
X415028Y352232D01*
X414813Y352252D01*
X414560Y352271D01*
X414462D01*
X414384Y352252D01*
X414189Y352232D01*
X413935Y352174D01*
X413643Y352095D01*
X413331Y351959D01*
X412999Y351783D01*
X412667Y351549D01*
X412628Y351510D01*
X412531Y351413D01*
X412375Y351237D01*
X412180Y351003D01*
X411965Y350672D01*
X411731Y350281D01*
X411516Y349813D01*
X411399Y349560D01*
X411302Y349267D01*
Y349248D01*
X411282Y349189D01*
X411243Y349111D01*
X411224Y348994D01*
X411185Y348857D01*
X411146Y348721D01*
X411068Y348370D01*
X411009Y347980D01*
X410990Y347589D01*
X411009Y347238D01*
X411048Y347063D01*
X411107Y346926D01*
X411126Y346887D01*
X411185Y346809D01*
X411282Y346712D01*
X411438Y346575D01*
X411653Y346438D01*
X411907Y346341D01*
X412219Y346263D01*
X412609Y346224D01*
X412804D01*
X412940Y346243D01*
X413097Y346263D01*
X413272Y346282D01*
X413662Y346360D01*
X413682D01*
X413760Y346399D01*
X413877Y346438D01*
X414013Y346477D01*
X414208Y346555D01*
X414423Y346653D01*
X414657Y346750D01*
X414930Y346887D01*
X415262Y347862D01*
X413155D01*
X413857Y349969D01*
X418715D01*
X417252Y345619D01*
X417232Y345600D01*
X417174Y345580D01*
X417096Y345522D01*
X416959Y345463D01*
X416823Y345385D01*
X416647Y345307D01*
X416452Y345210D01*
X416237Y345112D01*
X415789Y344897D01*
X415301Y344683D01*
X414813Y344488D01*
X414345Y344332D01*
X414325D01*
X414286Y344312D01*
X414228Y344293D01*
X414131Y344273D01*
X414033Y344254D01*
X413896Y344234D01*
X413740Y344195D01*
X413565Y344176D01*
X413175Y344098D01*
X412726Y344058D01*
X412219Y344020D01*
X411692Y344000D01*
X411516D01*
X411399Y344020D01*
X411243D01*
X411068Y344039D01*
X410678Y344078D01*
X410229Y344156D01*
X409761Y344254D01*
X409332Y344410D01*
X409137Y344507D01*
X408941Y344605D01*
X408903Y344644D01*
X408805Y344722D01*
X408649Y344858D01*
X408454Y345073D01*
X408259Y345326D01*
X408083Y345639D01*
X407927Y346009D01*
X407810Y346438D01*
Y346458D01*
Y346497D01*
X407791Y346555D01*
Y346653D01*
X407771Y346770D01*
Y346907D01*
Y347063D01*
Y347258D01*
X407791Y347667D01*
X407869Y348135D01*
X407966Y348682D01*
X408142Y349248D01*
Y349267D01*
X408161Y349325D01*
X408200Y349403D01*
X408239Y349521D01*
X408298Y349677D01*
X408376Y349833D01*
X408473Y350028D01*
X408571Y350223D01*
X408805Y350691D01*
X409078Y351159D01*
X409410Y351666D01*
X409800Y352135D01*
X409819Y352154D01*
X409858Y352193D01*
X409917Y352252D01*
X409995Y352330D01*
X410112Y352447D01*
X410229Y352564D01*
X410385Y352681D01*
X410541Y352837D01*
X410931Y353129D01*
X411380Y353442D01*
X411907Y353734D01*
X412453Y353988D01*
X412472D01*
X412511Y354007D01*
X412570Y354027D01*
X412667Y354066D01*
X412785Y354105D01*
X412921Y354144D01*
X413077Y354202D01*
X413272Y354241D01*
X413467Y354280D01*
X413701Y354339D01*
X414189Y354417D01*
X414774Y354475D01*
X415398Y354495D01*
X415808D01*
X415964Y354475D01*
D02*
G37*
G36*
X438554Y344176D02*
X435608D01*
X433696Y349755D01*
X431804Y344176D01*
X428858D01*
X432292Y354319D01*
X435218D01*
X437130Y348682D01*
X439041Y354319D01*
X441987D01*
X438554Y344176D01*
D02*
G37*
G36*
X458665D02*
X455252D01*
X454861Y354319D01*
X458139D01*
X457963Y347004D01*
X462684Y354319D01*
X465864D01*
X458665Y344176D01*
D02*
G37*
G36*
X334990Y344176D02*
X331693D01*
X331771Y345853D01*
X328221D01*
X327128Y344176D01*
X323949D01*
D01*
X320437D01*
X319794Y347258D01*
Y347277D01*
X319774Y347355D01*
X319755Y347453D01*
X319716Y347589D01*
X319638Y347843D01*
X319579Y347960D01*
X319501Y348038D01*
X319482Y348058D01*
X319462Y348077D01*
X319403Y348116D01*
X319326Y348175D01*
X319228Y348214D01*
X319091Y348253D01*
X318955Y348272D01*
X318799Y348292D01*
X318526D01*
X317141Y344176D01*
X314000D01*
X317433Y354319D01*
X323012D01*
X323168Y354300D01*
X323480Y354280D01*
X323832Y354261D01*
X324183Y354222D01*
X324514Y354144D01*
X324807Y354066D01*
X324846Y354046D01*
X324924Y354007D01*
X325041Y353949D01*
X325178Y353851D01*
X325334Y353734D01*
X325490Y353559D01*
X325626Y353363D01*
X325724Y353129D01*
X325743Y353090D01*
X325763Y353012D01*
X325782Y352876D01*
X325802Y352681D01*
X325821Y352447D01*
X325802Y352154D01*
X325743Y351842D01*
X325646Y351491D01*
X325626Y351452D01*
X325587Y351354D01*
X325529Y351198D01*
X325431Y351003D01*
X325314Y350769D01*
X325158Y350515D01*
X324983Y350262D01*
X324787Y350028D01*
X324768Y350008D01*
X324690Y349930D01*
X324573Y349813D01*
X324417Y349677D01*
X324222Y349520D01*
X323988Y349345D01*
X323734Y349189D01*
X323461Y349033D01*
X323442D01*
X323383Y348994D01*
X323266Y348955D01*
X323129Y348896D01*
X322934Y348838D01*
X322720Y348779D01*
X322486Y348701D01*
X322212Y348643D01*
X322232D01*
X322291Y348604D01*
X322369Y348565D01*
X322486Y348526D01*
X322700Y348409D01*
X322817Y348331D01*
X322895Y348272D01*
X322915Y348253D01*
X322993Y348155D01*
X323032Y348077D01*
X323090Y347980D01*
X323149Y347862D01*
X323207Y347726D01*
Y347706D01*
X323246Y347667D01*
X323266Y347589D01*
X323305Y347492D01*
X323383Y347297D01*
X323442Y347102D01*
X323980Y344219D01*
X331186Y354319D01*
X334619D01*
X334990Y344176D01*
D02*
G37*
G36*
X473471Y344176D02*
X470175D01*
X470253Y345853D01*
X466702D01*
X465610Y344176D01*
X462430D01*
X469668Y354319D01*
X473101D01*
X473471Y344176D01*
D02*
G37*
G36*
X429717Y352154D02*
X424469D01*
X423904Y350535D01*
X428780D01*
X428078Y348467D01*
X423201D01*
X422538Y346477D01*
X427942D01*
X427161Y344176D01*
X418617D01*
X422050Y354319D01*
X430438D01*
X429717Y352154D01*
D02*
G37*
G36*
X402972D02*
X397725D01*
X397159Y350535D01*
X402036D01*
X401334Y348467D01*
X396457D01*
X395794Y346477D01*
X401197D01*
X400417Y344176D01*
X391873D01*
X395306Y354319D01*
X403694D01*
X402972Y352154D01*
D02*
G37*
G36*
X389337Y354300D02*
X389454D01*
X389766Y354280D01*
X390117Y354222D01*
X390468Y354163D01*
X390800Y354066D01*
X391092Y353929D01*
X391132Y353910D01*
X391209Y353871D01*
X391346Y353773D01*
X391502Y353656D01*
X391658Y353500D01*
X391834Y353325D01*
X391990Y353110D01*
X392126Y352856D01*
X392146Y352817D01*
X392165Y352739D01*
X392224Y352583D01*
X392282Y352408D01*
X392321Y352154D01*
X392360Y351881D01*
X392380Y351569D01*
Y351237D01*
Y351218D01*
Y351198D01*
X392360Y351081D01*
X392341Y350886D01*
X392302Y350633D01*
X392243Y350340D01*
X392165Y350008D01*
X392068Y349657D01*
X391951Y349267D01*
Y349248D01*
X391931Y349189D01*
X391892Y349111D01*
X391853Y348994D01*
X391795Y348857D01*
X391736Y348701D01*
X391600Y348350D01*
X391405Y347940D01*
X391209Y347531D01*
X390975Y347121D01*
X390722Y346750D01*
X390683Y346712D01*
X390605Y346595D01*
X390468Y346438D01*
X390273Y346224D01*
X390059Y345990D01*
X389785Y345736D01*
X389493Y345483D01*
X389181Y345248D01*
X389142Y345229D01*
X389044Y345151D01*
X388869Y345053D01*
X388654Y344917D01*
X388400Y344780D01*
X388108Y344663D01*
X387815Y344546D01*
X387503Y344449D01*
X387484D01*
X387445Y344429D01*
X387386D01*
X387308Y344410D01*
X387094Y344371D01*
X386840Y344312D01*
X386528Y344254D01*
X386196Y344215D01*
X385864Y344195D01*
X385533Y344176D01*
X380890D01*
X384324Y354319D01*
X389220Y354319D01*
X389337Y354300D01*
D02*
G37*
G36*
X370668Y346673D02*
X375545D01*
X374706Y344176D01*
X366689D01*
X370122Y354319D01*
X373263D01*
X370668Y346673D01*
D02*
G37*
G36*
X367567Y352154D02*
X362319D01*
X361754Y350535D01*
X366630D01*
X365928Y348467D01*
X361051D01*
X360388Y346477D01*
X365792D01*
X365011Y344176D01*
X356467D01*
X359900Y354319D01*
X368288D01*
X367567Y352154D01*
D02*
G37*
G36*
X355453Y344176D02*
X352156D01*
X352234Y345853D01*
X348684D01*
X347591Y344176D01*
X344412D01*
X351649Y354319D01*
X355082D01*
X355453Y344176D01*
D02*
G37*
G36*
X346460Y352135D02*
X341856D01*
X341252Y350359D01*
X345192D01*
X344509Y348311D01*
X340569D01*
X339164Y344176D01*
X336024D01*
X339457Y354319D01*
X347201D01*
X346460Y352135D01*
D02*
G37*
G36*
X449399Y354475D02*
X449614Y354456D01*
X449848Y354417D01*
X450102Y354378D01*
X450375Y354319D01*
X450648Y354261D01*
X450941Y354163D01*
X451233Y354046D01*
X451506Y353929D01*
X451779Y353754D01*
X452013Y353578D01*
X452228Y353363D01*
X452423Y353129D01*
X452443Y353110D01*
X452462Y353071D01*
X452501Y352993D01*
X452560Y352876D01*
X452618Y352739D01*
X452677Y352564D01*
X452735Y352369D01*
X452774Y352135D01*
X452813Y351881D01*
X452852Y351588D01*
Y351276D01*
Y350945D01*
X452813Y350574D01*
X452735Y350184D01*
X452638Y349755D01*
X452501Y349306D01*
Y349286D01*
X452482Y349228D01*
X452443Y349130D01*
X452384Y349013D01*
X452326Y348857D01*
X452267Y348682D01*
X452169Y348487D01*
X452072Y348272D01*
X451838Y347804D01*
X451565Y347316D01*
X451253Y346829D01*
X450901Y346380D01*
X450882Y346360D01*
X450863Y346321D01*
X450804Y346263D01*
X450726Y346185D01*
X450531Y345990D01*
X450238Y345736D01*
X449907Y345463D01*
X449516Y345171D01*
X449068Y344878D01*
X448580Y344624D01*
X448561D01*
X448522Y344605D01*
X448444Y344566D01*
X448346Y344527D01*
X448209Y344488D01*
X448073Y344429D01*
X447897Y344371D01*
X447702Y344312D01*
X447488Y344254D01*
X447254Y344195D01*
X446727Y344098D01*
X446161Y344020D01*
X445537Y344000D01*
X445264D01*
X445108Y344020D01*
X444952Y344039D01*
X444562Y344078D01*
X444132Y344137D01*
X443703Y344234D01*
X443274Y344371D01*
X442884Y344546D01*
X442865D01*
X442845Y344566D01*
X442728Y344644D01*
X442572Y344780D01*
X442377Y344975D01*
X442182Y345210D01*
X441967Y345502D01*
X441792Y345853D01*
X441655Y346263D01*
Y346282D01*
X441636Y346321D01*
Y346380D01*
X441616Y346477D01*
X441597Y346595D01*
Y346731D01*
Y346887D01*
X441577Y347082D01*
X441597Y347277D01*
Y347511D01*
X441655Y348018D01*
X441772Y348584D01*
X441870Y348896D01*
X441967Y349228D01*
X441987Y349248D01*
X442006Y349345D01*
X442065Y349462D01*
X442123Y349638D01*
X442221Y349852D01*
X442338Y350086D01*
X442455Y350359D01*
X442611Y350652D01*
X442786Y350964D01*
X443001Y351276D01*
X443216Y351588D01*
X443450Y351920D01*
X443723Y352232D01*
X444016Y352544D01*
X444328Y352837D01*
X444659Y353110D01*
X444679Y353129D01*
X444737Y353168D01*
X444854Y353246D01*
X444991Y353325D01*
X445166Y353422D01*
X445381Y353539D01*
X445615Y353676D01*
X445888Y353812D01*
X446200Y353929D01*
X446532Y354066D01*
X446883Y354183D01*
X447273Y354280D01*
X447663Y354358D01*
X448092Y354436D01*
X448541Y354475D01*
X448990Y354495D01*
X449224D01*
X449399Y354475D01*
D02*
G37*
%LPC*%
G36*
X318934Y298339D02*
X317549D01*
X316847Y296271D01*
X318271D01*
X318368Y296291D01*
X318486Y296310D01*
X318642Y296330D01*
X318817Y296369D01*
X319051Y296408D01*
X319071D01*
X319110Y296427D01*
X319168Y296447D01*
X319266Y296466D01*
X319461Y296564D01*
X319676Y296720D01*
X319695Y296740D01*
X319715Y296759D01*
X319773Y296817D01*
X319832Y296896D01*
X319968Y297071D01*
X320085Y297305D01*
Y297325D01*
X320105Y297383D01*
X320124Y297481D01*
X320144Y297578D01*
Y297715D01*
X320124Y297832D01*
X320085Y297949D01*
X320007Y298066D01*
X319988Y298085D01*
X319968Y298105D01*
X319890Y298144D01*
X319792Y298202D01*
X319656Y298261D01*
X319461Y298300D01*
X319227Y298319D01*
X318934Y298339D01*
D02*
G37*
G36*
X359841Y298690D02*
X359802D01*
X359724Y298671D01*
X359587Y298651D01*
X359431Y298593D01*
X359236Y298515D01*
X359021Y298378D01*
X358807Y298202D01*
X358592Y297968D01*
X358573Y297929D01*
X358495Y297832D01*
X358456Y297754D01*
X358378Y297637D01*
X358319Y297520D01*
X358241Y297383D01*
X358163Y297208D01*
X358066Y297013D01*
X357968Y296817D01*
X357851Y296564D01*
X357753Y296310D01*
X357636Y296018D01*
X357519Y295706D01*
X357402Y295354D01*
Y295335D01*
X357383Y295276D01*
X357344Y295179D01*
X357305Y295042D01*
X357246Y294886D01*
X357207Y294691D01*
X357090Y294301D01*
X356973Y293852D01*
X356876Y293404D01*
X356856Y293209D01*
X356837Y293014D01*
Y292838D01*
Y292701D01*
Y292663D01*
X356856Y292584D01*
X356895Y292487D01*
X356973Y292350D01*
X357071Y292214D01*
X357188Y292116D01*
X357363Y292038D01*
X357578Y291999D01*
X357656D01*
X357734Y292019D01*
X357851Y292038D01*
X357968Y292077D01*
X358105Y292116D01*
X358261Y292194D01*
X358417Y292292D01*
X358436Y292311D01*
X358495Y292350D01*
X358573Y292428D01*
X358670Y292526D01*
X358787Y292643D01*
X358924Y292819D01*
X359061Y292994D01*
X359197Y293228D01*
X359217Y293267D01*
X359256Y293345D01*
X359334Y293521D01*
X359451Y293735D01*
X359568Y294028D01*
X359704Y294379D01*
X359860Y294789D01*
X360036Y295276D01*
Y295296D01*
X360075Y295374D01*
X360094Y295471D01*
X360133Y295608D01*
X360192Y295764D01*
X360250Y295959D01*
X360368Y296369D01*
X360485Y296817D01*
X360563Y297266D01*
X360602Y297481D01*
X360621Y297676D01*
X360641Y297851D01*
X360621Y297988D01*
Y298027D01*
X360602Y298105D01*
X360563Y298202D01*
X360485Y298339D01*
X360387Y298476D01*
X360250Y298573D01*
X360075Y298651D01*
X359841Y298690D01*
D02*
G37*
G36*
X510505Y323993D02*
X509510D01*
X507638Y318453D01*
X508555D01*
X508730Y318472D01*
X508964D01*
X509198Y318511D01*
X509452Y318550D01*
X509686Y318589D01*
X509881Y318667D01*
X509901Y318687D01*
X509959Y318706D01*
X510057Y318765D01*
X510174Y318843D01*
X510310Y318941D01*
X510466Y319077D01*
X510622Y319233D01*
X510778Y319428D01*
X510798Y319448D01*
X510856Y319526D01*
X510934Y319662D01*
X511051Y319857D01*
X511169Y320091D01*
X511305Y320404D01*
X511461Y320755D01*
X511617Y321184D01*
Y321203D01*
X511637Y321262D01*
X511676Y321340D01*
X511695Y321437D01*
X511734Y321574D01*
X511773Y321730D01*
X511851Y322062D01*
X511910Y322432D01*
X511929Y322803D01*
X511910Y323134D01*
X511890Y323271D01*
X511832Y323388D01*
X511812Y323408D01*
X511773Y323486D01*
X511676Y323583D01*
X511520Y323700D01*
X511325Y323798D01*
X511051Y323895D01*
X510895Y323934D01*
X510720Y323973D01*
X510505Y323993D01*
D02*
G37*
G36*
X499971Y324246D02*
X498586D01*
X497884Y322179D01*
X499308D01*
X499406Y322198D01*
X499523Y322218D01*
X499679Y322237D01*
X499854Y322276D01*
X500088Y322315D01*
X500108D01*
X500147Y322335D01*
X500205Y322354D01*
X500303Y322374D01*
X500498Y322471D01*
X500713Y322627D01*
X500732Y322647D01*
X500752Y322666D01*
X500810Y322725D01*
X500869Y322803D01*
X501005Y322979D01*
X501122Y323213D01*
Y323232D01*
X501142Y323291D01*
X501161Y323388D01*
X501181Y323486D01*
Y323622D01*
X501161Y323739D01*
X501122Y323856D01*
X501044Y323973D01*
X501025Y323993D01*
X501005Y324012D01*
X500927Y324051D01*
X500830Y324110D01*
X500693Y324168D01*
X500498Y324207D01*
X500264Y324227D01*
X499971Y324246D01*
D02*
G37*
G36*
X488638Y323661D02*
X486277Y320013D01*
X488501D01*
X488638Y323661D01*
D02*
G37*
G36*
X466126Y324246D02*
X464741D01*
X464078Y322315D01*
X465561D01*
X465697Y322335D01*
X465853Y322354D01*
X466204Y322432D01*
X466380Y322491D01*
X466536Y322569D01*
X466556Y322588D01*
X466595Y322608D01*
X466673Y322666D01*
X466751Y322764D01*
X466848Y322861D01*
X466926Y322979D01*
X467024Y323134D01*
X467082Y323291D01*
Y323310D01*
X467102Y323369D01*
X467121Y323447D01*
X467141Y323544D01*
Y323661D01*
X467121Y323778D01*
X467082Y323895D01*
X467024Y323993D01*
Y324012D01*
X466985Y324032D01*
X466926Y324071D01*
X466848Y324129D01*
X466712Y324168D01*
X466556Y324207D01*
X466361Y324227D01*
X466126Y324246D01*
D02*
G37*
G36*
X465014Y320384D02*
X463415D01*
X462732Y318336D01*
X464449D01*
X464585Y318355D01*
X464780Y318375D01*
X464976Y318394D01*
X465190Y318453D01*
X465385Y318511D01*
X465561Y318609D01*
X465580Y318628D01*
X465639Y318667D01*
X465697Y318726D01*
X465795Y318823D01*
X465892Y318921D01*
X465990Y319058D01*
X466068Y319214D01*
X466146Y319389D01*
Y319409D01*
X466165Y319467D01*
X466185Y319545D01*
X466204Y319643D01*
Y319760D01*
X466185Y319877D01*
X466146Y319994D01*
X466068Y320111D01*
X466048Y320130D01*
X466029Y320150D01*
X465951Y320189D01*
X465853Y320247D01*
X465717Y320306D01*
X465522Y320345D01*
X465288Y320364D01*
X465014Y320384D01*
D02*
G37*
G36*
X408385Y323661D02*
X406025Y320013D01*
X408248D01*
X408385Y323661D01*
D02*
G37*
G36*
X477363Y324090D02*
X477323D01*
X477206Y324071D01*
X477031Y324051D01*
X476797Y324012D01*
X476524Y323915D01*
X476231Y323798D01*
X475919Y323642D01*
X475607Y323408D01*
X475568Y323369D01*
X475470Y323271D01*
X475334Y323115D01*
X475139Y322881D01*
X474924Y322569D01*
X474827Y322393D01*
X474710Y322198D01*
X474593Y321964D01*
X474495Y321730D01*
X474378Y321457D01*
X474280Y321184D01*
Y321164D01*
X474261Y321125D01*
X474241Y321047D01*
X474202Y320930D01*
X474183Y320813D01*
X474144Y320657D01*
X474066Y320326D01*
X474007Y319974D01*
X473988Y319604D01*
X474027Y319272D01*
X474046Y319116D01*
X474105Y318979D01*
X474124Y318960D01*
X474183Y318882D01*
X474261Y318765D01*
X474398Y318648D01*
X474593Y318531D01*
X474807Y318414D01*
X475100Y318336D01*
X475431Y318316D01*
X475529D01*
X475607Y318336D01*
X475802Y318355D01*
X476036Y318394D01*
X476309Y318472D01*
X476602Y318589D01*
X476914Y318745D01*
X477206Y318960D01*
X477245Y318999D01*
X477343Y319097D01*
X477480Y319253D01*
X477577Y319370D01*
X477675Y319506D01*
X477772Y319662D01*
X477889Y319838D01*
X478006Y320013D01*
X478104Y320228D01*
X478221Y320482D01*
X478338Y320735D01*
X478455Y321008D01*
X478572Y321320D01*
Y321340D01*
X478591Y321379D01*
X478611Y321457D01*
X478650Y321554D01*
X478670Y321671D01*
X478708Y321808D01*
X478767Y322120D01*
X478826Y322471D01*
X478845Y322822D01*
X478806Y323154D01*
X478767Y323291D01*
X478708Y323427D01*
X478689Y323447D01*
X478630Y323525D01*
X478553Y323642D01*
X478416Y323759D01*
X478221Y323876D01*
X477987Y323993D01*
X477714Y324071D01*
X477363Y324090D01*
D02*
G37*
G36*
X342022Y324090D02*
X341983D01*
X341866Y324071D01*
X341690Y324051D01*
X341456Y324012D01*
X341183Y323915D01*
X340890Y323798D01*
X340578Y323642D01*
X340266Y323408D01*
X340227Y323369D01*
X340129Y323271D01*
X339993Y323115D01*
X339798Y322881D01*
X339583Y322569D01*
X339486Y322393D01*
X339369Y322198D01*
X339252Y321964D01*
X339154Y321730D01*
X339037Y321457D01*
X338940Y321184D01*
Y321164D01*
X338920Y321125D01*
X338900Y321047D01*
X338861Y320930D01*
X338842Y320813D01*
X338803Y320657D01*
X338725Y320326D01*
X338666Y319974D01*
X338647Y319604D01*
X338686Y319272D01*
X338705Y319116D01*
X338764Y318979D01*
X338783Y318960D01*
X338842Y318882D01*
X338920Y318765D01*
X339057Y318648D01*
X339252Y318531D01*
X339466Y318414D01*
X339759Y318336D01*
X340090Y318316D01*
X340188D01*
X340266Y318336D01*
X340461Y318355D01*
X340695Y318394D01*
X340968Y318472D01*
X341261Y318589D01*
X341573Y318745D01*
X341866Y318960D01*
X341904Y318999D01*
X342002Y319097D01*
X342139Y319253D01*
X342236Y319370D01*
X342334Y319506D01*
X342431Y319662D01*
X342548Y319838D01*
X342665Y320013D01*
X342763Y320228D01*
X342880Y320481D01*
X342997Y320735D01*
X343114Y321008D01*
X343231Y321320D01*
Y321340D01*
X343251Y321379D01*
X343270Y321457D01*
X343309Y321554D01*
X343329Y321671D01*
X343368Y321808D01*
X343426Y322120D01*
X343485Y322471D01*
X343504Y322822D01*
X343465Y323154D01*
X343426Y323291D01*
X343368Y323427D01*
X343348Y323447D01*
X343290Y323525D01*
X343212Y323642D01*
X343075Y323759D01*
X342880Y323876D01*
X342646Y323993D01*
X342373Y324071D01*
X342022Y324090D01*
D02*
G37*
G36*
X368766D02*
X368727D01*
X368610Y324071D01*
X368434Y324051D01*
X368200Y324012D01*
X367927Y323915D01*
X367635Y323798D01*
X367322Y323642D01*
X367010Y323408D01*
X366971Y323369D01*
X366874Y323291D01*
X366737Y323115D01*
X366562Y322900D01*
X366347Y322608D01*
X366133Y322257D01*
X365937Y321828D01*
X365742Y321320D01*
Y321301D01*
X365723Y321242D01*
X365684Y321164D01*
X365664Y321047D01*
X365625Y320911D01*
X365586Y320755D01*
X365508Y320404D01*
X365430Y320013D01*
X365411Y319623D01*
X365430Y319272D01*
X365450Y319116D01*
X365508Y318979D01*
X365528Y318960D01*
X365567Y318882D01*
X365664Y318765D01*
X365801Y318648D01*
X365976Y318531D01*
X366211Y318414D01*
X366484Y318336D01*
X366835Y318316D01*
X367030D01*
X367225Y318336D01*
X367459Y318375D01*
X367439Y318394D01*
X367401Y318433D01*
X367342Y318511D01*
X367225Y318609D01*
X367088Y318706D01*
X366932Y318843D01*
X366718Y318960D01*
X366464Y319097D01*
X367342Y320208D01*
X367361D01*
X367401Y320189D01*
X367478D01*
X367556Y320169D01*
X367732Y320111D01*
X367908Y320033D01*
X367927D01*
X367947Y320013D01*
X368005Y319974D01*
X368064Y319916D01*
X368161Y319838D01*
X368278Y319740D01*
X368434Y319604D01*
X368610Y319448D01*
X368629Y319428D01*
X368688Y319370D01*
X368786Y319292D01*
X368883Y319214D01*
X368903Y319253D01*
X368980Y319350D01*
X369098Y319506D01*
X369234Y319721D01*
X369410Y320013D01*
X369585Y320345D01*
X369761Y320755D01*
X369936Y321223D01*
Y321242D01*
X369956Y321281D01*
X369975Y321379D01*
X370014Y321476D01*
X370053Y321593D01*
X370093Y321749D01*
X370151Y322081D01*
X370210Y322432D01*
X370229Y322803D01*
X370210Y323134D01*
X370171Y323291D01*
X370112Y323427D01*
X370093Y323447D01*
X370034Y323525D01*
X369956Y323642D01*
X369819Y323759D01*
X369624Y323876D01*
X369390Y323993D01*
X369117Y324071D01*
X368766Y324090D01*
D02*
G37*
G36*
X321276Y352271D02*
X319891D01*
X319189Y350203D01*
X320613D01*
X320710Y350223D01*
X320827Y350242D01*
X320984Y350262D01*
X321159Y350301D01*
X321393Y350340D01*
X321413D01*
X321452Y350359D01*
X321510Y350379D01*
X321608Y350398D01*
X321803Y350496D01*
X322018Y350652D01*
X322037Y350672D01*
X322057Y350691D01*
X322115Y350750D01*
X322174Y350827D01*
X322310Y351003D01*
X322427Y351237D01*
Y351257D01*
X322447Y351315D01*
X322466Y351413D01*
X322486Y351510D01*
Y351647D01*
X322466Y351764D01*
X322427Y351881D01*
X322349Y351998D01*
X322330Y352018D01*
X322310Y352037D01*
X322232Y352076D01*
X322135Y352135D01*
X321998Y352193D01*
X321803Y352232D01*
X321569Y352252D01*
X321276Y352271D01*
D02*
G37*
G36*
X331986Y351686D02*
X329625Y348038D01*
X331849D01*
X331986Y351686D01*
D02*
G37*
G36*
X470467Y351686D02*
X468107Y348038D01*
X470331D01*
X470467Y351686D01*
D02*
G37*
G36*
X387679Y352018D02*
X386684D01*
X384811Y346477D01*
X385728D01*
X385904Y346497D01*
X386138D01*
X386372Y346536D01*
X386625Y346575D01*
X386859Y346614D01*
X387054Y346692D01*
X387074Y346712D01*
X387132Y346731D01*
X387230Y346790D01*
X387347Y346868D01*
X387484Y346965D01*
X387640Y347102D01*
X387796Y347258D01*
X387952Y347453D01*
X387971Y347472D01*
X388030Y347550D01*
X388108Y347687D01*
X388225Y347882D01*
X388342Y348116D01*
X388479Y348428D01*
X388635Y348779D01*
X388791Y349208D01*
Y349228D01*
X388810Y349286D01*
X388849Y349365D01*
X388869Y349462D01*
X388908Y349599D01*
X388947Y349755D01*
X389025Y350086D01*
X389083Y350457D01*
X389103Y350827D01*
X389083Y351159D01*
X389064Y351296D01*
X389005Y351413D01*
X388986Y351432D01*
X388947Y351510D01*
X388849Y351608D01*
X388693Y351725D01*
X388498Y351822D01*
X388225Y351920D01*
X388069Y351959D01*
X387893Y351998D01*
X387679Y352018D01*
D02*
G37*
G36*
X352449Y351686D02*
X350088Y348038D01*
X352312D01*
X352449Y351686D01*
D02*
G37*
G36*
X448171Y352115D02*
X448131D01*
X448014Y352095D01*
X447839Y352076D01*
X447605Y352037D01*
X447332Y351940D01*
X447039Y351822D01*
X446727Y351666D01*
X446415Y351432D01*
X446376Y351393D01*
X446278Y351296D01*
X446142Y351140D01*
X445947Y350906D01*
X445732Y350593D01*
X445635Y350418D01*
X445518Y350223D01*
X445401Y349989D01*
X445303Y349755D01*
X445186Y349482D01*
X445088Y349208D01*
Y349189D01*
X445069Y349150D01*
X445049Y349072D01*
X445010Y348955D01*
X444991Y348838D01*
X444952Y348682D01*
X444874Y348350D01*
X444815Y347999D01*
X444796Y347628D01*
X444835Y347297D01*
X444854Y347141D01*
X444913Y347004D01*
X444932Y346985D01*
X444991Y346907D01*
X445069Y346790D01*
X445205Y346673D01*
X445401Y346555D01*
X445615Y346438D01*
X445908Y346360D01*
X446239Y346341D01*
X446337D01*
X446415Y346360D01*
X446610Y346380D01*
X446844Y346419D01*
X447117Y346497D01*
X447410Y346614D01*
X447722Y346770D01*
X448014Y346985D01*
X448054Y347024D01*
X448151Y347121D01*
X448288Y347277D01*
X448385Y347394D01*
X448483Y347531D01*
X448580Y347687D01*
X448697Y347862D01*
X448814Y348038D01*
X448912Y348253D01*
X449029Y348506D01*
X449146Y348760D01*
X449263Y349033D01*
X449380Y349345D01*
Y349365D01*
X449399Y349403D01*
X449419Y349482D01*
X449458Y349579D01*
X449478Y349696D01*
X449516Y349833D01*
X449575Y350145D01*
X449634Y350496D01*
X449653Y350847D01*
X449614Y351179D01*
X449575Y351315D01*
X449516Y351452D01*
X449497Y351471D01*
X449439Y351549D01*
X449361Y351666D01*
X449224Y351783D01*
X449029Y351900D01*
X448795Y352018D01*
X448522Y352095D01*
X448171Y352115D01*
D02*
G37*
%LPD*%
D10*
X116637Y498512D02*
G03*
X185599Y491664I35763J9488D01*
G01*
X632750Y170830D02*
G03*
X632750Y158130I0J-6350D01*
G01*
X431800Y495300D02*
Y508000D01*
X172720Y495300D02*
X431800D01*
X172720D02*
Y520700D01*
X431800D01*
Y508000D02*
Y520700D01*
X264160Y25400D02*
Y38100D01*
X472440Y12700D02*
Y38100D01*
X264160Y12700D02*
Y25400D01*
Y38100D02*
X472440D01*
X264160Y12700D02*
X472440D01*
X650240Y495300D02*
Y508000D01*
X441960Y495300D02*
Y520700D01*
X650240Y508000D02*
Y520700D01*
X441960Y495300D02*
X650240D01*
X441960Y520700D02*
X650240D01*
X492760Y12700D02*
X650240D01*
X492760Y38100D02*
X650240D01*
X492760Y12700D02*
Y25400D01*
X650240Y12700D02*
Y38100D01*
X492760Y25400D02*
Y38100D01*
X126000Y126000D02*
Y164000D01*
X139000D01*
X194000Y126000D02*
Y164000D01*
X181000D02*
X194000D01*
X126000Y126000D02*
X128500D01*
X191000D02*
X194000D01*
X12700Y510540D02*
X88900D01*
Y459740D02*
Y510540D01*
X12700Y459740D02*
X88900D01*
X12700D02*
Y510540D01*
Y424180D02*
X88900D01*
Y373380D02*
Y424180D01*
X12700Y373380D02*
X88900D01*
X12700D02*
Y424180D01*
Y303900D02*
X63500D01*
X12700D02*
Y354700D01*
X63500D01*
Y303900D02*
Y354700D01*
X133300Y458700D02*
X158700D01*
X133300Y357100D02*
Y458700D01*
X158700Y357100D02*
Y458700D01*
X133300Y357100D02*
X158700D01*
X649300Y405500D02*
Y481700D01*
X674700Y405500D02*
Y481700D01*
X649300Y405500D02*
X674700D01*
X649300Y481700D02*
X674700D01*
X103500Y75300D02*
X179700D01*
X103500Y100700D02*
X179700D01*
Y75300D02*
Y100700D01*
X103500Y75300D02*
Y100700D01*
X397000Y264000D02*
Y302000D01*
Y264000D02*
X479000D01*
X397000Y302000D02*
X479000D01*
Y264000D02*
Y302000D01*
X231000Y330000D02*
X269000D01*
X231000Y248000D02*
Y330000D01*
X269000Y248000D02*
Y330000D01*
X231000Y248000D02*
X269000D01*
X277550Y111830D02*
X633550Y111830D01*
Y158130D01*
X277550Y215830D02*
X633550Y215830D01*
X277550Y111830D02*
Y215830D01*
X633550Y170830D02*
Y215830D01*
X192000Y427000D02*
Y433000D01*
X174000Y414000D02*
X192000D01*
X174000Y446000D02*
X192000D01*
X58750Y271500D02*
X64750D01*
X77750Y253500D02*
Y271500D01*
X45750Y253500D02*
Y271500D01*
X649000Y148000D02*
X655000D01*
X636000D02*
Y166000D01*
X668000Y148000D02*
Y166000D01*
X229000Y149000D02*
Y155000D01*
X211000Y136000D02*
X229000D01*
X211000Y168000D02*
X229000D01*
X89500Y88500D02*
X99500Y98500D01*
X84500Y88500D02*
X89500D01*
X44500Y98500D02*
X54500Y88500D01*
X59500D01*
X99500Y98500D02*
Y143500D01*
X84500D02*
X99500D01*
X44500Y98500D02*
Y143500D01*
X59500D01*
X89500Y13000D02*
X99500Y23000D01*
X84500Y13000D02*
X89500D01*
X44500Y23000D02*
X54500Y13000D01*
X59500D01*
X99500Y23000D02*
Y68000D01*
X84500D02*
X99500D01*
X44500Y23000D02*
Y68000D01*
X59500D01*
X6000Y107000D02*
X38000D01*
X6000Y49000D02*
Y107000D01*
Y49000D02*
X38000D01*
Y107000D01*
X660000Y276000D02*
Y294000D01*
X600000Y276000D02*
Y294000D01*
X617000Y315000D02*
X646000D01*
X617071D02*
X646071D01*
X617000Y255000D02*
X646000D01*
X205000Y79000D02*
X223000D01*
X205000Y19000D02*
X223000D01*
X184000Y36000D02*
Y65000D01*
Y36072D02*
Y65072D01*
X244000Y36000D02*
Y65000D01*
X575220Y364380D02*
X577760D01*
X575220Y379620D02*
X577760D01*
X575220Y364380D02*
Y379620D01*
X577760D02*
X608240D01*
X577760Y364380D02*
X608240D01*
X577760D02*
Y379620D01*
X608240Y364380D02*
Y379620D01*
X230220Y425380D02*
X232760D01*
X230220Y440620D02*
X232760D01*
X230220Y425380D02*
Y440620D01*
X232760D02*
X263240D01*
X232760Y425380D02*
X263240D01*
X232760D02*
Y440620D01*
X263240Y425380D02*
Y440620D01*
X231220Y399380D02*
X233760D01*
X231220Y414620D02*
X233760D01*
X231220Y399380D02*
Y414620D01*
X233760D02*
X264240D01*
X233760Y399380D02*
X264240D01*
X233760D02*
Y414620D01*
X264240Y399380D02*
Y414620D01*
X231220Y380380D02*
X233760D01*
X231220Y395620D02*
X233760D01*
X231220Y380380D02*
Y395620D01*
X233760D02*
X264240D01*
X233760Y380380D02*
X264240D01*
X233760D02*
Y395620D01*
X264240Y380380D02*
Y395620D01*
X-19630Y196000D02*
X-14630Y201000D01*
X-19630Y206000D02*
X-14630Y201000D01*
X-26630D02*
X-14630D01*
Y166000D02*
X-9630D01*
X-13630Y236000D02*
X-9630D01*
X-26630Y146000D02*
X-14630D01*
X-26630Y256000D02*
X-14630D01*
Y146000D02*
Y256000D01*
X7370Y161000D02*
Y241000D01*
X370Y161000D02*
Y240000D01*
X-5630Y161000D02*
X9370D01*
X-5630D02*
Y241000D01*
X9370D01*
X51370Y180000D02*
Y183000D01*
Y219000D02*
Y222000D01*
X34370Y162000D02*
X36370D01*
X34370Y240000D02*
X36370D01*
X188000Y264000D02*
X190000Y266000D01*
X188000Y264000D02*
X189000Y265000D01*
X119000D02*
X121000D01*
X119000D02*
Y267000D01*
Y333000D02*
Y335000D01*
X121000D01*
X187000D02*
X189000D01*
Y333000D02*
Y335000D01*
X5000Y264000D02*
Y302000D01*
Y264000D02*
X19000D01*
Y302000D01*
X598000Y236500D02*
X636000D01*
Y250500D01*
X598000D02*
X636000D01*
X187160Y375490D02*
Y408510D01*
X166840D02*
X187160D01*
X166840Y375490D02*
Y408510D01*
Y375490D02*
X187160D01*
X273490Y442840D02*
X306510D01*
Y463160D01*
X273490D02*
X306510D01*
X273490Y442840D02*
Y463160D01*
Y419840D02*
X306510D01*
Y440160D01*
X273490D02*
X306510D01*
X273490Y419840D02*
Y440160D01*
X79840Y255490D02*
Y288510D01*
Y255490D02*
X100160D01*
Y288510D01*
X79840D02*
X100160D01*
X74490Y359160D02*
X107510D01*
X74490Y338840D02*
Y359160D01*
Y338840D02*
X107510D01*
Y359160D01*
X81490Y204840D02*
X114510D01*
Y225160D01*
X81490D02*
X114510D01*
X81490Y204840D02*
Y225160D01*
Y182840D02*
X114510D01*
Y203160D01*
X81490D02*
X114510D01*
X81490Y182840D02*
Y203160D01*
Y160840D02*
X114510D01*
Y181160D01*
X81490D02*
X114510D01*
X81490Y160840D02*
Y181160D01*
X229160Y251490D02*
Y284510D01*
X208840D02*
X229160D01*
X208840Y251490D02*
Y284510D01*
Y251490D02*
X229160D01*
X618160Y446490D02*
Y479510D01*
X597840D02*
X618160D01*
X597840Y446490D02*
Y479510D01*
Y446490D02*
X618160D01*
X590410D02*
Y479510D01*
X570090D02*
X590410D01*
X570090Y446490D02*
Y479510D01*
Y446490D02*
X590410D01*
X646160Y409490D02*
Y442510D01*
X625840D02*
X646160D01*
X625840Y409490D02*
Y442510D01*
Y409490D02*
X646160D01*
X362490Y109160D02*
X395510D01*
X362490Y88840D02*
Y109160D01*
Y88840D02*
X395510D01*
Y109160D01*
X600740Y216090D02*
X633760D01*
Y236410D01*
X600740D02*
X633760D01*
X600740Y216090D02*
Y236410D01*
X230490Y463160D02*
X263510D01*
X230490Y442840D02*
Y463160D01*
Y442840D02*
X263510D01*
Y463160D01*
X403490Y239160D02*
X436510D01*
X403490Y218840D02*
Y239160D01*
Y218840D02*
X436510D01*
Y239160D01*
X574490Y362160D02*
X607510D01*
X574490Y341840D02*
Y362160D01*
Y341840D02*
X607510D01*
Y362160D01*
X676160Y181490D02*
Y214510D01*
X655840D02*
X676160D01*
X655840Y181490D02*
Y214510D01*
Y181490D02*
X676160D01*
X41160Y266490D02*
Y299510D01*
X20840D02*
X41160D01*
X20840Y266490D02*
Y299510D01*
Y266490D02*
X41160D01*
X656840Y215490D02*
Y248510D01*
Y215490D02*
X677160D01*
Y248510D01*
X656840D02*
X677160D01*
X252840Y39490D02*
Y72510D01*
Y39490D02*
X273160D01*
Y72510D01*
X252840D02*
X273160D01*
X263160Y134990D02*
Y168010D01*
X242840D02*
X263160D01*
X242840Y134990D02*
Y168010D01*
Y134990D02*
X263160D01*
X6490Y243840D02*
X39510D01*
Y264160D01*
X6490D02*
X39510D01*
X6490Y243840D02*
Y264160D01*
X634840Y216490D02*
Y249510D01*
Y216490D02*
X655160D01*
Y249510D01*
X634840D02*
X655160D01*
X252490Y94160D02*
X285510D01*
X252490Y73840D02*
Y94160D01*
Y73840D02*
X285510D01*
Y94160D01*
X123490Y203840D02*
X156510D01*
Y224160D01*
X123490D02*
X156510D01*
X123490Y203840D02*
Y224160D01*
X320840Y58490D02*
Y91510D01*
Y58490D02*
X341160D01*
Y91510D01*
X320840D02*
X341160D01*
X320840Y39490D02*
Y72510D01*
Y39490D02*
X341160D01*
Y72510D01*
X320840D02*
X341160D01*
X61380Y233220D02*
X76620D01*
Y205280D02*
Y233220D01*
X61380Y205280D02*
X76620D01*
X61380D02*
Y233220D01*
Y175280D02*
X76620D01*
X61380D02*
Y203220D01*
X76620D01*
Y175280D02*
Y203220D01*
X207840Y210220D02*
Y245780D01*
Y210220D02*
X228160D01*
Y245780D01*
X207840D02*
X228160D01*
X206160Y210220D02*
Y245780D01*
X185840D02*
X206160D01*
X185840Y210220D02*
Y245780D01*
Y210220D02*
X206160D01*
X208840Y286220D02*
Y321780D01*
Y286220D02*
X229160D01*
Y321780D01*
X208840D02*
X229160D01*
X183160Y210220D02*
Y245780D01*
X162840D02*
X183160D01*
X162840Y210220D02*
Y245780D01*
Y210220D02*
X183160D01*
X122220Y246160D02*
X157780D01*
X122220Y225840D02*
Y246160D01*
Y225840D02*
X157780D01*
Y246160D01*
X12590Y424470D02*
Y460030D01*
Y424470D02*
X32910D01*
Y460030D01*
X12590D02*
X32910D01*
X232220Y352160D02*
X267780D01*
X232220Y331840D02*
Y352160D01*
Y331840D02*
X267780D01*
Y352160D01*
X232220Y246160D02*
X267780D01*
X232220Y225840D02*
Y246160D01*
Y225840D02*
X267780D01*
Y246160D01*
X646160Y444220D02*
Y479780D01*
X625840D02*
X646160D01*
X625840Y444220D02*
Y479780D01*
Y444220D02*
X646160D01*
X103840Y105220D02*
Y140780D01*
Y105220D02*
X124160D01*
Y140780D01*
X103840D02*
X124160D01*
X195840Y96220D02*
Y131780D01*
Y96220D02*
X216160D01*
Y131780D01*
X195840D02*
X216160D01*
X373220Y60160D02*
X408780D01*
X373220Y39840D02*
Y60160D01*
Y39840D02*
X408780D01*
Y60160D01*
X295840Y41720D02*
Y77280D01*
Y41720D02*
X316160D01*
Y77280D01*
X295840D02*
X316160D01*
X345840Y39220D02*
Y74780D01*
Y39220D02*
X366160D01*
Y74780D01*
X345840D02*
X366160D01*
X13220Y532160D02*
X48780D01*
X13220Y511840D02*
Y532160D01*
Y511840D02*
X48780D01*
Y532160D01*
X457220Y66840D02*
X492780D01*
Y87160D01*
X457220D02*
X492780D01*
X457220Y66840D02*
Y87160D01*
X439220Y218840D02*
X474780D01*
Y239160D01*
X439220D02*
X474780D01*
X439220Y218840D02*
Y239160D01*
X233220Y472840D02*
X268780D01*
Y493160D01*
X233220D02*
X268780D01*
X233220Y472840D02*
Y493160D01*
X397220Y66840D02*
X432780D01*
Y87160D01*
X397220D02*
X432780D01*
X397220Y66840D02*
Y87160D01*
Y88840D02*
X432780D01*
Y109160D01*
X397220D02*
X432780D01*
X397220Y88840D02*
Y109160D01*
X434220Y88840D02*
X469780D01*
Y109160D01*
X434220D02*
X469780D01*
X434220Y88840D02*
Y109160D01*
X401220Y241840D02*
X436780D01*
Y262160D01*
X401220D02*
X436780D01*
X401220Y241840D02*
Y262160D01*
X227160Y425220D02*
Y460780D01*
X206840D02*
X227160D01*
X206840Y425220D02*
Y460780D01*
Y425220D02*
X227160D01*
X439220Y262160D02*
X474780D01*
X439220Y241840D02*
Y262160D01*
Y241840D02*
X474780D01*
Y262160D01*
X641220Y136160D02*
X676780D01*
X641220Y115840D02*
Y136160D01*
Y115840D02*
X676780D01*
Y136160D01*
X209840Y172220D02*
Y207780D01*
Y172220D02*
X230160D01*
Y207780D01*
X209840D02*
X230160D01*
X44220Y303410D02*
X79780D01*
X44220Y283090D02*
Y303410D01*
Y283090D02*
X79780D01*
Y303410D01*
X81220Y247160D02*
X116780D01*
X81220Y226840D02*
Y247160D01*
Y226840D02*
X116780D01*
Y247160D01*
X655160Y178220D02*
Y213780D01*
X634840D02*
X655160D01*
X634840Y178220D02*
Y213780D01*
Y178220D02*
X655160D01*
X219840Y96220D02*
Y131780D01*
Y96220D02*
X240160D01*
Y131780D01*
X219840D02*
X240160D01*
X573220Y341160D02*
X608780D01*
X573220Y320840D02*
Y341160D01*
Y320840D02*
X608780D01*
Y341160D01*
X206160Y172220D02*
Y207780D01*
X185840D02*
X206160D01*
X185840Y172220D02*
Y207780D01*
Y172220D02*
X206160D01*
X457220Y44840D02*
X492780D01*
Y65160D01*
X457220D02*
X492780D01*
X457220Y44840D02*
Y65160D01*
X455160Y51220D02*
Y86780D01*
X434840D02*
X455160D01*
X434840Y51220D02*
Y86780D01*
Y51220D02*
X455160D01*
X410940Y528860D02*
Y525528D01*
Y527194D01*
X420937D01*
X419271Y528860D01*
X285020Y4540D02*
Y7872D01*
Y6206D01*
X275023D01*
X276689Y4540D01*
X629380Y528860D02*
Y525528D01*
Y527194D01*
X639377D01*
X637711Y528860D01*
X513620Y4540D02*
Y7872D01*
Y6206D01*
X503623D01*
X505289Y4540D01*
X6064Y464788D02*
X9396D01*
X7730D01*
Y474785D01*
X6064Y473119D01*
X5048Y379698D02*
X8380D01*
X6714D01*
Y389695D01*
X5048Y388029D01*
X67278Y339312D02*
X70610D01*
X68944D01*
Y349309D01*
X67278Y347643D01*
X125140Y440380D02*
X128472D01*
X126806D01*
Y450377D01*
X125140Y448711D01*
X679164Y464534D02*
X682496D01*
X680830D01*
Y474531D01*
X679164Y472865D01*
X96234Y77692D02*
X99566D01*
X97900D01*
Y87689D01*
X96234Y86023D01*
X268192Y412555D02*
X274856D01*
X271524D01*
Y402558D01*
X268192Y383254D02*
Y393251D01*
X273190D01*
X274856Y391585D01*
Y388252D01*
X273190Y386586D01*
X268192D01*
X271524D02*
X274856Y383254D01*
X549180Y98581D02*
Y91916D01*
X542515Y98581D01*
X540849D01*
X539183Y96914D01*
Y93582D01*
X540849Y91916D01*
X539183Y108577D02*
Y101913D01*
X544182D01*
X542515Y105245D01*
Y106911D01*
X544182Y108577D01*
X547514D01*
X549180Y106911D01*
Y103579D01*
X547514Y101913D01*
X320834Y94710D02*
Y97709D01*
Y96209D01*
X311837D01*
X313336Y94710D01*
X311837Y108206D02*
X313336Y105207D01*
X316336Y102208D01*
X319335D01*
X320834Y103707D01*
Y106706D01*
X319335Y108206D01*
X317835D01*
X316336Y106706D01*
Y102208D01*
X293656Y220440D02*
Y223772D01*
Y222106D01*
X283659D01*
X285325Y220440D01*
X293656Y233769D02*
X283659D01*
X288658Y228771D01*
Y235435D01*
X397000Y219000D02*
Y222332D01*
Y220666D01*
X387003D01*
X388669Y219000D01*
Y227331D02*
X387003Y228997D01*
Y232329D01*
X388669Y233995D01*
X395334D01*
X397000Y232329D01*
Y228997D01*
X395334Y227331D01*
X388669D01*
X514003Y226665D02*
Y220000D01*
X519002D01*
X517335Y223332D01*
Y224998D01*
X519002Y226665D01*
X522334D01*
X524000Y224998D01*
Y221666D01*
X522334Y220000D01*
X6998Y312000D02*
Y321997D01*
X2000Y316998D01*
X8665D01*
X3000Y347331D02*
X4666Y348997D01*
X7998D01*
X9664Y347331D01*
Y345664D01*
X7998Y343998D01*
X6332D01*
X7998D01*
X9664Y342332D01*
Y340666D01*
X7998Y339000D01*
X4666D01*
X3000Y340666D01*
X74450Y310864D02*
X67786D01*
X74450Y317528D01*
Y319195D01*
X72784Y320861D01*
X69452D01*
X67786Y319195D01*
X38830Y437701D02*
X42162D01*
X40496D01*
Y427704D01*
X38830D01*
X42162D01*
X53825Y436035D02*
X52159Y437701D01*
X48827D01*
X47161Y436035D01*
Y429370D01*
X48827Y427704D01*
X52159D01*
X53825Y429370D01*
X63822Y436035D02*
X62156Y437701D01*
X58824D01*
X57157Y436035D01*
Y434369D01*
X58824Y432702D01*
X62156D01*
X63822Y431036D01*
Y429370D01*
X62156Y427704D01*
X58824D01*
X57157Y429370D01*
X67154Y427704D02*
Y437701D01*
X72153D01*
X73819Y436035D01*
Y432702D01*
X72153Y431036D01*
X67154D01*
X77151Y427704D02*
X80483D01*
X78817D01*
Y437701D01*
X77151Y436035D01*
X174002Y45000D02*
X179834D01*
X181000Y46166D01*
Y48499D01*
X179834Y49665D01*
X174002D01*
X175168Y56663D02*
X174002Y55497D01*
Y53164D01*
X175168Y51998D01*
X176335D01*
X177501Y53164D01*
Y55497D01*
X178667Y56663D01*
X179834D01*
X181000Y55497D01*
Y53164D01*
X179834Y51998D01*
X174002Y63661D02*
Y58995D01*
X181000D01*
Y63661D01*
X177501Y58995D02*
Y61328D01*
X181000Y65993D02*
X174002D01*
Y69492D01*
X175168Y70658D01*
X177501D01*
X178667Y69492D01*
Y65993D01*
Y68326D02*
X181000Y70658D01*
X53000Y524997D02*
X56332D01*
X54666D01*
Y515000D01*
X53000D01*
X56332D01*
X67995Y523331D02*
X66329Y524997D01*
X62997D01*
X61331Y523331D01*
Y516666D01*
X62997Y515000D01*
X66329D01*
X67995Y516666D01*
X77992Y523331D02*
X76326Y524997D01*
X72994D01*
X71327Y523331D01*
Y521665D01*
X72994Y519998D01*
X76326D01*
X77992Y518332D01*
Y516666D01*
X76326Y515000D01*
X72994D01*
X71327Y516666D01*
X81324Y515000D02*
Y524997D01*
X86323D01*
X87989Y523331D01*
Y519998D01*
X86323Y518332D01*
X81324D01*
X583000Y263000D02*
X573003D01*
Y267998D01*
X574669Y269664D01*
X578002D01*
X579668Y267998D01*
Y263000D01*
Y266332D02*
X583000Y269664D01*
X573003Y279661D02*
Y272997D01*
X583000D01*
Y279661D01*
X578002Y272997D02*
Y276329D01*
X574669Y289658D02*
X573003Y287992D01*
Y284660D01*
X574669Y282994D01*
X576335D01*
X578002Y284660D01*
Y287992D01*
X579668Y289658D01*
X581334D01*
X583000Y287992D01*
Y284660D01*
X581334Y282994D01*
X573003Y299655D02*
Y292990D01*
X583000D01*
Y299655D01*
X578002Y292990D02*
Y296323D01*
X573003Y302987D02*
Y309652D01*
Y306319D01*
X583000D01*
D11*
X200000Y263000D02*
G03*
X200000Y263000I-1000J0D01*
G01*
D12*
X10000Y304000D02*
X14000D01*
X596000Y241500D02*
Y245500D01*
D13*
X266286Y433235D02*
Y427404D01*
X267452Y426237D01*
X269785D01*
X270951Y427404D01*
Y433235D01*
D14*
X108619Y70809D02*
X106286D01*
X107452D01*
Y64977D01*
X106286Y63811D01*
X105120D01*
X103954Y64977D01*
X110951Y63811D02*
Y70809D01*
X114450D01*
X115617Y69643D01*
Y67310D01*
X114450Y66144D01*
X110951D01*
X121448Y63811D02*
Y70809D01*
X117949Y67310D01*
X122614D01*
X170336Y368998D02*
X167003D01*
X168669D01*
Y360668D01*
X167003Y359002D01*
X165337D01*
X163671Y360668D01*
X173668Y359002D02*
Y368998D01*
X178666D01*
X180332Y367332D01*
Y364000D01*
X178666Y362334D01*
X173668D01*
X183664Y367332D02*
X185331Y368998D01*
X188663D01*
X190329Y367332D01*
Y365666D01*
X188663Y364000D01*
X186997D01*
X188663D01*
X190329Y362334D01*
Y360668D01*
X188663Y359002D01*
X185331D01*
X183664Y360668D01*
X28335Y367998D02*
X25003D01*
X26669D01*
Y359668D01*
X25003Y358002D01*
X23337D01*
X21671Y359668D01*
X31668Y358002D02*
Y367998D01*
X36666D01*
X38332Y366332D01*
Y363000D01*
X36666Y361334D01*
X31668D01*
X48329Y358002D02*
X41665D01*
X48329Y364666D01*
Y366332D01*
X46663Y367998D01*
X43331D01*
X41665Y366332D01*
X662002Y494998D02*
X658669D01*
X660335D01*
Y486668D01*
X658669Y485002D01*
X657003D01*
X655337Y486668D01*
X665334Y485002D02*
Y494998D01*
X670332D01*
X671998Y493332D01*
Y490000D01*
X670332Y488334D01*
X665334D01*
X675331Y485002D02*
X678663D01*
X676997D01*
Y494998D01*
X675331Y493332D01*
X63334Y166998D02*
X60002D01*
X61668D01*
Y158668D01*
X60002Y157002D01*
X58335D01*
X56669Y158668D01*
X66666Y166998D02*
X73331D01*
Y165332D01*
X66666Y158668D01*
Y157002D01*
X101334Y401998D02*
X98002D01*
X99668D01*
Y393668D01*
X98002Y392002D01*
X96335D01*
X94669Y393668D01*
X111331Y401998D02*
X107998Y400332D01*
X104666Y397000D01*
Y393668D01*
X106332Y392002D01*
X109664D01*
X111331Y393668D01*
Y395334D01*
X109664Y397000D01*
X104666D01*
X103334Y482998D02*
X100002D01*
X101668D01*
Y474668D01*
X100002Y473002D01*
X98336D01*
X96669Y474668D01*
X113331Y482998D02*
X106666D01*
Y478000D01*
X109998Y479666D01*
X111664D01*
X113331Y478000D01*
Y474668D01*
X111664Y473002D01*
X108332D01*
X106666Y474668D01*
X316334Y483998D02*
X313002D01*
X314668D01*
Y475668D01*
X313002Y474002D01*
X311336D01*
X309669Y475668D01*
X324664Y474002D02*
Y483998D01*
X319666Y479000D01*
X326331D01*
X539334Y487998D02*
X536002D01*
X537668D01*
Y479668D01*
X536002Y478002D01*
X534336D01*
X532669Y479668D01*
X542666Y486332D02*
X544332Y487998D01*
X547664D01*
X549331Y486332D01*
Y484666D01*
X547664Y483000D01*
X545998D01*
X547664D01*
X549331Y481334D01*
Y479668D01*
X547664Y478002D01*
X544332D01*
X542666Y479668D01*
X558334Y56998D02*
X555002D01*
X556668D01*
Y48668D01*
X555002Y47002D01*
X553335D01*
X551669Y48668D01*
X568331Y47002D02*
X561666D01*
X568331Y53666D01*
Y55332D01*
X566665Y56998D01*
X563332D01*
X561666Y55332D01*
X284000Y52998D02*
X280668D01*
X282334D01*
Y44668D01*
X280668Y43002D01*
X279002D01*
X277335Y44668D01*
X287332Y43002D02*
X290665D01*
X288998D01*
Y52998D01*
X287332Y51332D01*
M02*
