G04*
G04 #@! TF.GenerationSoftware,Altium Limited,Altium Designer,20.1.14 (287)*
G04*
G04 Layer_Color=16711935*
%FSLAX44Y44*%
%MOMM*%
G71*
G04*
G04 #@! TF.SameCoordinates,62FEBE6E-F3EC-4242-810F-CB492347D0CA*
G04*
G04*
G04 #@! TF.FilePolarity,Negative*
G04*
G01*
G75*
%ADD48R,2.1000X2.1000*%
%ADD58C,3.4000*%
%ADD59C,4.2000*%
%ADD60O,1.8000X2.2000*%
%ADD61R,1.8000X2.2000*%
%ADD62C,7.6000*%
%ADD63C,1.9000*%
%ADD64R,1.9000X1.9000*%
%ADD65R,2.2000X1.8000*%
%ADD66O,2.2000X1.8000*%
%ADD67C,2.1000*%
%ADD68R,2.1000X2.1000*%
G04:AMPARAMS|DCode=69|XSize=2.2mm|YSize=1.4mm|CornerRadius=0.4mm|HoleSize=0mm|Usage=FLASHONLY|Rotation=0.000|XOffset=0mm|YOffset=0mm|HoleType=Round|Shape=RoundedRectangle|*
%AMROUNDEDRECTD69*
21,1,2.2000,0.6000,0,0,0.0*
21,1,1.4000,1.4000,0,0,0.0*
1,1,0.8000,0.7000,-0.3000*
1,1,0.8000,-0.7000,-0.3000*
1,1,0.8000,-0.7000,0.3000*
1,1,0.8000,0.7000,0.3000*
%
%ADD69ROUNDEDRECTD69*%
%ADD70C,0.8000*%
D48*
X236500Y81500D02*
D03*
D58*
X152400Y508000D02*
D03*
D59*
X21000Y24000D02*
D03*
Y131000D02*
D03*
D60*
X187960Y508000D02*
D03*
X213360D02*
D03*
X238760D02*
D03*
X264160D02*
D03*
X289560D02*
D03*
X314960D02*
D03*
X340360D02*
D03*
X365760D02*
D03*
X391160D02*
D03*
X457200Y25400D02*
D03*
X431800D02*
D03*
X406400D02*
D03*
X381000D02*
D03*
X355600D02*
D03*
X330200D02*
D03*
X304800D02*
D03*
X457200Y508000D02*
D03*
X482600D02*
D03*
X508000D02*
D03*
X533400D02*
D03*
X558800D02*
D03*
X584200D02*
D03*
X609600D02*
D03*
X533400Y25400D02*
D03*
X558800D02*
D03*
X584200D02*
D03*
X609600D02*
D03*
X635000D02*
D03*
X141600Y88000D02*
D03*
X167000D02*
D03*
X290450Y125730D02*
D03*
X315850D02*
D03*
X341250D02*
D03*
X366650D02*
D03*
X392050D02*
D03*
X417450D02*
D03*
X442850D02*
D03*
X468250D02*
D03*
X493650D02*
D03*
X519050D02*
D03*
X544450D02*
D03*
X569850D02*
D03*
X595250D02*
D03*
X290450Y201930D02*
D03*
X315850D02*
D03*
X341250D02*
D03*
X366650D02*
D03*
X392050D02*
D03*
X417450D02*
D03*
X442850D02*
D03*
X468250D02*
D03*
X493650D02*
D03*
X519050D02*
D03*
X544450D02*
D03*
X569850D02*
D03*
X595250D02*
D03*
X620650Y125730D02*
D03*
D61*
X416560Y508000D02*
D03*
X279400Y25400D02*
D03*
X635000Y508000D02*
D03*
X508000Y25400D02*
D03*
X116200Y88000D02*
D03*
X620650Y201930D02*
D03*
D62*
X139700Y25400D02*
D03*
X660400Y76200D02*
D03*
Y355600D02*
D03*
D63*
X76200Y497840D02*
D03*
X50800D02*
D03*
X25400D02*
D03*
X76200Y472440D02*
D03*
X50800D02*
D03*
X76200Y411480D02*
D03*
X50800D02*
D03*
X25400D02*
D03*
X76200Y386080D02*
D03*
X50800D02*
D03*
X25400Y316600D02*
D03*
X50800D02*
D03*
X25400Y342000D02*
D03*
D64*
Y472440D02*
D03*
Y386080D02*
D03*
X50800Y342000D02*
D03*
D65*
X146000Y446000D02*
D03*
X662000Y469000D02*
D03*
D66*
X146000Y420600D02*
D03*
Y395200D02*
D03*
Y369800D02*
D03*
X662000Y443600D02*
D03*
Y418200D02*
D03*
D67*
X597500Y262500D02*
D03*
Y307500D02*
D03*
X662500D02*
D03*
X236500Y16500D02*
D03*
X191500D02*
D03*
Y81500D02*
D03*
D68*
X662500Y262500D02*
D03*
D69*
X21995Y234000D02*
D03*
Y168000D02*
D03*
D70*
X299000Y415000D02*
D03*
X55750Y522000D02*
D03*
X106000Y157000D02*
D03*
X113000Y146000D02*
D03*
X106000D02*
D03*
X99000D02*
D03*
X121000Y169000D02*
D03*
X133000Y162000D02*
D03*
Y169000D02*
D03*
X388000Y490000D02*
D03*
X379000D02*
D03*
X388000Y484000D02*
D03*
X379000D02*
D03*
X267780Y245280D02*
D03*
X390000Y388000D02*
D03*
Y381000D02*
D03*
X379000Y388000D02*
D03*
X318000Y259000D02*
D03*
X577000Y376000D02*
D03*
Y382000D02*
D03*
X615000Y61000D02*
D03*
Y69000D02*
D03*
X679000Y116000D02*
D03*
X662061Y157000D02*
D03*
X480000Y161000D02*
D03*
X445250Y46000D02*
D03*
X403000Y64000D02*
D03*
X412000D02*
D03*
X338344Y57665D02*
D03*
X108000Y415000D02*
D03*
X104000Y409000D02*
D03*
X151000Y133000D02*
D03*
X571594Y407594D02*
D03*
X547000Y413000D02*
D03*
X578000Y400000D02*
D03*
X577000Y388000D02*
D03*
X562000Y417000D02*
D03*
X323000Y426000D02*
D03*
X213000Y400000D02*
D03*
X325000Y410000D02*
D03*
X379000Y381000D02*
D03*
X214000Y484000D02*
D03*
X623000Y465000D02*
D03*
X198000Y452000D02*
D03*
X197000Y430000D02*
D03*
X183750Y426000D02*
D03*
X167000Y411000D02*
D03*
X602000Y182000D02*
D03*
X277000Y491250D02*
D03*
X176000Y192000D02*
D03*
Y208000D02*
D03*
X86000Y101000D02*
D03*
X421000Y64000D02*
D03*
X58000Y452000D02*
D03*
X632000Y176000D02*
D03*
Y186000D02*
D03*
X306000Y80000D02*
D03*
X255000Y122000D02*
D03*
X370006Y66883D02*
D03*
X41160Y283000D02*
D03*
X12000Y284000D02*
D03*
X86000Y111000D02*
D03*
X58621Y221133D02*
D03*
X60000Y234750D02*
D03*
X196000Y209000D02*
D03*
X80000Y221327D02*
D03*
X208000Y249250D02*
D03*
X452000Y111830D02*
D03*
X405648D02*
D03*
X189500Y131250D02*
D03*
X133000Y176000D02*
D03*
X84000Y293000D02*
D03*
X447500Y217750D02*
D03*
X478000Y252000D02*
D03*
X397750Y251750D02*
D03*
X108500Y249500D02*
D03*
X140000Y224160D02*
D03*
X150000Y272250D02*
D03*
X234000Y199500D02*
D03*
X179750Y288000D02*
D03*
X219000Y328250D02*
D03*
X272000Y341750D02*
D03*
X453830Y88840D02*
D03*
X398000Y86250D02*
D03*
X195000Y142500D02*
D03*
X165250Y132000D02*
D03*
X80750Y249500D02*
D03*
X79750Y181750D02*
D03*
X111000Y408750D02*
D03*
X263250Y57000D02*
D03*
X306000D02*
D03*
X330750Y57750D02*
D03*
X465750Y42500D02*
D03*
X97814Y321879D02*
D03*
X104750Y369250D02*
D03*
X100160Y272000D02*
D03*
X114750Y369750D02*
D03*
X240000Y182000D02*
D03*
X475250Y93500D02*
D03*
X207840Y210340D02*
D03*
X165500Y207250D02*
D03*
X158000Y201250D02*
D03*
X118250Y215000D02*
D03*
X118500Y193000D02*
D03*
X327500Y177000D02*
D03*
X302750Y177250D02*
D03*
X303000Y225750D02*
D03*
M02*
