G04*
G04 #@! TF.GenerationSoftware,Altium Limited,Altium Designer,20.1.14 (287)*
G04*
G04 Layer_Physical_Order=2*
G04 Layer_Color=16711680*
%FSLAX44Y44*%
%MOMM*%
G71*
G04*
G04 #@! TF.SameCoordinates,62FEBE6E-F3EC-4242-810F-CB492347D0CA*
G04*
G04*
G04 #@! TF.FilePolarity,Positive*
G04*
G01*
G75*
%ADD10C,0.2000*%
%ADD11C,0.5000*%
%ADD12C,0.4000*%
%ADD26R,1.9000X1.9000*%
%ADD63C,1.9000*%
%ADD64R,1.9000X1.9000*%
%ADD72C,0.6000*%
%ADD73C,1.0000*%
%ADD75C,3.2000*%
%ADD76C,4.0000*%
%ADD77O,1.6000X2.0000*%
%ADD78R,1.6000X2.0000*%
%ADD79C,7.4000*%
%ADD80C,1.7000*%
%ADD81R,1.7000X1.7000*%
%ADD82R,2.0000X1.6000*%
%ADD83O,2.0000X1.6000*%
G04:AMPARAMS|DCode=84|XSize=2mm|YSize=1.2mm|CornerRadius=0.3mm|HoleSize=0mm|Usage=FLASHONLY|Rotation=0.000|XOffset=0mm|YOffset=0mm|HoleType=Round|Shape=RoundedRectangle|*
%AMROUNDEDRECTD84*
21,1,2.0000,0.6000,0,0,0.0*
21,1,1.4000,1.2000,0,0,0.0*
1,1,0.6000,0.7000,-0.3000*
1,1,0.6000,-0.7000,-0.3000*
1,1,0.6000,-0.7000,0.3000*
1,1,0.6000,0.7000,0.3000*
%
%ADD84ROUNDEDRECTD84*%
%ADD85C,0.6000*%
G36*
X682000Y481000D02*
X269001D01*
X260092Y489908D01*
X256000Y494000D01*
X256000Y530000D01*
X682000D01*
Y481000D01*
D02*
G37*
G36*
X110820Y529820D02*
Y476518D01*
X86958D01*
X86245Y478240D01*
X84402Y480642D01*
X82000Y482485D01*
X79202Y483644D01*
X76200Y484039D01*
X73198Y483644D01*
X70400Y482485D01*
X67998Y480642D01*
X66155Y478240D01*
X64996Y475442D01*
X64601Y472440D01*
X64996Y469438D01*
X66155Y466640D01*
X67998Y464238D01*
X70400Y462395D01*
X73198Y461236D01*
X76200Y460841D01*
X79202Y461236D01*
X82000Y462395D01*
X84402Y464238D01*
X86245Y466640D01*
X86958Y468362D01*
X110820D01*
Y439097D01*
X95737D01*
X91834Y435194D01*
X91945Y403055D01*
X110000Y385000D01*
X119000D01*
X130000Y374000D01*
Y359000D01*
X141760D01*
X144000Y358705D01*
X148000D01*
X150240Y359000D01*
X159000D01*
X177000Y377000D01*
Y379705D01*
X177059Y380000D01*
X177059Y380000D01*
X177059Y429733D01*
X180267Y432942D01*
X196409Y432941D01*
X196705Y433000D01*
X196994Y433000D01*
X196994Y433000D01*
X197295D01*
X197591Y432941D01*
X199941Y432941D01*
Y430591D01*
X200000Y430296D01*
X200000Y430006D01*
X200000Y429704D01*
X199941Y429409D01*
X199941Y421000D01*
X199941Y407000D01*
X200000Y406704D01*
Y402000D01*
X211000Y391000D01*
X545999D01*
X580102Y391000D01*
X581000Y390102D01*
X580999Y384999D01*
X580999Y373995D01*
X580999Y371999D01*
X579000Y370000D01*
X566000Y370000D01*
X542000Y346000D01*
X542000Y238000D01*
X559000Y222000D01*
Y205790D01*
X558755Y203930D01*
Y199930D01*
X559000Y198070D01*
Y188000D01*
X575100D01*
X575996Y187100D01*
X575945Y175000D01*
X599000Y175000D01*
X609000D01*
X613000Y179000D01*
Y188930D01*
X631650D01*
Y189000D01*
X636000D01*
X636000Y174000D01*
X601000Y139000D01*
X584000D01*
X584000Y111830D01*
X632000D01*
X632000Y131000D01*
X648000Y147000D01*
X682000Y147000D01*
Y4000D01*
X681612Y3063D01*
X624140D01*
X623060Y3897D01*
X623059Y3898D01*
Y16798D01*
X623039Y16897D01*
X623052Y16998D01*
X622969Y17307D01*
X622971Y20763D01*
X624241Y20846D01*
X624283Y20528D01*
X625392Y17852D01*
X627155Y15555D01*
X629453Y13792D01*
X632128Y12683D01*
X635000Y12305D01*
X637872Y12683D01*
X640547Y13792D01*
X642845Y15555D01*
X644609Y17852D01*
X645717Y20528D01*
X646095Y23400D01*
Y27400D01*
X645717Y30272D01*
X644609Y32947D01*
X642845Y35245D01*
X640547Y37009D01*
X637872Y38117D01*
X635000Y38495D01*
X632128Y38117D01*
X629453Y37009D01*
X627155Y35245D01*
X625392Y32947D01*
X624283Y30272D01*
X624246Y29990D01*
X622976Y30073D01*
X622978Y33525D01*
X623052Y33802D01*
X623039Y33903D01*
X623059Y34002D01*
Y73000D01*
X622999Y73302D01*
X623000Y76000D01*
X620295D01*
X620000Y76059D01*
X465000D01*
X464705Y76000D01*
X464000D01*
X463819Y75819D01*
X462837Y75163D01*
X462837Y75163D01*
X448733Y61059D01*
X425000Y61059D01*
X421591D01*
X421296Y61000D01*
X420704D01*
X420409Y61059D01*
X412591Y61059D01*
X412442Y61029D01*
X411558D01*
X411409Y61059D01*
X403591Y61059D01*
X403442Y61029D01*
X402558D01*
X402409Y61059D01*
X400999D01*
X399000Y63000D01*
X398000Y63000D01*
X396297D01*
X396001Y63059D01*
X396000Y63059D01*
X396000Y63059D01*
X375000Y63059D01*
X375000Y63059D01*
X375000Y63059D01*
X369267Y63059D01*
X357163Y75163D01*
X356171Y75826D01*
X356171Y75826D01*
X355701Y75919D01*
X355000Y76059D01*
X355000Y76059D01*
X292941Y76059D01*
X241000Y128000D01*
X239297D01*
X239000Y128059D01*
X239000Y128059D01*
X162975Y128059D01*
X162059Y128975D01*
Y140000D01*
X162000Y140295D01*
Y143000D01*
X159296D01*
X159000Y143059D01*
X113591Y143059D01*
X113295Y143000D01*
X112705D01*
X112409Y143059D01*
X106591D01*
X106295Y143000D01*
X105705D01*
X105409Y143059D01*
X99591Y143059D01*
X99295Y143000D01*
X98705D01*
X98410Y143059D01*
X96000D01*
Y178000D01*
X92295D01*
X92000Y178059D01*
X78267Y178059D01*
X76059Y180267D01*
X76059Y238000D01*
X76000Y238295D01*
Y243000D01*
X58059D01*
Y304749D01*
X58000Y305045D01*
Y307629D01*
X59002Y308398D01*
X60845Y310800D01*
X62004Y313598D01*
X62399Y316600D01*
X62004Y319602D01*
X60845Y322400D01*
X59002Y324802D01*
X58000Y325571D01*
Y328156D01*
X58059Y328451D01*
Y330500D01*
X62300D01*
Y353500D01*
X58059D01*
Y374229D01*
X58000Y374524D01*
Y377109D01*
X59002Y377878D01*
X60845Y380280D01*
X62004Y383078D01*
X62399Y386080D01*
X62004Y389082D01*
X60845Y391880D01*
X59002Y394282D01*
X58000Y395051D01*
Y397635D01*
X58059Y397931D01*
Y399629D01*
X58000Y399925D01*
Y402509D01*
X59002Y403278D01*
X60845Y405680D01*
X62004Y408478D01*
X62399Y411480D01*
X62004Y414482D01*
X60845Y417280D01*
X59002Y419682D01*
X58000Y420451D01*
Y423036D01*
X58059Y423331D01*
Y441000D01*
X58000Y441295D01*
Y444000D01*
X55296D01*
X55000Y444059D01*
X50000Y444059D01*
Y460139D01*
X50800Y460841D01*
X53802Y461236D01*
X56600Y462395D01*
X59002Y464238D01*
X60845Y466640D01*
X62004Y469438D01*
X62399Y472440D01*
X62004Y475442D01*
X60845Y478240D01*
X59002Y480642D01*
X56600Y482485D01*
X53802Y483644D01*
X50800Y484039D01*
X50362Y484423D01*
Y485857D01*
X50800Y486241D01*
X53802Y486636D01*
X56600Y487795D01*
X59002Y489638D01*
X60845Y492040D01*
X62004Y494838D01*
X62399Y497840D01*
X62004Y500842D01*
X60845Y503640D01*
X59002Y506042D01*
X56600Y507885D01*
X53802Y509044D01*
X50800Y509439D01*
X50000Y510141D01*
Y515000D01*
X46295D01*
X46000Y515059D01*
X3000Y515059D01*
Y530000D01*
X110745D01*
X110820Y529820D01*
D02*
G37*
G36*
X46000Y512000D02*
Y508299D01*
X45000Y507885D01*
X42598Y506042D01*
X40755Y503640D01*
X39596Y500842D01*
X39201Y497840D01*
X39596Y494838D01*
X40755Y492040D01*
X42598Y489638D01*
X45000Y487795D01*
X46000Y487381D01*
Y482899D01*
X45000Y482485D01*
X42598Y480642D01*
X40755Y478240D01*
X39596Y475442D01*
X39201Y472440D01*
X39596Y469438D01*
X40755Y466640D01*
X42598Y464238D01*
X45000Y462395D01*
X46000Y461981D01*
Y441000D01*
X55000Y441000D01*
Y423331D01*
X54067Y422708D01*
X53730Y422693D01*
X50800Y423079D01*
X47798Y422684D01*
X45000Y421525D01*
X42598Y419682D01*
X40755Y417280D01*
X39596Y414482D01*
X39201Y411480D01*
X39596Y408478D01*
X40755Y405680D01*
X42598Y403278D01*
X45000Y401435D01*
X47798Y400276D01*
X50800Y399881D01*
X53730Y400266D01*
X54067Y400252D01*
X55000Y399629D01*
Y397931D01*
X54067Y397308D01*
X53730Y397294D01*
X50800Y397679D01*
X47798Y397284D01*
X45000Y396125D01*
X42598Y394282D01*
X40755Y391880D01*
X39596Y389082D01*
X39201Y386080D01*
X39596Y383078D01*
X40755Y380280D01*
X42598Y377878D01*
X45000Y376035D01*
X47798Y374876D01*
X50800Y374481D01*
X53730Y374866D01*
X54067Y374852D01*
X55000Y374229D01*
Y353500D01*
X39300D01*
Y330500D01*
X55000D01*
Y328451D01*
X54067Y327828D01*
X53730Y327814D01*
X50800Y328199D01*
X47798Y327804D01*
X45000Y326645D01*
X42598Y324802D01*
X40755Y322400D01*
X39596Y319602D01*
X39201Y316600D01*
X39596Y313598D01*
X40755Y310800D01*
X42598Y308398D01*
X45000Y306555D01*
X47798Y305396D01*
X50800Y305001D01*
X53730Y305387D01*
X54067Y305372D01*
X55000Y304749D01*
Y242000D01*
X49000D01*
X49000Y180000D01*
X50184Y178816D01*
X50837Y177838D01*
X76941Y151733D01*
X76941Y98000D01*
X77000Y97705D01*
Y95000D01*
X79705D01*
X80000Y94941D01*
X85705D01*
X86000Y94882D01*
X86295Y94941D01*
X92000D01*
X92295Y95000D01*
X95000D01*
Y97704D01*
X95059Y98000D01*
X95059Y140000D01*
X98410D01*
X99000Y139882D01*
X99591Y140000D01*
X105409Y140000D01*
X106000Y139882D01*
X106591Y140000D01*
X112409D01*
X113000Y139882D01*
X113591Y140000D01*
X159000Y140000D01*
Y125000D01*
X239000Y125000D01*
X291000Y73000D01*
X355000Y73000D01*
X368000Y60000D01*
X375000Y60000D01*
X396000Y60000D01*
X398000Y58000D01*
X402409D01*
X403000Y57882D01*
X403591Y58000D01*
X411409Y58000D01*
X412000Y57882D01*
X412591Y58000D01*
X420409Y58000D01*
X421000Y57882D01*
X421591Y58000D01*
X425000D01*
X450000Y58000D01*
X465000Y73000D01*
X620000D01*
Y34002D01*
X618730Y33571D01*
X617445Y35245D01*
X615148Y37009D01*
X612472Y38117D01*
X609600Y38495D01*
X606728Y38117D01*
X604053Y37009D01*
X601755Y35245D01*
X599991Y32947D01*
X598883Y30272D01*
X598505Y27400D01*
Y23400D01*
X598883Y20528D01*
X599991Y17852D01*
X601755Y15555D01*
X604053Y13792D01*
X606728Y12683D01*
X609600Y12305D01*
X612472Y12683D01*
X615148Y13792D01*
X617445Y15555D01*
X618730Y17229D01*
X620000Y16798D01*
Y3898D01*
X619102Y3000D01*
X399000Y3040D01*
Y13777D01*
X400139Y14339D01*
X400853Y13792D01*
X403528Y12683D01*
X406400Y12305D01*
X409272Y12683D01*
X411948Y13792D01*
X414245Y15555D01*
X416008Y17852D01*
X417117Y20528D01*
X417495Y23400D01*
Y27400D01*
X417117Y30272D01*
X416008Y32947D01*
X414245Y35245D01*
X411948Y37009D01*
X409272Y38117D01*
X406400Y38495D01*
X403528Y38117D01*
X400853Y37009D01*
X400139Y36461D01*
X399000Y37023D01*
Y39000D01*
X393295D01*
X393000Y39059D01*
X372941D01*
X358000Y54000D01*
X356295D01*
X356000Y54059D01*
X356000Y54059D01*
X306591D01*
X306296Y54000D01*
X305704D01*
X305409Y54059D01*
X263841D01*
X263546Y54000D01*
X262954D01*
X262659Y54059D01*
X257267D01*
X249000Y62326D01*
Y93000D01*
X249000D01*
Y94000D01*
X224000D01*
X224000Y94000D01*
Y94000D01*
X223151Y94850D01*
X213000Y105000D01*
X211296D01*
X211000Y105059D01*
X211000Y105059D01*
X193000D01*
X159000Y105059D01*
X158705Y105000D01*
X155000D01*
Y77000D01*
X127311D01*
Y98689D01*
X127200Y98800D01*
Y101000D01*
X124295D01*
X124000Y101059D01*
X108000D01*
X107705Y101000D01*
X105200D01*
Y100000D01*
X105000D01*
Y98295D01*
X104941Y98000D01*
Y78941D01*
X90059Y64059D01*
X3000Y64059D01*
X3000Y65329D01*
Y114793D01*
X4196Y115221D01*
X4658Y114658D01*
X8160Y111784D01*
X12156Y109648D01*
X16491Y108333D01*
X21000Y107889D01*
X25509Y108333D01*
X29844Y109648D01*
X33840Y111784D01*
X37342Y114658D01*
X40216Y118160D01*
X42352Y122156D01*
X43667Y126491D01*
X44111Y131000D01*
X43667Y135509D01*
X42352Y139844D01*
X40216Y143840D01*
X37342Y147342D01*
X33840Y150216D01*
X29844Y152352D01*
X25509Y153667D01*
X21000Y154111D01*
X16491Y153667D01*
X12156Y152352D01*
X8160Y150216D01*
X4658Y147342D01*
X4196Y146779D01*
X3000Y147207D01*
X3000Y510671D01*
Y512000D01*
X46000Y512000D01*
D02*
G37*
G36*
X202000Y465000D02*
X234001Y433000D01*
X311000Y433000D01*
X311000Y416000D01*
X302000Y407000D01*
X203000Y407000D01*
X203000Y421000D01*
X203000Y429409D01*
X203118Y430000D01*
X203000Y430591D01*
Y436000D01*
X197591Y436000D01*
X197000Y436118D01*
X196409Y436000D01*
X179000Y436000D01*
X174000Y431000D01*
X174000Y380000D01*
X159500Y365500D01*
X158423Y366219D01*
X158717Y366928D01*
X159095Y369800D01*
X158717Y372672D01*
X157608Y375347D01*
X155845Y377645D01*
X153547Y379408D01*
X150872Y380517D01*
X148000Y380895D01*
X144000D01*
X141128Y380517D01*
X138453Y379408D01*
X136155Y377645D01*
X135525Y376825D01*
X134258Y376742D01*
X121000Y390000D01*
X110000D01*
X96000Y404000D01*
Y434102D01*
X96898Y435000D01*
X157730Y435000D01*
X159000Y435000D01*
X159000Y447500D01*
X176500Y465000D01*
X178000D01*
X202000Y465000D01*
D02*
G37*
G36*
X73000Y238000D02*
X73000Y179000D01*
X77000Y175000D01*
X92000Y175000D01*
X92000Y98000D01*
X80000Y98000D01*
X80000Y153000D01*
X53000Y180000D01*
X53000Y237102D01*
X53898Y238000D01*
X73000Y238000D01*
D02*
G37*
G36*
X222000Y91000D02*
Y78000D01*
X222000Y70999D01*
X225000Y68000D01*
X239000Y68000D01*
X256000Y51000D01*
X262659D01*
X263250Y50882D01*
X263841Y51000D01*
X305409D01*
X306000Y50882D01*
X306591Y51000D01*
X356000D01*
X366000Y41000D01*
Y36296D01*
X365941Y36000D01*
X365941Y14059D01*
X344000D01*
Y39000D01*
X271000D01*
X269000Y41000D01*
X238000D01*
X206000Y73000D01*
X204296D01*
X204000Y73059D01*
X204000Y73059D01*
X202214D01*
X201653Y74198D01*
X202419Y75196D01*
X203678Y78237D01*
X204108Y81500D01*
X203678Y84763D01*
X202419Y87804D01*
X200415Y90415D01*
X197804Y92419D01*
X194763Y93678D01*
X191500Y94108D01*
X188237Y93678D01*
X185196Y92419D01*
X182585Y90415D01*
X180581Y87804D01*
X179322Y84763D01*
X178892Y81500D01*
X179322Y78237D01*
X180581Y75196D01*
X181347Y74198D01*
X180786Y73059D01*
X159047Y73059D01*
X159000Y73295D01*
X159000Y102000D01*
X193000Y102000D01*
X211000D01*
X222000Y91000D01*
D02*
G37*
G36*
X124000Y73000D02*
X154000D01*
X156000Y73000D01*
X156000Y70000D01*
X158705Y70000D01*
X186600Y70000D01*
X188237Y69322D01*
X191500Y68892D01*
X194763Y69322D01*
X196401Y70000D01*
X204000D01*
X237000Y37000D01*
X266000D01*
X268000Y35000D01*
X268000Y11000D01*
X369000Y11000D01*
X369000Y36000D01*
X393000D01*
X393000Y3000D01*
X239453D01*
X239370Y4270D01*
X239763Y4322D01*
X242804Y5581D01*
X245415Y7585D01*
X247419Y10196D01*
X248678Y13237D01*
X249108Y16500D01*
X248678Y19763D01*
X247419Y22804D01*
X245415Y25415D01*
X242804Y27419D01*
X239763Y28678D01*
X236500Y29108D01*
X233237Y28678D01*
X230196Y27419D01*
X227585Y25415D01*
X225581Y22804D01*
X224322Y19763D01*
X223892Y16500D01*
X224322Y13237D01*
X225581Y10196D01*
X227585Y7585D01*
X230196Y5581D01*
X233237Y4322D01*
X233630Y4270D01*
X233547Y3000D01*
X194453Y3000D01*
X194370Y4270D01*
X194763Y4322D01*
X197804Y5581D01*
X200415Y7585D01*
X202419Y10196D01*
X203678Y13237D01*
X204108Y16500D01*
X203678Y19763D01*
X202419Y22804D01*
X200415Y25415D01*
X197804Y27419D01*
X194763Y28678D01*
X191500Y29108D01*
X188237Y28678D01*
X185196Y27419D01*
X182585Y25415D01*
X180929Y23257D01*
X179692Y23732D01*
X179824Y25400D01*
X179330Y31677D01*
X177860Y37799D01*
X175450Y43616D01*
X172161Y48984D01*
X168072Y53772D01*
X163284Y57861D01*
X157916Y61150D01*
X152099Y63560D01*
X145977Y65030D01*
X139700Y65524D01*
X133423Y65030D01*
X127301Y63560D01*
X121484Y61150D01*
X116116Y57861D01*
X111328Y53772D01*
X107239Y48984D01*
X103949Y43616D01*
X101540Y37799D01*
X100070Y31677D01*
X99576Y25400D01*
X100070Y19123D01*
X101540Y13001D01*
X103949Y7184D01*
X105835Y4108D01*
X105214Y3000D01*
X3000D01*
Y61000D01*
X91750Y61000D01*
X108000Y77250D01*
Y98000D01*
X124000D01*
X124000Y73000D01*
D02*
G37*
%LPC*%
G36*
X314960Y521095D02*
X312088Y520717D01*
X309412Y519608D01*
X307115Y517845D01*
X305352Y515547D01*
X304243Y512872D01*
X303865Y510000D01*
Y506000D01*
X304243Y503128D01*
X304852Y501659D01*
X298396Y495203D01*
X296083D01*
X295899Y495442D01*
X296116Y497165D01*
X297405Y498155D01*
X299168Y500452D01*
X300277Y503128D01*
X300655Y506000D01*
Y510000D01*
X300277Y512872D01*
X299168Y515547D01*
X297405Y517845D01*
X295107Y519608D01*
X292432Y520717D01*
X289560Y521095D01*
X286688Y520717D01*
X284013Y519608D01*
X281715Y517845D01*
X279951Y515547D01*
X278843Y512872D01*
X278465Y510000D01*
Y506000D01*
X278843Y503128D01*
X279951Y500452D01*
X281715Y498155D01*
X283004Y497165D01*
X283221Y495442D01*
X283037Y495203D01*
X281575D01*
X281326Y495576D01*
X279341Y496902D01*
X277000Y497368D01*
X274659Y496902D01*
X272674Y495576D01*
X271348Y493591D01*
X270882Y491250D01*
X271348Y488909D01*
X272674Y486924D01*
X274659Y485598D01*
X277000Y485132D01*
X279341Y485598D01*
X281326Y486924D01*
X281408Y487047D01*
X300085D01*
X300085Y487047D01*
X301646Y487357D01*
X302969Y488241D01*
X310619Y495892D01*
X312088Y495283D01*
X314960Y494905D01*
X317832Y495283D01*
X320508Y496391D01*
X322805Y498155D01*
X324568Y500452D01*
X325677Y503128D01*
X326055Y506000D01*
Y510000D01*
X325677Y512872D01*
X324568Y515547D01*
X322805Y517845D01*
X320508Y519608D01*
X317832Y520717D01*
X314960Y521095D01*
D02*
G37*
G36*
X646000Y521000D02*
X624000D01*
Y495000D01*
X646000D01*
Y521000D01*
D02*
G37*
G36*
X427560D02*
X405560D01*
Y495000D01*
X427560D01*
Y521000D01*
D02*
G37*
G36*
X609600Y521095D02*
X606728Y520717D01*
X604053Y519608D01*
X601755Y517845D01*
X599991Y515547D01*
X598883Y512872D01*
X598505Y510000D01*
Y506000D01*
X598883Y503128D01*
X599991Y500452D01*
X601755Y498155D01*
X604053Y496391D01*
X606728Y495283D01*
X609600Y494905D01*
X612472Y495283D01*
X615148Y496391D01*
X617445Y498155D01*
X619208Y500452D01*
X620317Y503128D01*
X620695Y506000D01*
Y510000D01*
X620317Y512872D01*
X619208Y515547D01*
X617445Y517845D01*
X615148Y519608D01*
X612472Y520717D01*
X609600Y521095D01*
D02*
G37*
G36*
X584200D02*
X581328Y520717D01*
X578652Y519608D01*
X576355Y517845D01*
X574591Y515547D01*
X573483Y512872D01*
X573105Y510000D01*
Y506000D01*
X573483Y503128D01*
X574591Y500452D01*
X576355Y498155D01*
X578652Y496391D01*
X581328Y495283D01*
X584200Y494905D01*
X587072Y495283D01*
X589748Y496391D01*
X592045Y498155D01*
X593809Y500452D01*
X594917Y503128D01*
X595295Y506000D01*
Y510000D01*
X594917Y512872D01*
X593809Y515547D01*
X592045Y517845D01*
X589748Y519608D01*
X587072Y520717D01*
X584200Y521095D01*
D02*
G37*
G36*
X558800D02*
X555928Y520717D01*
X553252Y519608D01*
X550955Y517845D01*
X549192Y515547D01*
X548083Y512872D01*
X547705Y510000D01*
Y506000D01*
X548083Y503128D01*
X549192Y500452D01*
X550955Y498155D01*
X553252Y496391D01*
X555928Y495283D01*
X558800Y494905D01*
X561672Y495283D01*
X564347Y496391D01*
X566645Y498155D01*
X568409Y500452D01*
X569517Y503128D01*
X569895Y506000D01*
Y510000D01*
X569517Y512872D01*
X568409Y515547D01*
X566645Y517845D01*
X564347Y519608D01*
X561672Y520717D01*
X558800Y521095D01*
D02*
G37*
G36*
X533400D02*
X530528Y520717D01*
X527853Y519608D01*
X525555Y517845D01*
X523792Y515547D01*
X522683Y512872D01*
X522305Y510000D01*
Y506000D01*
X522683Y503128D01*
X523792Y500452D01*
X525555Y498155D01*
X527853Y496391D01*
X530528Y495283D01*
X533400Y494905D01*
X536272Y495283D01*
X538947Y496391D01*
X541245Y498155D01*
X543008Y500452D01*
X544117Y503128D01*
X544495Y506000D01*
Y510000D01*
X544117Y512872D01*
X543008Y515547D01*
X541245Y517845D01*
X538947Y519608D01*
X536272Y520717D01*
X533400Y521095D01*
D02*
G37*
G36*
X508000D02*
X505128Y520717D01*
X502453Y519608D01*
X500155Y517845D01*
X498391Y515547D01*
X497283Y512872D01*
X496905Y510000D01*
Y506000D01*
X497283Y503128D01*
X498391Y500452D01*
X500155Y498155D01*
X502453Y496391D01*
X505128Y495283D01*
X508000Y494905D01*
X510872Y495283D01*
X513548Y496391D01*
X515845Y498155D01*
X517608Y500452D01*
X518717Y503128D01*
X519095Y506000D01*
Y510000D01*
X518717Y512872D01*
X517608Y515547D01*
X515845Y517845D01*
X513548Y519608D01*
X510872Y520717D01*
X508000Y521095D01*
D02*
G37*
G36*
X482600D02*
X479728Y520717D01*
X477052Y519608D01*
X474755Y517845D01*
X472991Y515547D01*
X471883Y512872D01*
X471505Y510000D01*
Y506000D01*
X471883Y503128D01*
X472991Y500452D01*
X474755Y498155D01*
X477052Y496391D01*
X479728Y495283D01*
X482600Y494905D01*
X485472Y495283D01*
X488148Y496391D01*
X490445Y498155D01*
X492209Y500452D01*
X493317Y503128D01*
X493695Y506000D01*
Y510000D01*
X493317Y512872D01*
X492209Y515547D01*
X490445Y517845D01*
X488148Y519608D01*
X485472Y520717D01*
X482600Y521095D01*
D02*
G37*
G36*
X457200D02*
X454328Y520717D01*
X451652Y519608D01*
X449355Y517845D01*
X447592Y515547D01*
X446483Y512872D01*
X446105Y510000D01*
Y506000D01*
X446483Y503128D01*
X447592Y500452D01*
X449355Y498155D01*
X451652Y496391D01*
X454328Y495283D01*
X457200Y494905D01*
X460072Y495283D01*
X462747Y496391D01*
X465045Y498155D01*
X466809Y500452D01*
X467917Y503128D01*
X468295Y506000D01*
Y510000D01*
X467917Y512872D01*
X466809Y515547D01*
X465045Y517845D01*
X462747Y519608D01*
X460072Y520717D01*
X457200Y521095D01*
D02*
G37*
G36*
X391160D02*
X388288Y520717D01*
X385612Y519608D01*
X383315Y517845D01*
X381552Y515547D01*
X380443Y512872D01*
X380065Y510000D01*
Y506000D01*
X380443Y503128D01*
X381552Y500452D01*
X383315Y498155D01*
X385612Y496391D01*
X388288Y495283D01*
X391160Y494905D01*
X394032Y495283D01*
X396707Y496391D01*
X399005Y498155D01*
X400769Y500452D01*
X401877Y503128D01*
X402255Y506000D01*
Y510000D01*
X401877Y512872D01*
X400769Y515547D01*
X399005Y517845D01*
X396707Y519608D01*
X394032Y520717D01*
X391160Y521095D01*
D02*
G37*
G36*
X365760D02*
X362888Y520717D01*
X360213Y519608D01*
X357915Y517845D01*
X356152Y515547D01*
X355043Y512872D01*
X354665Y510000D01*
Y506000D01*
X355043Y503128D01*
X356152Y500452D01*
X357915Y498155D01*
X360213Y496391D01*
X362888Y495283D01*
X365760Y494905D01*
X368632Y495283D01*
X371307Y496391D01*
X373605Y498155D01*
X375368Y500452D01*
X376477Y503128D01*
X376855Y506000D01*
Y510000D01*
X376477Y512872D01*
X375368Y515547D01*
X373605Y517845D01*
X371307Y519608D01*
X368632Y520717D01*
X365760Y521095D01*
D02*
G37*
G36*
X340360D02*
X337488Y520717D01*
X334813Y519608D01*
X332515Y517845D01*
X330751Y515547D01*
X329643Y512872D01*
X329265Y510000D01*
Y506000D01*
X329643Y503128D01*
X330751Y500452D01*
X332515Y498155D01*
X334813Y496391D01*
X337488Y495283D01*
X340360Y494905D01*
X343232Y495283D01*
X345908Y496391D01*
X348205Y498155D01*
X349968Y500452D01*
X351077Y503128D01*
X351455Y506000D01*
Y510000D01*
X351077Y512872D01*
X349968Y515547D01*
X348205Y517845D01*
X345908Y519608D01*
X343232Y520717D01*
X340360Y521095D01*
D02*
G37*
G36*
X114750Y375868D02*
X112409Y375402D01*
X111803Y374997D01*
X106615D01*
X104750Y375368D01*
X102409Y374902D01*
X100424Y373576D01*
X99098Y371591D01*
X98632Y369250D01*
X99098Y366909D01*
X100424Y364924D01*
X100672Y364759D01*
Y330505D01*
X98105Y327938D01*
X97814Y327996D01*
X95472Y327531D01*
X93488Y326205D01*
X92162Y324220D01*
X91696Y321879D01*
X92162Y319538D01*
X93488Y317553D01*
X95472Y316227D01*
X97814Y315761D01*
X100155Y316227D01*
X102139Y317553D01*
X103465Y319538D01*
X103541Y319920D01*
X104000Y321000D01*
X104728Y321000D01*
X110672D01*
Y288279D01*
X100452Y278060D01*
X100160Y278118D01*
X97819Y277652D01*
X95834Y276326D01*
X94508Y274341D01*
X94043Y272000D01*
X94508Y269659D01*
X95834Y267674D01*
X97819Y266348D01*
X100160Y265882D01*
X102501Y266348D01*
X104486Y267674D01*
X105812Y269659D01*
X106278Y272000D01*
X106220Y272292D01*
X117634Y283706D01*
X117634Y283706D01*
X118518Y285029D01*
X118828Y286590D01*
Y365259D01*
X119076Y365424D01*
X120402Y367409D01*
X120868Y369750D01*
X120402Y372091D01*
X119076Y374076D01*
X117091Y375402D01*
X114750Y375868D01*
D02*
G37*
G36*
X76200Y397679D02*
X73198Y397284D01*
X70400Y396125D01*
X67998Y394282D01*
X66155Y391880D01*
X64996Y389082D01*
X64601Y386080D01*
X64996Y383078D01*
X66155Y380280D01*
X67998Y377878D01*
X70400Y376035D01*
X73198Y374876D01*
X76200Y374481D01*
X79202Y374876D01*
X82000Y376035D01*
X84402Y377878D01*
X86245Y380280D01*
X87404Y383078D01*
X87799Y386080D01*
X87404Y389082D01*
X86245Y391880D01*
X84402Y394282D01*
X82000Y396125D01*
X79202Y397284D01*
X76200Y397679D01*
D02*
G37*
G36*
X318000Y265117D02*
X315659Y264652D01*
X313674Y263326D01*
X312348Y261341D01*
X311882Y259000D01*
X312348Y256659D01*
X313674Y254674D01*
X315659Y253348D01*
X318000Y252882D01*
X318292Y252941D01*
X323922Y247311D01*
Y213202D01*
X322652Y212576D01*
X321398Y213538D01*
X318722Y214647D01*
X315850Y215025D01*
X312978Y214647D01*
X310303Y213538D01*
X308223Y211943D01*
X306953Y212301D01*
Y221175D01*
X307326Y221424D01*
X308652Y223409D01*
X309118Y225750D01*
X308652Y228091D01*
X307326Y230076D01*
X305341Y231402D01*
X303000Y231868D01*
X300659Y231402D01*
X298674Y230076D01*
X297348Y228091D01*
X296882Y225750D01*
X297348Y223409D01*
X298674Y221424D01*
X298797Y221343D01*
Y212991D01*
X297527Y212365D01*
X295998Y213538D01*
X293322Y214647D01*
X290450Y215025D01*
X287578Y214647D01*
X284902Y213538D01*
X282605Y211775D01*
X280842Y209478D01*
X279733Y206802D01*
X279629Y206008D01*
X269680D01*
X269680Y206008D01*
X268119Y205698D01*
X266796Y204814D01*
X248061Y186078D01*
X244491D01*
X244326Y186326D01*
X242341Y187652D01*
X240000Y188118D01*
X237659Y187652D01*
X235674Y186326D01*
X234348Y184341D01*
X233883Y182000D01*
X234348Y179659D01*
X235674Y177674D01*
X237659Y176348D01*
X240000Y175882D01*
X242341Y176348D01*
X244326Y177674D01*
X244491Y177922D01*
X249750D01*
X249750Y177922D01*
X251311Y178232D01*
X252634Y179116D01*
X271369Y197852D01*
X279629D01*
X279733Y197058D01*
X280842Y194382D01*
X282605Y192085D01*
X284902Y190322D01*
X287578Y189213D01*
X290450Y188835D01*
X293322Y189213D01*
X295998Y190322D01*
X297527Y191495D01*
X298797Y190869D01*
Y181825D01*
X298424Y181576D01*
X297098Y179591D01*
X296632Y177250D01*
X297098Y174909D01*
X298424Y172924D01*
X300409Y171598D01*
X302750Y171132D01*
X305091Y171598D01*
X307076Y172924D01*
X308402Y174909D01*
X308867Y177250D01*
X308402Y179591D01*
X307076Y181576D01*
X306953Y181658D01*
Y191559D01*
X308223Y191917D01*
X310303Y190322D01*
X312978Y189213D01*
X315850Y188835D01*
X318722Y189213D01*
X321398Y190322D01*
X322652Y191284D01*
X323922Y190658D01*
Y181825D01*
X323174Y181326D01*
X321848Y179341D01*
X321382Y177000D01*
X321848Y174659D01*
X323174Y172674D01*
X325159Y171348D01*
X327500Y170882D01*
X329841Y171348D01*
X331826Y172674D01*
X333152Y174659D01*
X333618Y177000D01*
X333152Y179341D01*
X332078Y180948D01*
Y191838D01*
X333281Y192246D01*
X333405Y192085D01*
X335703Y190322D01*
X338378Y189213D01*
X341250Y188835D01*
X344122Y189213D01*
X346797Y190322D01*
X349095Y192085D01*
X350858Y194382D01*
X351967Y197058D01*
X352345Y199930D01*
Y203930D01*
X351967Y206802D01*
X350858Y209478D01*
X349095Y211775D01*
X346797Y213538D01*
X344122Y214647D01*
X341250Y215025D01*
X338378Y214647D01*
X335703Y213538D01*
X333405Y211775D01*
X333281Y211614D01*
X332078Y212022D01*
Y249000D01*
X332078Y249000D01*
X331768Y250561D01*
X330884Y251884D01*
X324059Y258708D01*
X324118Y259000D01*
X323652Y261341D01*
X322326Y263326D01*
X320341Y264652D01*
X318000Y265117D01*
D02*
G37*
G36*
X118250Y221117D02*
X115909Y220652D01*
X113924Y219326D01*
X112598Y217341D01*
X112133Y215000D01*
X112598Y212659D01*
X113924Y210674D01*
X115909Y209348D01*
X118250Y208883D01*
X118542Y208941D01*
X122616Y204866D01*
X122616Y204866D01*
X122972Y204628D01*
X123097Y203364D01*
X118792Y199060D01*
X118500Y199118D01*
X116159Y198652D01*
X114174Y197326D01*
X112848Y195341D01*
X112382Y193000D01*
X112848Y190659D01*
X114174Y188674D01*
X116159Y187348D01*
X118500Y186882D01*
X120841Y187348D01*
X122826Y188674D01*
X124152Y190659D01*
X124618Y193000D01*
X124559Y193292D01*
X128689Y197422D01*
X153342D01*
X153674Y196924D01*
X155659Y195598D01*
X158000Y195133D01*
X160341Y195598D01*
X162326Y196924D01*
X163652Y198909D01*
X163900Y200156D01*
X165331Y201166D01*
X165500Y201133D01*
X167841Y201598D01*
X169826Y202924D01*
X171152Y204909D01*
X171618Y207250D01*
X171152Y209591D01*
X169826Y211576D01*
X167841Y212902D01*
X165500Y213368D01*
X163159Y212902D01*
X161552Y211828D01*
X127189D01*
X124310Y214708D01*
X124368Y215000D01*
X123902Y217341D01*
X122576Y219326D01*
X120591Y220652D01*
X118250Y221117D01*
D02*
G37*
G36*
X544450Y215025D02*
X541578Y214647D01*
X538903Y213538D01*
X536605Y211775D01*
X534841Y209478D01*
X533733Y206802D01*
X533355Y203930D01*
Y199930D01*
X533733Y197058D01*
X534841Y194382D01*
X536605Y192085D01*
X538903Y190322D01*
X541578Y189213D01*
X544450Y188835D01*
X547322Y189213D01*
X549997Y190322D01*
X552295Y192085D01*
X554058Y194382D01*
X555167Y197058D01*
X555545Y199930D01*
Y203930D01*
X555167Y206802D01*
X554058Y209478D01*
X552295Y211775D01*
X549997Y213538D01*
X547322Y214647D01*
X544450Y215025D01*
D02*
G37*
G36*
X519050D02*
X516178Y214647D01*
X513503Y213538D01*
X511205Y211775D01*
X509441Y209478D01*
X508333Y206802D01*
X507955Y203930D01*
Y199930D01*
X508333Y197058D01*
X509441Y194382D01*
X511205Y192085D01*
X513503Y190322D01*
X516178Y189213D01*
X519050Y188835D01*
X521922Y189213D01*
X524598Y190322D01*
X526895Y192085D01*
X528658Y194382D01*
X529767Y197058D01*
X530145Y199930D01*
Y203930D01*
X529767Y206802D01*
X528658Y209478D01*
X526895Y211775D01*
X524598Y213538D01*
X521922Y214647D01*
X519050Y215025D01*
D02*
G37*
G36*
X493650D02*
X490778Y214647D01*
X488102Y213538D01*
X485805Y211775D01*
X484041Y209478D01*
X482933Y206802D01*
X482555Y203930D01*
Y199930D01*
X482933Y197058D01*
X484041Y194382D01*
X485805Y192085D01*
X488102Y190322D01*
X490778Y189213D01*
X493650Y188835D01*
X496522Y189213D01*
X499198Y190322D01*
X501495Y192085D01*
X503259Y194382D01*
X504367Y197058D01*
X504745Y199930D01*
Y203930D01*
X504367Y206802D01*
X503259Y209478D01*
X501495Y211775D01*
X499198Y213538D01*
X496522Y214647D01*
X493650Y215025D01*
D02*
G37*
G36*
X468250D02*
X465378Y214647D01*
X462702Y213538D01*
X460405Y211775D01*
X458642Y209478D01*
X457533Y206802D01*
X457155Y203930D01*
Y199930D01*
X457533Y197058D01*
X458642Y194382D01*
X460405Y192085D01*
X462702Y190322D01*
X465378Y189213D01*
X468250Y188835D01*
X471122Y189213D01*
X473797Y190322D01*
X476095Y192085D01*
X477859Y194382D01*
X478967Y197058D01*
X479345Y199930D01*
Y203930D01*
X478967Y206802D01*
X477859Y209478D01*
X476095Y211775D01*
X473797Y213538D01*
X471122Y214647D01*
X468250Y215025D01*
D02*
G37*
G36*
X417450D02*
X414578Y214647D01*
X411903Y213538D01*
X409605Y211775D01*
X407841Y209478D01*
X406733Y206802D01*
X406355Y203930D01*
Y199930D01*
X406733Y197058D01*
X407841Y194382D01*
X409605Y192085D01*
X411903Y190322D01*
X414578Y189213D01*
X417450Y188835D01*
X420322Y189213D01*
X422998Y190322D01*
X425295Y192085D01*
X427058Y194382D01*
X428167Y197058D01*
X428545Y199930D01*
Y203930D01*
X428167Y206802D01*
X427058Y209478D01*
X425295Y211775D01*
X422998Y213538D01*
X420322Y214647D01*
X417450Y215025D01*
D02*
G37*
G36*
X392050D02*
X389178Y214647D01*
X386502Y213538D01*
X384205Y211775D01*
X382441Y209478D01*
X381333Y206802D01*
X380955Y203930D01*
Y199930D01*
X381333Y197058D01*
X382441Y194382D01*
X384205Y192085D01*
X386502Y190322D01*
X389178Y189213D01*
X392050Y188835D01*
X394922Y189213D01*
X397598Y190322D01*
X399895Y192085D01*
X401659Y194382D01*
X402767Y197058D01*
X403145Y199930D01*
Y203930D01*
X402767Y206802D01*
X401659Y209478D01*
X399895Y211775D01*
X397598Y213538D01*
X394922Y214647D01*
X392050Y215025D01*
D02*
G37*
G36*
X366650D02*
X363778Y214647D01*
X361102Y213538D01*
X358805Y211775D01*
X357042Y209478D01*
X355933Y206802D01*
X355555Y203930D01*
Y199930D01*
X355933Y197058D01*
X357042Y194382D01*
X358805Y192085D01*
X361102Y190322D01*
X363778Y189213D01*
X366650Y188835D01*
X369522Y189213D01*
X372197Y190322D01*
X374495Y192085D01*
X376259Y194382D01*
X377367Y197058D01*
X377745Y199930D01*
Y203930D01*
X377367Y206802D01*
X376259Y209478D01*
X374495Y211775D01*
X372197Y213538D01*
X369522Y214647D01*
X366650Y215025D01*
D02*
G37*
G36*
X207840Y216458D02*
X205499Y215992D01*
X203514Y214666D01*
X202188Y212681D01*
X201723Y210340D01*
Y203374D01*
X196466Y198118D01*
X176000D01*
X173659Y197652D01*
X171674Y196326D01*
X170348Y194341D01*
X169883Y192000D01*
X170348Y189659D01*
X171674Y187674D01*
X173659Y186348D01*
X176000Y185882D01*
X199000D01*
X201341Y186348D01*
X203326Y187674D01*
X212166Y196514D01*
X213492Y198499D01*
X213958Y200840D01*
Y210340D01*
X213492Y212681D01*
X212166Y214666D01*
X210181Y215992D01*
X207840Y216458D01*
D02*
G37*
G36*
X569850Y138825D02*
X566978Y138447D01*
X564302Y137338D01*
X562005Y135575D01*
X560242Y133278D01*
X559133Y130602D01*
X558755Y127730D01*
Y123730D01*
X559133Y120858D01*
X560242Y118182D01*
X562005Y115885D01*
X564302Y114122D01*
X566978Y113013D01*
X569850Y112635D01*
X572722Y113013D01*
X575397Y114122D01*
X577695Y115885D01*
X579459Y118182D01*
X580567Y120858D01*
X580945Y123730D01*
Y127730D01*
X580567Y130602D01*
X579459Y133278D01*
X577695Y135575D01*
X575397Y137338D01*
X572722Y138447D01*
X569850Y138825D01*
D02*
G37*
G36*
X544450D02*
X541578Y138447D01*
X538903Y137338D01*
X536605Y135575D01*
X534841Y133278D01*
X533733Y130602D01*
X533355Y127730D01*
Y123730D01*
X533733Y120858D01*
X534841Y118182D01*
X536605Y115885D01*
X538903Y114122D01*
X541578Y113013D01*
X544450Y112635D01*
X547322Y113013D01*
X549997Y114122D01*
X552295Y115885D01*
X554058Y118182D01*
X555167Y120858D01*
X555545Y123730D01*
Y127730D01*
X555167Y130602D01*
X554058Y133278D01*
X552295Y135575D01*
X549997Y137338D01*
X547322Y138447D01*
X544450Y138825D01*
D02*
G37*
G36*
X480000Y167118D02*
X479569Y167032D01*
X476895Y167027D01*
X476316Y166910D01*
X475731Y166794D01*
X475728Y166792D01*
X475725Y166791D01*
X475235Y166462D01*
X474739Y166131D01*
X474737Y166128D01*
X474734Y166126D01*
X474404Y165629D01*
X474076Y165138D01*
X474075Y165135D01*
X474073Y165133D01*
X473958Y164548D01*
X473843Y163968D01*
X473843Y134524D01*
X473921Y134132D01*
X473947Y133733D01*
X474036Y133552D01*
X474076Y133354D01*
X474298Y133021D01*
X474475Y132662D01*
X475187Y131735D01*
X475987Y129803D01*
X476286Y127529D01*
Y123931D01*
X475987Y121657D01*
X475187Y119725D01*
X474475Y118798D01*
X474298Y118439D01*
X474076Y118106D01*
X474036Y117908D01*
X473947Y117727D01*
X473921Y117328D01*
X473843Y116936D01*
X473843Y103509D01*
X470107Y99773D01*
X469444Y98781D01*
X469211Y97610D01*
X469211Y97610D01*
Y93897D01*
X469132Y93500D01*
X469211Y93103D01*
Y89414D01*
X469444Y88243D01*
X470107Y87251D01*
X471100Y86588D01*
X472270Y86355D01*
X506530D01*
X507701Y86588D01*
X508693Y87251D01*
X508693Y87251D01*
X515666Y94223D01*
X516329Y95216D01*
X516562Y96386D01*
X516562Y96386D01*
X516562Y112000D01*
X517516Y112837D01*
X519050Y112635D01*
X521922Y113013D01*
X524598Y114122D01*
X526895Y115885D01*
X528658Y118182D01*
X529767Y120858D01*
X530145Y123730D01*
Y127730D01*
X529767Y130602D01*
X528658Y133278D01*
X526895Y135575D01*
X524598Y137338D01*
X521922Y138447D01*
X519050Y138825D01*
X517516Y138623D01*
X516561Y139460D01*
X516561Y163142D01*
X516561Y163143D01*
X516561Y163145D01*
X516445Y163724D01*
X516328Y164312D01*
X516328Y164313D01*
X516327Y164315D01*
X516003Y164799D01*
X515665Y165305D01*
X515664Y165305D01*
X515663Y165307D01*
X514764Y166204D01*
X514763Y166205D01*
X514762Y166206D01*
X514257Y166542D01*
X513771Y166866D01*
X513770Y166866D01*
X513769Y166867D01*
X513180Y166983D01*
X512601Y167097D01*
X512599Y167097D01*
X512598Y167097D01*
X480422Y167034D01*
X480000Y167118D01*
D02*
G37*
G36*
X442850Y138825D02*
X439978Y138447D01*
X437303Y137338D01*
X435005Y135575D01*
X433242Y133278D01*
X432133Y130602D01*
X431755Y127730D01*
Y123730D01*
X432133Y120858D01*
X433242Y118182D01*
X435005Y115885D01*
X437303Y114122D01*
X439978Y113013D01*
X442850Y112635D01*
X445722Y113013D01*
X448397Y114122D01*
X450695Y115885D01*
X452458Y118182D01*
X453567Y120858D01*
X453945Y123730D01*
Y127730D01*
X453567Y130602D01*
X452458Y133278D01*
X450695Y135575D01*
X448397Y137338D01*
X445722Y138447D01*
X442850Y138825D01*
D02*
G37*
G36*
X417450D02*
X414578Y138447D01*
X411903Y137338D01*
X409605Y135575D01*
X407841Y133278D01*
X406733Y130602D01*
X406355Y127730D01*
Y123730D01*
X406733Y120858D01*
X407841Y118182D01*
X409605Y115885D01*
X411903Y114122D01*
X414578Y113013D01*
X417450Y112635D01*
X420322Y113013D01*
X422998Y114122D01*
X425295Y115885D01*
X427058Y118182D01*
X428167Y120858D01*
X428545Y123730D01*
Y127730D01*
X428167Y130602D01*
X427058Y133278D01*
X425295Y135575D01*
X422998Y137338D01*
X420322Y138447D01*
X417450Y138825D01*
D02*
G37*
G36*
X392050D02*
X389178Y138447D01*
X386502Y137338D01*
X384205Y135575D01*
X382441Y133278D01*
X381333Y130602D01*
X380955Y127730D01*
Y123730D01*
X381333Y120858D01*
X382441Y118182D01*
X384205Y115885D01*
X386502Y114122D01*
X389178Y113013D01*
X392050Y112635D01*
X394922Y113013D01*
X397598Y114122D01*
X399895Y115885D01*
X401659Y118182D01*
X402767Y120858D01*
X403145Y123730D01*
Y127730D01*
X402767Y130602D01*
X401659Y133278D01*
X399895Y135575D01*
X397598Y137338D01*
X394922Y138447D01*
X392050Y138825D01*
D02*
G37*
G36*
X366650D02*
X363778Y138447D01*
X361102Y137338D01*
X358805Y135575D01*
X357042Y133278D01*
X355933Y130602D01*
X355555Y127730D01*
Y123730D01*
X355933Y120858D01*
X357042Y118182D01*
X358805Y115885D01*
X361102Y114122D01*
X363778Y113013D01*
X366650Y112635D01*
X369522Y113013D01*
X372197Y114122D01*
X374495Y115885D01*
X376259Y118182D01*
X377367Y120858D01*
X377745Y123730D01*
Y127730D01*
X377367Y130602D01*
X376259Y133278D01*
X374495Y135575D01*
X372197Y137338D01*
X369522Y138447D01*
X366650Y138825D01*
D02*
G37*
G36*
X341250D02*
X338378Y138447D01*
X335703Y137338D01*
X333405Y135575D01*
X331642Y133278D01*
X330533Y130602D01*
X330155Y127730D01*
Y123730D01*
X330533Y120858D01*
X331642Y118182D01*
X333405Y115885D01*
X335703Y114122D01*
X338378Y113013D01*
X341250Y112635D01*
X344122Y113013D01*
X346797Y114122D01*
X349095Y115885D01*
X350858Y118182D01*
X351967Y120858D01*
X352345Y123730D01*
Y127730D01*
X351967Y130602D01*
X350858Y133278D01*
X349095Y135575D01*
X346797Y137338D01*
X344122Y138447D01*
X341250Y138825D01*
D02*
G37*
G36*
X315850D02*
X312978Y138447D01*
X310303Y137338D01*
X308005Y135575D01*
X306241Y133278D01*
X305133Y130602D01*
X304755Y127730D01*
Y123730D01*
X305133Y120858D01*
X306241Y118182D01*
X308005Y115885D01*
X310303Y114122D01*
X312978Y113013D01*
X315850Y112635D01*
X318722Y113013D01*
X321398Y114122D01*
X323695Y115885D01*
X325458Y118182D01*
X326567Y120858D01*
X326945Y123730D01*
Y127730D01*
X326567Y130602D01*
X325458Y133278D01*
X323695Y135575D01*
X321398Y137338D01*
X318722Y138447D01*
X315850Y138825D01*
D02*
G37*
G36*
X290450D02*
X287578Y138447D01*
X284902Y137338D01*
X282605Y135575D01*
X280842Y133278D01*
X279733Y130602D01*
X279355Y127730D01*
Y123730D01*
X279733Y120858D01*
X280842Y118182D01*
X282605Y115885D01*
X284902Y114122D01*
X287578Y113013D01*
X290450Y112635D01*
X293322Y113013D01*
X295998Y114122D01*
X298295Y115885D01*
X300058Y118182D01*
X301167Y120858D01*
X301545Y123730D01*
Y127730D01*
X301167Y130602D01*
X300058Y133278D01*
X298295Y135575D01*
X295998Y137338D01*
X293322Y138447D01*
X290450Y138825D01*
D02*
G37*
%LPD*%
G36*
X513503Y163142D02*
X513503Y137338D01*
X513503Y137338D01*
X511205Y135575D01*
X509441Y133278D01*
X508333Y130602D01*
X507955Y127730D01*
Y123730D01*
X508333Y120858D01*
X509441Y118182D01*
X511205Y115885D01*
X513503Y114122D01*
X513503Y114121D01*
X513503Y96386D01*
X506530Y89414D01*
X472270D01*
Y97610D01*
X476902Y102242D01*
X476902Y116936D01*
X477859Y118182D01*
X478967Y120858D01*
X479345Y123730D01*
Y127730D01*
X478967Y130602D01*
X477859Y133278D01*
X476902Y134524D01*
X476902Y163968D01*
X512604Y164039D01*
X513503Y163142D01*
D02*
G37*
%LPC*%
G36*
X493650Y138825D02*
X490778Y138447D01*
X488102Y137338D01*
X485805Y135575D01*
X484041Y133278D01*
X482933Y130602D01*
X482555Y127730D01*
Y123730D01*
X482933Y120858D01*
X484041Y118182D01*
X485805Y115885D01*
X488102Y114122D01*
X490778Y113013D01*
X493650Y112635D01*
X496522Y113013D01*
X499198Y114122D01*
X501495Y115885D01*
X503259Y118182D01*
X504367Y120858D01*
X504745Y123730D01*
Y127730D01*
X504367Y130602D01*
X503259Y133278D01*
X501495Y135575D01*
X499198Y137338D01*
X496522Y138447D01*
X493650Y138825D01*
D02*
G37*
G36*
X36900Y483940D02*
X13900D01*
Y460940D01*
X36900D01*
Y483940D01*
D02*
G37*
G36*
Y397580D02*
X13900D01*
Y374580D01*
X36900D01*
Y397580D01*
D02*
G37*
G36*
X25400Y353599D02*
X22398Y353204D01*
X19600Y352045D01*
X17198Y350202D01*
X15355Y347800D01*
X14196Y345002D01*
X13801Y342000D01*
X14196Y338998D01*
X15355Y336200D01*
X17198Y333798D01*
X19600Y331955D01*
X22398Y330796D01*
X25400Y330401D01*
X28402Y330796D01*
X31200Y331955D01*
X33602Y333798D01*
X35445Y336200D01*
X36604Y338998D01*
X36999Y342000D01*
X36604Y345002D01*
X35445Y347800D01*
X33602Y350202D01*
X31200Y352045D01*
X28402Y353204D01*
X25400Y353599D01*
D02*
G37*
G36*
Y328199D02*
X22398Y327804D01*
X19600Y326645D01*
X17198Y324802D01*
X15355Y322400D01*
X14196Y319602D01*
X13801Y316600D01*
X14196Y313598D01*
X15355Y310800D01*
X17198Y308398D01*
X19600Y306555D01*
X22398Y305396D01*
X25400Y305001D01*
X28402Y305396D01*
X31200Y306555D01*
X33602Y308398D01*
X35445Y310800D01*
X36604Y313598D01*
X36999Y316600D01*
X36604Y319602D01*
X35445Y322400D01*
X33602Y324802D01*
X31200Y326645D01*
X28402Y327804D01*
X25400Y328199D01*
D02*
G37*
G36*
X28995Y243118D02*
X14995D01*
X12654Y242652D01*
X10669Y241326D01*
X9343Y239341D01*
X8878Y237000D01*
Y231000D01*
X9343Y228659D01*
X10669Y226674D01*
X12654Y225348D01*
X14995Y224883D01*
X28995D01*
X31336Y225348D01*
X33321Y226674D01*
X34647Y228659D01*
X35113Y231000D01*
Y237000D01*
X34647Y239341D01*
X33321Y241326D01*
X31336Y242652D01*
X28995Y243118D01*
D02*
G37*
G36*
Y177118D02*
X14995D01*
X12654Y176652D01*
X10669Y175326D01*
X9343Y173341D01*
X8878Y171000D01*
Y165000D01*
X9343Y162659D01*
X10669Y160674D01*
X12654Y159348D01*
X14995Y158883D01*
X28995D01*
X31336Y159348D01*
X33321Y160674D01*
X34647Y162659D01*
X35113Y165000D01*
Y171000D01*
X34647Y173341D01*
X33321Y175326D01*
X31336Y176652D01*
X28995Y177118D01*
D02*
G37*
G36*
X519000Y38400D02*
X497000D01*
Y12400D01*
X519000D01*
Y38400D01*
D02*
G37*
G36*
X584200Y38495D02*
X581328Y38117D01*
X578652Y37009D01*
X576355Y35245D01*
X574591Y32947D01*
X573483Y30272D01*
X573105Y27400D01*
Y23400D01*
X573483Y20528D01*
X574591Y17852D01*
X576355Y15555D01*
X578652Y13792D01*
X581328Y12683D01*
X584200Y12305D01*
X587072Y12683D01*
X589748Y13792D01*
X592045Y15555D01*
X593809Y17852D01*
X594917Y20528D01*
X595295Y23400D01*
Y27400D01*
X594917Y30272D01*
X593809Y32947D01*
X592045Y35245D01*
X589748Y37009D01*
X587072Y38117D01*
X584200Y38495D01*
D02*
G37*
G36*
X558800D02*
X555928Y38117D01*
X553252Y37009D01*
X550955Y35245D01*
X549192Y32947D01*
X548083Y30272D01*
X547705Y27400D01*
Y23400D01*
X548083Y20528D01*
X549192Y17852D01*
X550955Y15555D01*
X553252Y13792D01*
X555928Y12683D01*
X558800Y12305D01*
X561672Y12683D01*
X564347Y13792D01*
X566645Y15555D01*
X568409Y17852D01*
X569517Y20528D01*
X569895Y23400D01*
Y27400D01*
X569517Y30272D01*
X568409Y32947D01*
X566645Y35245D01*
X564347Y37009D01*
X561672Y38117D01*
X558800Y38495D01*
D02*
G37*
G36*
X533400D02*
X530528Y38117D01*
X527853Y37009D01*
X525555Y35245D01*
X523792Y32947D01*
X522683Y30272D01*
X522305Y27400D01*
Y23400D01*
X522683Y20528D01*
X523792Y17852D01*
X525555Y15555D01*
X527853Y13792D01*
X530528Y12683D01*
X533400Y12305D01*
X536272Y12683D01*
X538947Y13792D01*
X541245Y15555D01*
X543008Y17852D01*
X544117Y20528D01*
X544495Y23400D01*
Y27400D01*
X544117Y30272D01*
X543008Y32947D01*
X541245Y35245D01*
X538947Y37009D01*
X536272Y38117D01*
X533400Y38495D01*
D02*
G37*
G36*
X457200D02*
X454328Y38117D01*
X451652Y37009D01*
X449355Y35245D01*
X447592Y32947D01*
X446483Y30272D01*
X446105Y27400D01*
Y23400D01*
X446483Y20528D01*
X447592Y17852D01*
X449355Y15555D01*
X451652Y13792D01*
X454328Y12683D01*
X457200Y12305D01*
X460072Y12683D01*
X462747Y13792D01*
X465045Y15555D01*
X466809Y17852D01*
X467917Y20528D01*
X468295Y23400D01*
Y27400D01*
X467917Y30272D01*
X466809Y32947D01*
X465045Y35245D01*
X462747Y37009D01*
X460072Y38117D01*
X457200Y38495D01*
D02*
G37*
G36*
X431800D02*
X428928Y38117D01*
X426253Y37009D01*
X423955Y35245D01*
X422192Y32947D01*
X421083Y30272D01*
X420705Y27400D01*
Y23400D01*
X421083Y20528D01*
X422192Y17852D01*
X423955Y15555D01*
X426253Y13792D01*
X428928Y12683D01*
X431800Y12305D01*
X434672Y12683D01*
X437347Y13792D01*
X439645Y15555D01*
X441409Y17852D01*
X442517Y20528D01*
X442895Y23400D01*
Y27400D01*
X442517Y30272D01*
X441409Y32947D01*
X439645Y35245D01*
X437347Y37009D01*
X434672Y38117D01*
X431800Y38495D01*
D02*
G37*
G36*
X148000Y431695D02*
X144000D01*
X141128Y431317D01*
X138453Y430209D01*
X136155Y428445D01*
X134391Y426147D01*
X133283Y423472D01*
X132905Y420600D01*
X133283Y417728D01*
X134391Y415053D01*
X136155Y412755D01*
X138453Y410992D01*
X141128Y409883D01*
X144000Y409505D01*
X148000D01*
X150872Y409883D01*
X153547Y410992D01*
X155845Y412755D01*
X157608Y415053D01*
X158717Y417728D01*
X159095Y420600D01*
X158717Y423472D01*
X157608Y426147D01*
X155845Y428445D01*
X153547Y430209D01*
X150872Y431317D01*
X148000Y431695D01*
D02*
G37*
G36*
Y406295D02*
X144000D01*
X141128Y405917D01*
X138453Y404809D01*
X136155Y403045D01*
X134391Y400747D01*
X133283Y398072D01*
X132905Y395200D01*
X133283Y392328D01*
X134391Y389653D01*
X136155Y387355D01*
X138453Y385592D01*
X141128Y384483D01*
X144000Y384105D01*
X148000D01*
X150872Y384483D01*
X153547Y385592D01*
X155845Y387355D01*
X157608Y389653D01*
X158717Y392328D01*
X159095Y395200D01*
X158717Y398072D01*
X157608Y400747D01*
X155845Y403045D01*
X153547Y404809D01*
X150872Y405917D01*
X148000Y406295D01*
D02*
G37*
%LPD*%
D10*
X240000Y182000D02*
X249750D01*
X318000Y259000D02*
X318000D01*
X328000Y249000D01*
Y177500D02*
Y249000D01*
X327500Y177000D02*
X328000Y177500D01*
X611000Y280000D02*
Y461000D01*
X596000Y476000D02*
X611000Y461000D01*
Y280000D02*
X655000Y236000D01*
Y162250D02*
Y236000D01*
X577000Y255000D02*
X595000Y237000D01*
X577000Y326000D02*
X603000Y352000D01*
X577000Y255000D02*
Y326000D01*
X603000Y352000D02*
Y451410D01*
X595000Y237000D02*
X627250D01*
X619900Y331350D02*
X676007Y275243D01*
Y170947D02*
Y275243D01*
X662061Y157000D02*
X676007Y170947D01*
X619900Y331350D02*
Y461088D01*
X571594Y407594D02*
Y425406D01*
X558000Y439000D02*
X571594Y425406D01*
X213000Y400000D02*
X578000D01*
X239000Y439000D02*
X558000D01*
X328257Y413000D02*
X547000D01*
X325257Y410000D02*
X328257Y413000D01*
X623000Y464188D02*
Y465000D01*
X619900Y461088D02*
X623000Y464188D01*
X588410Y466000D02*
X603000Y451410D01*
X553000Y426000D02*
X562000Y417000D01*
X323000Y426000D02*
X553000D01*
X325000Y410000D02*
X325257D01*
X213360Y505140D02*
X252500Y466000D01*
X588410D01*
X207000Y471000D02*
X239000Y439000D01*
X627250Y237000D02*
X640500Y223750D01*
X620650Y127900D02*
X655000Y162250D01*
X263000Y476000D02*
X596000D01*
X250260Y488740D02*
Y514763D01*
Y488740D02*
X263000Y476000D01*
X173000Y471000D02*
X207000D01*
X76200Y472440D02*
X117560D01*
X144000Y446000D01*
X146000D01*
X148000D02*
X173000Y471000D01*
X146000Y446000D02*
X148000D01*
X277000Y491250D02*
X277125Y491125D01*
X300085D02*
X314960Y506000D01*
X277125Y491125D02*
X300085D01*
X242523Y522500D02*
X250260Y514763D01*
X200460Y522500D02*
X242523D01*
X620650Y125730D02*
Y127900D01*
X640500Y171750D02*
Y223750D01*
X595250Y126500D02*
X640500Y171750D01*
X114750Y286590D02*
Y369750D01*
X100160Y272000D02*
X114750Y286590D01*
X187960Y510000D02*
X200460Y522500D01*
X104750Y328815D02*
Y369250D01*
X97814Y321879D02*
X104750Y328815D01*
X269680Y201930D02*
X290450D01*
X249750Y182000D02*
X269680Y201930D01*
X125500Y207750D02*
X165000D01*
X165500Y207250D01*
X127000Y201500D02*
X157750D01*
X118500Y193000D02*
X127000Y201500D01*
X157750D02*
X158000Y201250D01*
X118250Y215000D02*
X125500Y207750D01*
X314960Y506000D02*
Y508000D01*
X213360Y505140D02*
Y508000D01*
X595250Y125730D02*
Y126500D01*
X187960Y508000D02*
Y510000D01*
X302875Y225625D02*
X303000Y225750D01*
X302875Y177375D02*
Y225625D01*
X302750Y177250D02*
X302875Y177375D01*
D11*
X590916Y182000D02*
X602000D01*
X582350Y190566D02*
X590916Y182000D01*
X582350Y190566D02*
Y222650D01*
X582000Y223000D02*
X582350Y222650D01*
D12*
X475250Y93500D02*
Y93750D01*
D26*
X236500Y81500D02*
D03*
D63*
X597500Y262500D02*
D03*
Y307500D02*
D03*
X662500D02*
D03*
X236500Y16500D02*
D03*
X191500D02*
D03*
Y81500D02*
D03*
D64*
X662500Y262500D02*
D03*
D72*
X176000Y192000D02*
X199000D01*
X207840Y200840D02*
Y210340D01*
X199000Y192000D02*
X207840Y200840D01*
D73*
X591000Y369000D02*
Y435000D01*
X557000Y248000D02*
Y335000D01*
X591000Y369000D01*
X557000Y248000D02*
X582000Y223000D01*
X572000Y454000D02*
X591000Y435000D01*
X214000Y484000D02*
X244000Y454000D01*
X572000D01*
D75*
X152400Y508000D02*
D03*
D76*
X21000Y24000D02*
D03*
Y131000D02*
D03*
D77*
X187960Y508000D02*
D03*
X213360D02*
D03*
X238760D02*
D03*
X264160D02*
D03*
X289560D02*
D03*
X314960D02*
D03*
X340360D02*
D03*
X365760D02*
D03*
X391160D02*
D03*
X457200Y25400D02*
D03*
X431800D02*
D03*
X406400D02*
D03*
X381000D02*
D03*
X355600D02*
D03*
X330200D02*
D03*
X304800D02*
D03*
X457200Y508000D02*
D03*
X482600D02*
D03*
X508000D02*
D03*
X533400D02*
D03*
X558800D02*
D03*
X584200D02*
D03*
X609600D02*
D03*
X533400Y25400D02*
D03*
X558800D02*
D03*
X584200D02*
D03*
X609600D02*
D03*
X635000D02*
D03*
X141600Y88000D02*
D03*
X167000D02*
D03*
X290450Y125730D02*
D03*
X315850D02*
D03*
X341250D02*
D03*
X366650D02*
D03*
X392050D02*
D03*
X417450D02*
D03*
X442850D02*
D03*
X468250D02*
D03*
X493650D02*
D03*
X519050D02*
D03*
X544450D02*
D03*
X569850D02*
D03*
X595250D02*
D03*
X290450Y201930D02*
D03*
X315850D02*
D03*
X341250D02*
D03*
X366650D02*
D03*
X392050D02*
D03*
X417450D02*
D03*
X442850D02*
D03*
X468250D02*
D03*
X493650D02*
D03*
X519050D02*
D03*
X544450D02*
D03*
X569850D02*
D03*
X595250D02*
D03*
X620650Y125730D02*
D03*
D78*
X416560Y508000D02*
D03*
X279400Y25400D02*
D03*
X635000Y508000D02*
D03*
X508000Y25400D02*
D03*
X116200Y88000D02*
D03*
X620650Y201930D02*
D03*
D79*
X139700Y25400D02*
D03*
X660400Y76200D02*
D03*
Y355600D02*
D03*
D80*
X76200Y497840D02*
D03*
X50800D02*
D03*
X25400D02*
D03*
X76200Y472440D02*
D03*
X50800D02*
D03*
X76200Y411480D02*
D03*
X50800D02*
D03*
X25400D02*
D03*
X76200Y386080D02*
D03*
X50800D02*
D03*
X25400Y316600D02*
D03*
X50800D02*
D03*
X25400Y342000D02*
D03*
D81*
Y472440D02*
D03*
Y386080D02*
D03*
X50800Y342000D02*
D03*
D82*
X146000Y446000D02*
D03*
X662000Y469000D02*
D03*
D83*
X146000Y420600D02*
D03*
Y395200D02*
D03*
Y369800D02*
D03*
X662000Y443600D02*
D03*
Y418200D02*
D03*
D84*
X21995Y234000D02*
D03*
Y168000D02*
D03*
D85*
X299000Y415000D02*
D03*
X55750Y522000D02*
D03*
X106000Y157000D02*
D03*
X113000Y146000D02*
D03*
X106000D02*
D03*
X99000D02*
D03*
X121000Y169000D02*
D03*
X133000Y162000D02*
D03*
Y169000D02*
D03*
X388000Y490000D02*
D03*
X379000D02*
D03*
X388000Y484000D02*
D03*
X379000D02*
D03*
X267780Y245280D02*
D03*
X390000Y388000D02*
D03*
Y381000D02*
D03*
X379000Y388000D02*
D03*
X318000Y259000D02*
D03*
X577000Y376000D02*
D03*
Y382000D02*
D03*
X615000Y61000D02*
D03*
Y69000D02*
D03*
X679000Y116000D02*
D03*
X662061Y157000D02*
D03*
X480000Y161000D02*
D03*
X445250Y46000D02*
D03*
X403000Y64000D02*
D03*
X412000D02*
D03*
X338344Y57665D02*
D03*
X108000Y415000D02*
D03*
X104000Y409000D02*
D03*
X151000Y133000D02*
D03*
X571594Y407594D02*
D03*
X547000Y413000D02*
D03*
X578000Y400000D02*
D03*
X577000Y388000D02*
D03*
X562000Y417000D02*
D03*
X323000Y426000D02*
D03*
X213000Y400000D02*
D03*
X325000Y410000D02*
D03*
X379000Y381000D02*
D03*
X214000Y484000D02*
D03*
X623000Y465000D02*
D03*
X198000Y452000D02*
D03*
X197000Y430000D02*
D03*
X183750Y426000D02*
D03*
X167000Y411000D02*
D03*
X602000Y182000D02*
D03*
X277000Y491250D02*
D03*
X176000Y192000D02*
D03*
Y208000D02*
D03*
X86000Y101000D02*
D03*
X421000Y64000D02*
D03*
X58000Y452000D02*
D03*
X632000Y176000D02*
D03*
Y186000D02*
D03*
X306000Y80000D02*
D03*
X255000Y122000D02*
D03*
X370006Y66883D02*
D03*
X41160Y283000D02*
D03*
X12000Y284000D02*
D03*
X86000Y111000D02*
D03*
X58621Y221133D02*
D03*
X60000Y234750D02*
D03*
X196000Y209000D02*
D03*
X80000Y221327D02*
D03*
X208000Y249250D02*
D03*
X452000Y111830D02*
D03*
X405648D02*
D03*
X189500Y131250D02*
D03*
X133000Y176000D02*
D03*
X84000Y293000D02*
D03*
X447500Y217750D02*
D03*
X478000Y252000D02*
D03*
X397750Y251750D02*
D03*
X108500Y249500D02*
D03*
X140000Y224160D02*
D03*
X150000Y272250D02*
D03*
X234000Y199500D02*
D03*
X179750Y288000D02*
D03*
X219000Y328250D02*
D03*
X272000Y341750D02*
D03*
X453830Y88840D02*
D03*
X398000Y86250D02*
D03*
X195000Y142500D02*
D03*
X165250Y132000D02*
D03*
X80750Y249500D02*
D03*
X79750Y181750D02*
D03*
X111000Y408750D02*
D03*
X263250Y57000D02*
D03*
X306000D02*
D03*
X330750Y57750D02*
D03*
X465750Y42500D02*
D03*
X97814Y321879D02*
D03*
X104750Y369250D02*
D03*
X100160Y272000D02*
D03*
X114750Y369750D02*
D03*
X240000Y182000D02*
D03*
X475250Y93500D02*
D03*
X207840Y210340D02*
D03*
X165500Y207250D02*
D03*
X158000Y201250D02*
D03*
X118250Y215000D02*
D03*
X118500Y193000D02*
D03*
X327500Y177000D02*
D03*
X302750Y177250D02*
D03*
X303000Y225750D02*
D03*
M02*
