G04*
G04 #@! TF.GenerationSoftware,Altium Limited,Altium Designer,20.1.14 (287)*
G04*
G04 Layer_Color=16711935*
%FSLAX44Y44*%
%MOMM*%
G71*
G04*
G04 #@! TF.SameCoordinates,62FEBE6E-F3EC-4242-810F-CB492347D0CA*
G04*
G04*
G04 #@! TF.FilePolarity,Positive*
G04*
G01*
G75*
%ADD14C,0.2540*%
%ADD86C,1.0160*%
%ADD87C,0.5080*%
%ADD88C,0.7000*%
%ADD89C,0.1524*%
D14*
X0Y-450850D02*
X15240Y-445770D01*
X0Y-450850D02*
X15240Y-455930D01*
X645160D02*
X660400Y-450850D01*
X645160Y-445770D02*
X660400Y-450850D01*
X0D02*
X294141D01*
X358131D02*
X660400D01*
X0Y-453390D02*
Y-7620D01*
X660400Y-453390D02*
Y315060D01*
X0Y-406654D02*
X15240Y-401574D01*
X0Y-406654D02*
X15240Y-411734D01*
X619760D02*
X635000Y-406654D01*
X619760Y-401574D02*
X635000Y-406654D01*
X0D02*
X281441D01*
X345431D02*
X635000D01*
X0Y-409194D02*
Y-7620D01*
X635000Y-409194D02*
Y494460D01*
X0Y-344678D02*
X15240Y-339598D01*
X0Y-344678D02*
X15240Y-349758D01*
X492760D02*
X508000Y-344678D01*
X492760Y-339598D02*
X508000Y-344678D01*
X0D02*
X217941D01*
X281931D02*
X508000D01*
X0Y-347218D02*
Y-7620D01*
X508000Y-347218D02*
Y11860D01*
X0Y-289306D02*
X15240Y-284226D01*
X0Y-289306D02*
X15240Y-294386D01*
X401320D02*
X416560Y-289306D01*
X401320Y-284226D02*
X416560Y-289306D01*
X0D02*
X173491D01*
X234941D02*
X416560D01*
X0Y-291846D02*
Y-7620D01*
X416560Y-291846D02*
Y494460D01*
X0Y-237490D02*
X15240Y-232410D01*
X0Y-237490D02*
X15240Y-242570D01*
X264160D02*
X279400Y-237490D01*
X264160Y-232410D02*
X279400Y-237490D01*
X0D02*
X106180D01*
X165092D02*
X279400D01*
X0Y-240030D02*
Y-7620D01*
X279400Y-240030D02*
Y11860D01*
X0Y-182880D02*
X15240Y-177800D01*
X0Y-182880D02*
X15240Y-187960D01*
X137160D02*
X152400Y-182880D01*
X137160Y-177800D02*
X152400Y-182880D01*
X0D02*
X47759D01*
X96513D02*
X152400D01*
X0Y-185420D02*
Y-7620D01*
X152400Y-185420D02*
Y488460D01*
X0Y-125476D02*
X15240Y-120396D01*
X0Y-125476D02*
X15240Y-130556D01*
X124460D02*
X139700Y-125476D01*
X124460Y-120396D02*
X139700Y-125476D01*
X0D02*
X41409D01*
X90163D02*
X139700D01*
X0Y-128016D02*
Y-7620D01*
X139700Y-128016D02*
Y-15140D01*
X21000Y-32512D02*
X36240Y-27432D01*
X21000Y-32512D02*
X36240Y-37592D01*
X-15240D02*
X0Y-32512D01*
X-15240Y-27432D02*
X0Y-32512D01*
X21000D02*
X46400D01*
X-25400D02*
X0D01*
Y-35052D02*
Y-7620D01*
X21000Y-35052D02*
Y460D01*
X25400Y-76962D02*
X40640Y-71882D01*
X25400Y-76962D02*
X40640Y-82042D01*
X-15240D02*
X0Y-76962D01*
X-15240Y-71882D02*
X0Y-76962D01*
X25400D02*
X50800D01*
X-25400D02*
X0D01*
Y-79502D02*
Y-7620D01*
X25400Y-79502D02*
Y460400D01*
X-92710Y91440D02*
X-87630Y76200D01*
X-82550Y91440D01*
X-87630Y0D02*
X-82550Y-15240D01*
X-92710D02*
X-87630Y0D01*
Y76200D02*
Y101600D01*
Y-25400D02*
Y0D01*
X-90170D02*
X-7620D01*
X-90170Y76200D02*
X619860D01*
X-51816Y40640D02*
X-46736Y25400D01*
X-41656Y40640D01*
X-46736Y0D02*
X-41656Y-15240D01*
X-51816D02*
X-46736Y0D01*
Y25400D02*
Y50800D01*
Y-25400D02*
Y0D01*
X-49276D02*
X-7620D01*
X-49276Y25400D02*
X99160D01*
X-132334Y15240D02*
X-127254Y0D01*
X-122174Y15240D01*
X-127254Y131000D02*
X-122174Y115760D01*
X-132334D02*
X-127254Y131000D01*
Y0D02*
Y38328D01*
Y84544D02*
Y131000D01*
X-129794Y0D02*
X-7620D01*
X-129794Y131000D02*
X-2540D01*
X-382778Y15240D02*
X-377698Y0D01*
X-372618Y15240D01*
X-377698Y508000D02*
X-372618Y492760D01*
X-382778D02*
X-377698Y508000D01*
Y0D02*
Y217941D01*
Y281931D02*
Y508000D01*
X-380238Y0D02*
X-7620D01*
X-380238Y508000D02*
X132860D01*
X-338328Y15240D02*
X-333248Y0D01*
X-328168Y15240D01*
X-333248Y472440D02*
X-328168Y457200D01*
X-338328D02*
X-333248Y472440D01*
Y0D02*
Y201431D01*
Y262881D02*
Y472440D01*
X-335788Y0D02*
X-7620D01*
X-335788Y472440D02*
X13360D01*
X-289560Y15240D02*
X-284480Y0D01*
X-279400Y15240D01*
X-284480Y386080D02*
X-279400Y370840D01*
X-289560D02*
X-284480Y386080D01*
Y0D02*
Y158251D01*
Y219701D02*
Y386080D01*
X-287020Y0D02*
X-7620D01*
X-287020Y386080D02*
X13360D01*
X-220980Y15240D02*
X-215900Y0D01*
X-210820Y15240D01*
X-215900Y355600D02*
X-210820Y340360D01*
X-220980D02*
X-215900Y355600D01*
Y0D02*
Y143011D01*
Y204461D02*
Y355600D01*
X-218440Y0D02*
X-7620D01*
X-218440Y355600D02*
X619860D01*
X-178054Y15240D02*
X-172974Y0D01*
X-167894Y15240D01*
X-172974Y234000D02*
X-167894Y218760D01*
X-178054D02*
X-172974Y234000D01*
Y0D02*
Y91098D01*
Y134774D02*
Y234000D01*
X-175514Y0D02*
X-7620D01*
X-175514Y234000D02*
X8455D01*
X0Y-494284D02*
X15240Y-489204D01*
X0Y-494284D02*
X15240Y-499364D01*
X670560D02*
X685800Y-494284D01*
X670560Y-489204D02*
X685800Y-494284D01*
X0D02*
X306841D01*
X370831D02*
X685800D01*
X0Y-496824D02*
Y-7620D01*
X685800Y-496824D02*
Y-7620D01*
X-432080Y15240D02*
X-427000Y0D01*
X-421920Y15240D01*
X-427000Y533400D02*
X-421920Y518160D01*
X-432080D02*
X-427000Y533400D01*
Y0D02*
Y231911D01*
Y293361D02*
Y533400D01*
X-429540Y0D02*
X-7620D01*
X-429540Y533400D02*
X-7620D01*
D86*
X676400Y355600D02*
G03*
X676400Y355600I-16000J0D01*
G01*
Y76200D02*
G03*
X676400Y76200I-16000J0D01*
G01*
X155700Y25400D02*
G03*
X155700Y25400I-16000J0D01*
G01*
X168400Y508000D02*
G03*
X168400Y508000I-16000J0D01*
G01*
X0Y0D02*
X685800D01*
Y533400D01*
X0D02*
X685800D01*
X0Y0D02*
Y533400D01*
D87*
X-415468Y-174549D02*
X-419700Y-170317D01*
X-428164D01*
X-432396Y-174549D01*
Y-178781D01*
X-428164Y-183013D01*
X-419700D01*
X-415468Y-187245D01*
Y-191477D01*
X-419700Y-195709D01*
X-428164D01*
X-432396Y-191477D01*
X-390076Y-178781D02*
X-402772D01*
X-407004Y-183013D01*
Y-191477D01*
X-402772Y-195709D01*
X-390076D01*
X-377381Y-178781D02*
X-368917D01*
X-364685Y-183013D01*
Y-195709D01*
X-377381D01*
X-381613Y-191477D01*
X-377381Y-187245D01*
X-364685D01*
X-356221Y-195709D02*
X-347757D01*
X-351989D01*
Y-170317D01*
X-356221D01*
X-322365Y-195709D02*
X-330829D01*
X-335061Y-191477D01*
Y-183013D01*
X-330829Y-178781D01*
X-322365D01*
X-318133Y-183013D01*
Y-187245D01*
X-335061D01*
X-284277Y-195709D02*
X-275813D01*
X-280045D01*
Y-170317D01*
X-284277Y-174549D01*
X-263118Y-178781D02*
X-258886D01*
Y-183013D01*
X-263118D01*
Y-178781D01*
Y-191477D02*
X-258886D01*
Y-195709D01*
X-263118D01*
Y-191477D01*
X-241958Y-195709D02*
X-233494D01*
X-237726D01*
Y-170317D01*
X-241958Y-174549D01*
X-429768Y-108212D02*
Y-129372D01*
X-425536Y-133604D01*
X-417072D01*
X-412840Y-129372D01*
Y-108212D01*
X-404376Y-133604D02*
Y-116676D01*
X-391680D01*
X-387448Y-120908D01*
Y-133604D01*
X-378984D02*
X-370521D01*
X-374752D01*
Y-116676D01*
X-378984D01*
X-353593Y-112444D02*
Y-116676D01*
X-357825D01*
X-349361D01*
X-353593D01*
Y-129372D01*
X-349361Y-133604D01*
X-336665D02*
X-323969D01*
X-319737Y-129372D01*
X-323969Y-125140D01*
X-332433D01*
X-336665Y-120908D01*
X-332433Y-116676D01*
X-319737D01*
X-311273D02*
X-307041D01*
Y-120908D01*
X-311273D01*
Y-116676D01*
Y-129372D02*
X-307041D01*
Y-133604D01*
X-311273D01*
Y-129372D01*
X-264721Y-133604D02*
Y-108212D01*
X-256257Y-116676D01*
X-247794Y-108212D01*
Y-133604D01*
X-239329D02*
X-230866D01*
X-235098D01*
Y-116676D01*
X-239329D01*
X-218170Y-133604D02*
X-209706D01*
X-213938D01*
Y-108212D01*
X-218170D01*
X-197010Y-133604D02*
X-184314D01*
X-180082Y-129372D01*
X-184314Y-125140D01*
X-192778D01*
X-197010Y-120908D01*
X-192778Y-116676D01*
X-180082D01*
D88*
X431434Y726011D02*
Y702685D01*
X443097Y691022D01*
X454760Y702685D01*
Y726011D01*
X466423Y691022D02*
X478086D01*
X472254D01*
Y726011D01*
X466423Y720179D01*
X495580Y726011D02*
X507243D01*
X501411D01*
Y691022D01*
X495580D01*
X507243D01*
X524737D02*
X536400D01*
X530569D01*
Y726011D01*
X524737Y720179D01*
X121035Y688990D02*
X132698D01*
X138530Y694821D01*
Y706484D01*
X132698Y712316D01*
X121035D01*
X115204Y706484D01*
Y694821D01*
X121035Y688990D01*
X156024D02*
Y718147D01*
Y706484D01*
X150193D01*
X161856D01*
X156024D01*
Y718147D01*
X161856Y723979D01*
X237664Y688990D02*
X214339D01*
X237664Y712316D01*
Y718147D01*
X231833Y723979D01*
X220170D01*
X214339Y718147D01*
X249327D02*
X255159Y723979D01*
X266822D01*
X272653Y718147D01*
Y712316D01*
X266822Y706484D01*
X272653Y700653D01*
Y694821D01*
X266822Y688990D01*
X255159D01*
X249327Y694821D01*
Y700653D01*
X255159Y706484D01*
X249327Y712316D01*
Y718147D01*
X255159Y706484D02*
X266822D01*
X284316Y688990D02*
Y723979D01*
X301810D01*
X307642Y718147D01*
Y706484D01*
X301810Y700653D01*
X284316D01*
X319305Y688990D02*
X330968D01*
X325136D01*
Y712316D01*
X319305D01*
X348462Y688990D02*
Y712316D01*
X365956D01*
X371788Y706484D01*
Y688990D01*
X383451D02*
X400945D01*
X406777Y694821D01*
X400945Y700653D01*
X389282D01*
X383451Y706484D01*
X389282Y712316D01*
X406777D01*
X17922Y757803D02*
Y792792D01*
X29585Y781129D01*
X41248Y792792D01*
Y757803D01*
X70405D02*
X58742D01*
X52911Y763634D01*
Y775297D01*
X58742Y781129D01*
X70405D01*
X76237Y775297D01*
Y769466D01*
X52911D01*
X111225Y781129D02*
X93731D01*
X87899Y775297D01*
Y763634D01*
X93731Y757803D01*
X111225D01*
X122888Y792792D02*
Y757803D01*
Y775297D01*
X128720Y781129D01*
X140382D01*
X146214Y775297D01*
Y757803D01*
X163708Y781129D02*
X175371D01*
X181203Y775297D01*
Y757803D01*
X163708D01*
X157877Y763634D01*
X163708Y769466D01*
X181203D01*
X192866Y757803D02*
Y781129D01*
X210360D01*
X216191Y775297D01*
Y757803D01*
X227854D02*
X239517D01*
X233686D01*
Y781129D01*
X227854D01*
X280337D02*
X262843D01*
X257011Y775297D01*
Y763634D01*
X262843Y757803D01*
X280337D01*
X297832Y781129D02*
X309494D01*
X315326Y775297D01*
Y757803D01*
X297832D01*
X292000Y763634D01*
X297832Y769466D01*
X315326D01*
X326989Y757803D02*
X338652D01*
X332820D01*
Y792792D01*
X326989D01*
X391135D02*
Y757803D01*
X408629D01*
X414461Y763634D01*
Y786960D01*
X408629Y792792D01*
X391135D01*
X426124Y781129D02*
Y757803D01*
Y769466D01*
X431955Y775297D01*
X437786Y781129D01*
X443618D01*
X466944D02*
X478607D01*
X484438Y775297D01*
Y757803D01*
X466944D01*
X461112Y763634D01*
X466944Y769466D01*
X484438D01*
X496101Y781129D02*
Y763634D01*
X501932Y757803D01*
X507764Y763634D01*
X513595Y757803D01*
X519427Y763634D01*
Y781129D01*
X531090Y757803D02*
X542752D01*
X536921D01*
Y781129D01*
X531090D01*
X560247Y757803D02*
Y781129D01*
X577741D01*
X583573Y775297D01*
Y757803D01*
X606898Y746140D02*
X612730D01*
X618561Y751971D01*
Y781129D01*
X601067D01*
X595236Y775297D01*
Y763634D01*
X601067Y757803D01*
X618561D01*
D89*
X308362Y-459991D02*
X298205D01*
X308362Y-449835D01*
Y-447296D01*
X305823Y-444757D01*
X300744D01*
X298205Y-447296D01*
X323597Y-444757D02*
X318518Y-447296D01*
X313440Y-452374D01*
Y-457452D01*
X315979Y-459991D01*
X321058D01*
X323597Y-457452D01*
Y-454913D01*
X321058Y-452374D01*
X313440D01*
X328675Y-447296D02*
X331214Y-444757D01*
X336293D01*
X338832Y-447296D01*
Y-457452D01*
X336293Y-459991D01*
X331214D01*
X328675Y-457452D01*
Y-447296D01*
X343910D02*
X346449Y-444757D01*
X351528D01*
X354067Y-447296D01*
Y-457452D01*
X351528Y-459991D01*
X346449D01*
X343910Y-457452D01*
Y-447296D01*
X295662Y-415796D02*
X285505D01*
X295662Y-405639D01*
Y-403100D01*
X293123Y-400560D01*
X288044D01*
X285505Y-403100D01*
X310897Y-400560D02*
X300740D01*
Y-408178D01*
X305818Y-405639D01*
X308358D01*
X310897Y-408178D01*
Y-413256D01*
X308358Y-415796D01*
X303279D01*
X300740Y-413256D01*
X315975Y-403100D02*
X318514Y-400560D01*
X323593D01*
X326132Y-403100D01*
Y-413256D01*
X323593Y-415796D01*
X318514D01*
X315975Y-413256D01*
Y-403100D01*
X331210D02*
X333749Y-400560D01*
X338828D01*
X341367Y-403100D01*
Y-413256D01*
X338828Y-415796D01*
X333749D01*
X331210Y-413256D01*
Y-403100D01*
X232162Y-353820D02*
X222005D01*
X232162Y-343663D01*
Y-341124D01*
X229623Y-338585D01*
X224544D01*
X222005Y-341124D01*
X237240D02*
X239779Y-338585D01*
X244858D01*
X247397Y-341124D01*
Y-351280D01*
X244858Y-353820D01*
X239779D01*
X237240Y-351280D01*
Y-341124D01*
X252475D02*
X255014Y-338585D01*
X260093D01*
X262632Y-341124D01*
Y-351280D01*
X260093Y-353820D01*
X255014D01*
X252475Y-351280D01*
Y-341124D01*
X267710D02*
X270249Y-338585D01*
X275328D01*
X277867Y-341124D01*
Y-351280D01*
X275328Y-353820D01*
X270249D01*
X267710Y-351280D01*
Y-341124D01*
X177555Y-298447D02*
X182633D01*
X180094D01*
Y-283213D01*
X177555Y-285752D01*
X200407Y-283213D02*
X195329Y-285752D01*
X190250Y-290830D01*
Y-295908D01*
X192790Y-298447D01*
X197868D01*
X200407Y-295908D01*
Y-293369D01*
X197868Y-290830D01*
X190250D01*
X213103Y-298447D02*
Y-283213D01*
X205486Y-290830D01*
X215642D01*
X220721Y-285752D02*
X223260Y-283213D01*
X228338D01*
X230877Y-285752D01*
Y-295908D01*
X228338Y-298447D01*
X223260D01*
X220721Y-295908D01*
Y-285752D01*
X110244Y-246632D02*
X115323D01*
X112783D01*
Y-231397D01*
X110244Y-233936D01*
X122940Y-246632D02*
X128018D01*
X125479D01*
Y-231397D01*
X122940Y-233936D01*
X135636D02*
X138175Y-231397D01*
X143253D01*
X145793Y-233936D01*
Y-244092D01*
X143253Y-246632D01*
X138175D01*
X135636Y-244092D01*
Y-233936D01*
X150871D02*
X153410Y-231397D01*
X158489D01*
X161028Y-233936D01*
Y-244092D01*
X158489Y-246632D01*
X153410D01*
X150871Y-244092D01*
Y-233936D01*
X61979Y-176786D02*
X56901Y-179326D01*
X51823Y-184404D01*
Y-189482D01*
X54362Y-192022D01*
X59440D01*
X61979Y-189482D01*
Y-186943D01*
X59440Y-184404D01*
X51823D01*
X67058Y-179326D02*
X69597Y-176786D01*
X74675D01*
X77214Y-179326D01*
Y-189482D01*
X74675Y-192022D01*
X69597D01*
X67058Y-189482D01*
Y-179326D01*
X82293D02*
X84832Y-176786D01*
X89910D01*
X92449Y-179326D01*
Y-189482D01*
X89910Y-192022D01*
X84832D01*
X82293Y-189482D01*
Y-179326D01*
X55629Y-119382D02*
X45473D01*
Y-127000D01*
X50551Y-124461D01*
X53090D01*
X55629Y-127000D01*
Y-132078D01*
X53090Y-134618D01*
X48012D01*
X45473Y-132078D01*
X70864Y-119382D02*
X60708D01*
Y-127000D01*
X65786Y-124461D01*
X68325D01*
X70864Y-127000D01*
Y-132078D01*
X68325Y-134618D01*
X63247D01*
X60708Y-132078D01*
X75943Y-121922D02*
X78482Y-119382D01*
X83560D01*
X86099Y-121922D01*
Y-132078D01*
X83560Y-134618D01*
X78482D01*
X75943Y-132078D01*
Y-121922D01*
X48940Y-28958D02*
X51479Y-26418D01*
X56557D01*
X59097Y-28958D01*
Y-31497D01*
X56557Y-34036D01*
X59097Y-36575D01*
Y-39114D01*
X56557Y-41653D01*
X51479D01*
X48940Y-39114D01*
Y-36575D01*
X51479Y-34036D01*
X48940Y-31497D01*
Y-28958D01*
X51479Y-34036D02*
X56557D01*
X64175Y-28958D02*
X66714Y-26418D01*
X71793D01*
X74332Y-28958D01*
Y-31497D01*
X71793Y-34036D01*
X69253D01*
X71793D01*
X74332Y-36575D01*
Y-39114D01*
X71793Y-41653D01*
X66714D01*
X64175Y-39114D01*
X53340Y-86103D02*
X58418D01*
X55879D01*
Y-70869D01*
X53340Y-73408D01*
X66036D02*
X68575Y-70869D01*
X73653D01*
X76193Y-73408D01*
Y-83564D01*
X73653Y-86103D01*
X68575D01*
X66036Y-83564D01*
Y-73408D01*
X81271D02*
X83810Y-70869D01*
X88889D01*
X91428Y-73408D01*
Y-83564D01*
X88889Y-86103D01*
X83810D01*
X81271Y-83564D01*
Y-73408D01*
X-91184Y-71615D02*
X-93723Y-69076D01*
Y-63997D01*
X-91184Y-61458D01*
X-88645D01*
X-86106Y-63997D01*
Y-66536D01*
Y-63997D01*
X-83567Y-61458D01*
X-81028D01*
X-78488Y-63997D01*
Y-69076D01*
X-81028Y-71615D01*
X-91184Y-56380D02*
X-93723Y-53841D01*
Y-48762D01*
X-91184Y-46223D01*
X-81028D01*
X-78488Y-48762D01*
Y-53841D01*
X-81028Y-56380D01*
X-91184D01*
Y-41145D02*
X-93723Y-38605D01*
Y-33527D01*
X-91184Y-30988D01*
X-81028D01*
X-78488Y-33527D01*
Y-38605D01*
X-81028Y-41145D01*
X-91184D01*
X-37594Y-69076D02*
Y-63997D01*
Y-66536D01*
X-52829D01*
X-50290Y-69076D01*
Y-56380D02*
X-52829Y-53841D01*
Y-48762D01*
X-50290Y-46223D01*
X-40134D01*
X-37594Y-48762D01*
Y-53841D01*
X-40134Y-56380D01*
X-50290D01*
Y-41145D02*
X-52829Y-38605D01*
Y-33527D01*
X-50290Y-30988D01*
X-40134D01*
X-37594Y-33527D01*
Y-38605D01*
X-40134Y-41145D01*
X-50290D01*
X-133348Y52549D02*
Y42392D01*
X-125730D01*
X-128269Y47470D01*
Y50010D01*
X-125730Y52549D01*
X-120652D01*
X-118112Y50010D01*
Y44931D01*
X-120652Y42392D01*
X-118112Y57627D02*
Y62706D01*
Y60166D01*
X-133348D01*
X-130808Y57627D01*
X-133348Y80480D02*
X-130808Y75401D01*
X-125730Y70323D01*
X-120652D01*
X-118112Y72862D01*
Y77941D01*
X-120652Y80480D01*
X-123191D01*
X-125730Y77941D01*
Y70323D01*
X-368557Y232162D02*
Y222005D01*
X-378713Y232162D01*
X-381252D01*
X-383792Y229623D01*
Y224544D01*
X-381252Y222005D01*
Y237240D02*
X-383792Y239779D01*
Y244858D01*
X-381252Y247397D01*
X-371096D01*
X-368557Y244858D01*
Y239779D01*
X-371096Y237240D01*
X-381252D01*
Y252475D02*
X-383792Y255014D01*
Y260093D01*
X-381252Y262632D01*
X-371096D01*
X-368557Y260093D01*
Y255014D01*
X-371096Y252475D01*
X-381252D01*
Y267710D02*
X-383792Y270249D01*
Y275328D01*
X-381252Y277867D01*
X-371096D01*
X-368557Y275328D01*
Y270249D01*
X-371096Y267710D01*
X-381252D01*
X-324106Y205495D02*
Y210573D01*
Y208034D01*
X-339342D01*
X-336802Y205495D01*
Y218190D02*
X-339342Y220730D01*
Y225808D01*
X-336802Y228347D01*
X-334263D01*
X-331724Y225808D01*
X-329185Y228347D01*
X-326646D01*
X-324106Y225808D01*
Y220730D01*
X-326646Y218190D01*
X-329185D01*
X-331724Y220730D01*
X-334263Y218190D01*
X-336802D01*
X-331724Y220730D02*
Y225808D01*
X-339342Y243582D02*
X-336802Y238504D01*
X-331724Y233426D01*
X-326646D01*
X-324106Y235965D01*
Y241043D01*
X-326646Y243582D01*
X-329185D01*
X-331724Y241043D01*
Y233426D01*
X-336802Y248661D02*
X-339342Y251200D01*
Y256278D01*
X-336802Y258817D01*
X-326646D01*
X-324106Y256278D01*
Y251200D01*
X-326646Y248661D01*
X-336802D01*
X-275338Y162315D02*
Y167393D01*
Y164854D01*
X-290574D01*
X-288034Y162315D01*
X-290574Y185167D02*
Y175011D01*
X-282956D01*
X-285495Y180089D01*
Y182628D01*
X-282956Y185167D01*
X-277878D01*
X-275338Y182628D01*
Y177550D01*
X-277878Y175011D01*
X-275338Y200402D02*
Y190246D01*
X-285495Y200402D01*
X-288034D01*
X-290574Y197863D01*
Y192785D01*
X-288034Y190246D01*
Y205481D02*
X-290574Y208020D01*
Y213098D01*
X-288034Y215637D01*
X-277878D01*
X-275338Y213098D01*
Y208020D01*
X-277878Y205481D01*
X-288034D01*
X-206758Y147075D02*
Y152153D01*
Y149614D01*
X-221994D01*
X-219454Y147075D01*
X-206758Y167388D02*
X-221994D01*
X-214376Y159770D01*
Y169927D01*
X-219454Y175006D02*
X-221994Y177545D01*
Y182623D01*
X-219454Y185162D01*
X-209298D01*
X-206758Y182623D01*
Y177545D01*
X-209298Y175006D01*
X-219454D01*
Y190241D02*
X-221994Y192780D01*
Y197858D01*
X-219454Y200397D01*
X-209298D01*
X-206758Y197858D01*
Y192780D01*
X-209298Y190241D01*
X-219454D01*
X-166372Y95162D02*
X-163832Y97701D01*
Y102779D01*
X-166372Y105318D01*
X-176528D01*
X-179067Y102779D01*
Y97701D01*
X-176528Y95162D01*
X-173989D01*
X-171450Y97701D01*
Y105318D01*
X-163832Y120554D02*
Y110397D01*
X-173989Y120554D01*
X-176528D01*
X-179067Y118014D01*
Y112936D01*
X-176528Y110397D01*
X-163832Y125632D02*
Y130710D01*
Y128171D01*
X-179067D01*
X-176528Y125632D01*
X321062Y-503425D02*
X310905D01*
X321062Y-493269D01*
Y-490730D01*
X318523Y-488190D01*
X313444D01*
X310905Y-490730D01*
X326140Y-488190D02*
X336297D01*
Y-490730D01*
X326140Y-500886D01*
Y-503425D01*
X341375Y-490730D02*
X343914Y-488190D01*
X348993D01*
X351532Y-490730D01*
Y-500886D01*
X348993Y-503425D01*
X343914D01*
X341375Y-500886D01*
Y-490730D01*
X356610D02*
X359149Y-488190D01*
X364228D01*
X366767Y-490730D01*
Y-500886D01*
X364228Y-503425D01*
X359149D01*
X356610Y-500886D01*
Y-490730D01*
X-417859Y246131D02*
Y235975D01*
X-428015Y246131D01*
X-430554D01*
X-433093Y243592D01*
Y238514D01*
X-430554Y235975D01*
X-417859Y251210D02*
Y256288D01*
Y253749D01*
X-433093D01*
X-430554Y251210D01*
Y263906D02*
X-433093Y266445D01*
Y271523D01*
X-430554Y274062D01*
X-420398D01*
X-417859Y271523D01*
Y266445D01*
X-420398Y263906D01*
X-430554D01*
Y279141D02*
X-433093Y281680D01*
Y286758D01*
X-430554Y289297D01*
X-420398D01*
X-417859Y286758D01*
Y281680D01*
X-420398Y279141D01*
X-430554D01*
M02*
