M48
;Layer_Color=9474304
;FILE_FORMAT=4:4
METRIC,LZ
;TYPE=PLATED
T1F00S00C0.3000
T3F00S00C1.0000
T4F00S00C1.1000
T5F00S00C1.5000
T6F00S00C3.2000
;TYPE=NON_PLATED
T7F00S00C3.2000
%
T01
X0033075Y0005775
X00338344Y00057665
X00370006Y00066883
X00403Y00064
X00412
X00421
X0044525Y00046
X0046575Y000425
X0045383Y0008884
X00452Y0011183
X0047525Y000935
X0048Y00161
X004475Y0021775
X00478Y00252
X0039775Y0025175
X00318Y00259
X003275Y00177
X00405648Y0011183
X00398Y0008625
X00615Y00069
Y00061
X00679Y00116
X00662061Y00157
X00632Y00176
Y00186
X00602Y00182
X0030275Y0017725
X00303Y0022575
X0026778Y0024528
X00208Y0024925
X0020784Y0021034
X00196Y00209
X00176Y00208
X001655Y0020725
X00158Y0020125
X00176Y00192
X001185Y00193
X0011825Y00215
X0014Y0022416
X00133Y00176
Y00169
Y00162
X00121Y00169
X00106Y00157
Y00146
X00099
X00113
X00151Y00133
X0016525Y00132
X001895Y0013125
X00195Y001425
X00255Y00122
X0026325Y00057
X00306
Y0008
X0024Y00182
X00234Y001995
X0017975Y00288
X0015Y0027225
X0010016Y00272
X001085Y002495
X0008075
X0008Y00221327
X00058621Y00221133
X0006Y0023475
X0004116Y00283
X00012Y00284
X00084Y00293
X0007975Y0018175
X00086Y00111
Y00101
X00097814Y00321879
X0010475Y0036925
X0011475Y0036975
X00111Y0040875
X00104Y00409
X00108Y00415
X00167Y00411
X0018375Y00426
X00197Y0043
X00198Y00452
X00214Y00484
X00277Y0049125
X00299Y00415
X00272Y0034175
X00219Y0032825
X00213Y004
X00058Y00452
X0005575Y00522
X00379Y0049
Y00484
X00388
Y0049
X0039Y00388
Y00381
X00379
Y00388
X00325Y0041
X00323Y00426
X00547Y00413
X00562Y00417
X00571594Y00407594
X00578Y004
X00577Y00388
Y00382
Y00376
X00623Y00465
T03
X005975Y002625
Y003075
X006625
Y002625
X002365Y000815
X001915
Y000165
X002365
T04
X003302Y000254
X003556
X00381
X004064
X004318
X004572
X00508
X005334
X005588
X005842
X006096
X00635
X0062065Y0012573
X0059525
X0056985
X0054445
X0051905
X0049365
X0046825
X0044285
X0041745
X0039205
X0036665
X0034125
X0031585
Y0020193
X0034125
X0036665
X0039205
X0041745
X0044285
X0046825
X0049365
X0051905
X0054445
X0056985
X0059525
X0062065
X0029045
Y0012573
X002794Y000254
X003048
X00167Y00088
X001416
X001162
X000508Y003166
X000254
Y00342
X000508
Y0038608
Y0041148
X000762
Y0038608
X000254
Y0041148
Y0047244
Y0049784
X000508
X000762
Y0047244
X000508
X00146Y00446
Y004206
Y003952
Y003698
X0018796Y00508
X0021336
X0023876
X0026416
X0028956
X0031496
X0034036
X0036576
X0039116
X0041656
X004572
X004826
X00508
X005334
X005588
X005842
X006096
X00635
X00662Y00469
Y004436
Y004182
T05
X00021Y00024
Y00131
T06
X006604Y000762
X001397Y000254
X006604Y003556
T07
X001524Y00508
M30
